<svg width="36" height="36" viewBox="0 0 36 36" fill="none" xmlns="http://www.w3.org/2000/svg">
<path d="M36 18C36 8.05887 27.9411 0 18 0C8.05887 0 0 8.05887 0 18C0 27.9411 8.05887 36 18 36C27.9411 36 36 27.9411 36 18Z" fill="white"/>
<path d="M35 18C35 8.61116 27.3888 1 18 1C8.61116 1 1 8.61116 1 18C1 27.3888 8.61116 35 18 35C27.3888 35 35 27.3888 35 18Z" stroke="#000" stroke-width="2"/>
<path d="M10.6803 23.623C10.5294 23.4573 10.4457 23.2411 10.4457 23.017C10.4457 22.7928 10.5294 22.5767 10.6803 22.411C10.7494 22.3303 10.835 22.2656 10.9315 22.2212C11.028 22.1768 11.133 22.1538 11.2393 22.1538C11.3455 22.1538 11.4504 22.1768 11.5469 22.2212C11.6434 22.2656 11.7291 22.3303 11.7982 22.411C13.3282 24.071 15.8783 23.2021 18.5732 22.2531C21.4152 21.2531 24.3532 20.253 26.3452 22.411C26.4962 22.5767 26.5798 22.7928 26.5798 23.017C26.5798 23.2411 26.4962 23.4573 26.3452 23.623C26.2762 23.7039 26.1905 23.7687 26.094 23.8132C25.9975 23.8577 25.8925 23.8807 25.7863 23.8807C25.68 23.8807 25.575 23.8577 25.4785 23.8132C25.382 23.7687 25.2963 23.7039 25.2273 23.623C23.9163 22.2 21.5363 23.017 19.0353 23.887C17.4642 24.5338 15.7999 24.9254 14.1052 25.047C13.4656 25.0695 12.8286 24.954 12.2376 24.7083C11.6465 24.4625 11.1155 24.0924 10.6803 23.623ZM22.4583 14.688C22.3513 14.6851 22.246 14.6607 22.1487 14.6165C22.0513 14.5722 21.9639 14.5089 21.8915 14.4302C21.819 14.3515 21.763 14.259 21.7269 14.1583C21.6908 14.0576 21.6754 13.9508 21.6813 13.844C21.6745 13.6297 21.752 13.4212 21.8973 13.2635C22.0427 13.1059 22.2441 13.0116 22.4583 13.001H26.2233C26.3301 13.0039 26.4352 13.0282 26.5325 13.0724C26.6298 13.1166 26.7173 13.18 26.7897 13.2585C26.8621 13.3371 26.9181 13.4293 26.9542 13.5299C26.9904 13.6305 27.006 13.7373 27.0003 13.844C27.0123 14.0556 26.9398 14.2633 26.7988 14.4215C26.6578 14.5797 26.4599 14.6756 26.2483 14.688H22.4583ZM10.7772 14.688C10.6702 14.6852 10.5649 14.6611 10.4674 14.6168C10.3699 14.5726 10.2824 14.5092 10.2098 14.4305C10.1373 14.3518 10.0812 14.2593 10.0451 14.1586C10.0089 14.0578 9.99335 13.9509 9.99928 13.844C9.99349 13.7372 10.0092 13.6303 10.0454 13.5297C10.0816 13.429 10.1377 13.3368 10.2102 13.2582C10.2827 13.1796 10.3703 13.1163 10.4677 13.0721C10.5651 13.028 10.6703 13.0038 10.7772 13.001H14.5413C14.6492 13.0037 14.7555 13.0277 14.8541 13.0715C14.9528 13.1154 15.0418 13.1783 15.1161 13.2566C15.1904 13.3349 15.2485 13.427 15.2871 13.5278C15.3258 13.6286 15.3441 13.7361 15.3412 13.844C15.3441 13.952 15.3259 14.0594 15.2872 14.1603C15.2486 14.2611 15.1904 14.3534 15.1161 14.4318C15.0418 14.5101 14.9528 14.5731 14.8541 14.6171C14.7555 14.661 14.6492 14.6851 14.5413 14.688H10.7772Z" fill="#000"/>
</svg>
