<svg width="36" height="36" viewBox="0 0 36 36" fill="none" xmlns="http://www.w3.org/2000/svg">
<path d="M18 35C13.4591 35 9.19006 33.2317 5.97919 30.0208C2.76831 26.8099 1 22.5409 1 18C1 13.4591 2.76831 9.19006 5.97919 5.97919C9.19006 2.76831 13.4591 1 18 1C22.5409 1 26.8099 2.76831 30.0208 5.97919C33.2317 9.19006 35 13.4591 35 18C35 22.5409 33.2317 26.8099 30.0208 30.0208C26.8099 33.2317 22.5409 35 18 35Z" fill="white"/>
<path d="M18 2C13.7262 2 9.7083 3.66429 6.68629 6.68629C3.66429 9.7083 2 13.7262 2 18C2 22.2738 3.66429 26.2917 6.68629 29.3137C9.7083 32.3357 13.7262 34 18 34C22.2738 34 26.2917 32.3357 29.3137 29.3137C32.3357 26.2917 34 22.2738 34 18C34 13.7262 32.3357 9.7083 29.3137 6.68629C26.2917 3.66429 22.2738 2 18 2ZM18 0C27.9411 0 36 8.05888 36 18C36 27.9411 27.9411 36 18 36C8.05888 36 0 27.9411 0 18C0 8.05888 8.05888 0 18 0Z" fill="#000"/>
<path d="M9.11186 22.127C9.03251 21.9182 9.03734 21.6868 9.12541 21.4816C9.21348 21.2763 9.37781 21.1133 9.58379 21.027C9.78903 20.9426 10.0192 20.9421 10.2249 21.0255C10.4306 21.1089 10.5952 21.2695 10.6838 21.473C10.7628 21.657 12.7637 25.9618 18.3257 25.9618C23.9397 25.9618 25.4278 21.499 25.4278 21.473C25.5185 21.2707 25.682 21.1098 25.8857 21.0222C26.0894 20.9346 26.3185 20.9267 26.5278 21C26.7299 21.0909 26.8906 21.2544 26.978 21.4581C27.0653 21.6618 27.0732 21.8908 26.9998 22.1C26.9218 22.337 25.0697 27.6659 18.3237 27.6659C11.6127 27.6669 9.21786 22.338 9.11186 22.127ZM24.9906 15.9129C24.749 15.9143 24.5097 15.8679 24.2862 15.776C24.0627 15.6842 23.8597 15.549 23.6889 15.3781C23.5181 15.2072 23.3829 15.0041 23.2912 14.7806C23.1995 14.557 23.1531 14.3174 23.1547 14.0758V12.6329C23.1531 12.3913 23.1995 12.1519 23.2912 11.9284C23.3829 11.7049 23.5181 11.5019 23.6889 11.3311C23.8597 11.1603 24.0627 11.0251 24.2862 10.9334C24.5097 10.8417 24.7491 10.7953 24.9906 10.7969H25.0166C25.2582 10.7953 25.4978 10.8417 25.7214 10.9334C25.9449 11.0251 26.148 11.1602 26.3189 11.331C26.4898 11.5018 26.625 11.7049 26.7168 11.9284C26.8087 12.1519 26.8551 12.3913 26.8537 12.6329V14.0758C26.8551 14.3175 26.8086 14.557 26.7168 14.7806C26.625 15.0041 26.4898 15.2072 26.3189 15.3781C26.148 15.549 25.9449 15.6842 25.7214 15.776C25.4978 15.8678 25.2583 15.9143 25.0166 15.9129H24.9906ZM11.6637 15.9129C11.4221 15.9143 11.1826 15.8679 10.9592 15.776C10.7357 15.6842 10.5327 15.549 10.3619 15.3781C10.1911 15.2072 10.0558 15.0041 9.96416 14.7806C9.87247 14.557 9.82609 14.3174 9.82768 14.0758V12.6329C9.82609 12.3913 9.87245 12.1519 9.96416 11.9284C10.0559 11.7049 10.1911 11.5019 10.3619 11.3311C10.5327 11.1603 10.7358 11.0251 10.9593 10.9334C11.1827 10.8417 11.4222 10.7953 11.6637 10.7969H11.6897C11.9313 10.7953 12.1708 10.8417 12.3943 10.9334C12.6179 11.0251 12.821 11.1602 12.9919 11.331C13.1628 11.5018 13.298 11.7049 13.3898 11.9284C13.4816 12.1519 13.5281 12.3913 13.5267 12.6329V14.0758C13.5281 14.3175 13.4816 14.557 13.3898 14.7806C13.298 15.0041 13.1627 15.2072 12.9919 15.3781C12.821 15.549 12.618 15.6842 12.3945 15.776C12.1709 15.8678 11.9314 15.9143 11.6897 15.9129H11.6637Z" fill="#000"/>
<path d="M26.5 21H10C10.8333 22.8333 13.7 27 18.5 27C23.3 27 25.8333 22.8333 26.5 21Z" fill="#000"/>
</svg>
