<svg width="36" height="36" viewBox="0 0 36 36" fill="none" xmlns="http://www.w3.org/2000/svg">
<path d="M36 18C36 8.05887 27.9411 0 18 0C8.05887 0 0 8.05887 0 18C0 27.9411 8.05887 36 18 36C27.9411 36 36 27.9411 36 18Z" fill="white"/>
<path d="M35 18C35 8.61116 27.3888 1 18 1C8.61116 1 1 8.61116 1 18C1 27.3888 8.61116 35 18 35C27.3888 35 35 27.3888 35 18Z" stroke="#000" stroke-width="2"/>
<path d="M9.84004 24.2281C9.72932 24.2295 9.6195 24.2088 9.51692 24.1671C9.41434 24.1255 9.32105 24.0636 9.24275 23.9853C9.16445 23.907 9.10268 23.8138 9.06099 23.7112C9.0193 23.6086 8.99859 23.4987 9.00007 23.388C8.99859 23.2773 9.0193 23.1674 9.06099 23.0649C9.10268 22.9623 9.16445 22.8691 9.24275 22.7908C9.32105 22.7125 9.41434 22.6506 9.51692 22.6089C9.6195 22.5672 9.72932 22.5465 9.84004 22.548H26.1611C26.2718 22.5465 26.3817 22.5672 26.4843 22.6089C26.5869 22.6506 26.6801 22.7125 26.7584 22.7908C26.8367 22.8691 26.8984 22.9623 26.9401 23.0649C26.9818 23.1674 27.0025 23.2773 27.0011 23.388C27.0025 23.4987 26.9818 23.6086 26.9401 23.7112C26.8984 23.8138 26.8367 23.907 26.7584 23.9853C26.6801 24.0636 26.5869 24.1255 26.4843 24.1671C26.3817 24.2088 26.2718 24.2295 26.1611 24.2281H9.84004ZM24.6651 17.117C24.4235 17.1184 24.1839 17.0719 23.9604 16.9801C23.7369 16.8883 23.5337 16.7531 23.3629 16.5822C23.192 16.4113 23.0567 16.2083 22.9649 15.9848C22.8731 15.7612 22.8266 15.5217 22.8281 15.2801V13.8371C22.8266 13.5954 22.8731 13.3559 22.9649 13.1324C23.0567 12.9088 23.192 12.7057 23.3629 12.5348C23.5337 12.364 23.7369 12.2287 23.9604 12.1369C24.1839 12.0451 24.4235 11.9986 24.6651 12H24.6911C24.9328 11.9986 25.1723 12.0451 25.3958 12.1369C25.6194 12.2287 25.8224 12.364 25.9932 12.5348C26.1641 12.7057 26.2994 12.9088 26.3912 13.1324C26.483 13.3559 26.5295 13.5954 26.528 13.8371V15.2801C26.5295 15.5217 26.483 15.7612 26.3912 15.9848C26.2994 16.2083 26.1641 16.4113 25.9932 16.5822C25.8224 16.7531 25.6194 16.8883 25.3958 16.9801C25.1723 17.0719 24.9328 17.1184 24.6911 17.117H24.6651ZM11.335 17.117C11.0934 17.1184 10.854 17.0719 10.6306 16.9801C10.4071 16.8883 10.2039 16.7531 10.0332 16.5822C9.86236 16.4113 9.72726 16.2082 9.63557 15.9847C9.54388 15.7611 9.4975 15.5217 9.4991 15.2801V13.8371C9.4975 13.5955 9.54388 13.3559 9.63557 13.1324C9.72726 12.9088 9.86236 12.7057 10.0332 12.5348C10.2039 12.3639 10.4071 12.2287 10.6306 12.1369C10.854 12.0451 11.0934 11.9986 11.335 12H11.3621C11.6037 11.9986 11.8431 12.0451 12.0666 12.1369C12.2901 12.2287 12.4931 12.3639 12.6639 12.5348C12.8347 12.7057 12.9699 12.9088 13.0616 13.1324C13.1533 13.3559 13.1997 13.5955 13.1981 13.8371V15.2801C13.1997 15.5217 13.1533 15.7611 13.0616 15.9847C12.9699 16.2082 12.8347 16.4113 12.6639 16.5822C12.4931 16.7531 12.2901 16.8883 12.0666 16.9801C11.8431 17.0719 11.6037 17.1184 11.3621 17.117H11.335Z" fill="#000"/>
</svg>
