<svg width="36" height="36" viewBox="0 0 36 36" fill="none" xmlns="http://www.w3.org/2000/svg">
<path d="M18 35C13.4591 35 9.19006 33.2317 5.97919 30.0208C2.76831 26.8099 1 22.5409 1 18C1 13.4591 2.76831 9.19006 5.97919 5.97919C9.19006 2.76831 13.4591 1 18 1C22.5409 1 26.8099 2.76831 30.0208 5.97919C33.2317 9.19006 35 13.4591 35 18C35 22.5409 33.2317 26.8099 30.0208 30.0208C26.8099 33.2317 22.5409 35 18 35Z" fill="white"/>
<path d="M18 2C13.7262 2 9.7083 3.66429 6.68629 6.68629C3.66429 9.7083 2 13.7262 2 18C2 22.2738 3.66429 26.2917 6.68629 29.3137C9.7083 32.3357 13.7262 34 18 34C22.2738 34 26.2917 32.3357 29.3137 29.3137C32.3357 26.2917 34 22.2738 34 18C34 13.7262 32.3357 9.7083 29.3137 6.68629C26.2917 3.66429 22.2738 2 18 2ZM18 0C27.9411 0 36 8.05888 36 18C36 27.9411 27.9411 36 18 36C8.05888 36 0 27.9411 0 18C0 8.05888 8.05888 0 18 0Z" fill="#000"/>
<path d="M10.5521 21.832C10.4854 21.6582 10.4891 21.4653 10.5623 21.2941C10.6354 21.1229 10.7724 20.9869 10.9441 20.915C11.1153 20.8442 11.3076 20.8435 11.4794 20.9131C11.6511 20.9827 11.7886 21.1169 11.8622 21.287C11.9282 21.439 13.3691 24.717 18.0011 24.717C22.6761 24.717 24.1401 21.309 24.1401 21.287C24.2157 21.1183 24.352 20.9843 24.5219 20.9115C24.6917 20.8387 24.8829 20.8324 25.0571 20.894C25.2258 20.9696 25.3599 21.1059 25.4327 21.2758C25.5056 21.4457 25.5118 21.6368 25.4502 21.811C25.3842 22.011 23.6151 26.136 18.0011 26.136C16.4747 26.2253 14.9556 25.8652 13.6317 25.1002C12.3078 24.3353 11.2371 23.199 10.5521 21.832ZM25.8963 12.8139C25.7046 12.623 25.3959 12.6191 25.1995 12.8052L22.9708 14.9175C22.6826 15.1906 22.2289 15.1832 21.9498 14.9008C21.6639 14.6115 21.6697 14.1443 21.9627 13.8622L24.8474 11.0845C25.2395 10.707 25.8615 10.7124 26.247 11.0966L29.0174 13.8579C29.3037 14.1434 29.3041 14.607 29.0182 14.893C28.7331 15.1782 28.2708 15.1786 27.9851 14.894L25.8963 12.8139ZM11.4558 12.8052C11.2594 12.6191 10.9506 12.6231 10.759 12.814L8.67222 14.8937C8.38651 15.1785 7.92418 15.1781 7.63896 14.8929C7.35308 14.607 7.35343 14.1434 7.63974 13.8579L10.4103 11.0958C10.7954 10.7119 11.4166 10.706 11.8089 11.0826L14.6982 13.8566C14.9946 14.1412 14.9994 14.6137 14.7089 14.9043C14.4279 15.1852 13.9743 15.1913 13.6859 14.9181L11.4558 12.8052Z" fill="#000"/>
</svg>
