<svg width="36" height="36" viewBox="0 0 36 36" fill="none" xmlns="http://www.w3.org/2000/svg">
<path d="M36 18C36 8.05887 27.9411 0 18 0C8.05887 0 0 8.05887 0 18C0 27.9411 8.05887 36 18 36C27.9411 36 36 27.9411 36 18Z" fill="white"/>
<path d="M35 18C35 8.61116 27.3888 1 18 1C8.61116 1 1 8.61116 1 18C1 27.3888 8.61116 35 18 35C27.3888 35 35 27.3888 35 18Z" stroke="#000" stroke-width="2"/>
<path d="M9.38237 22.498C9.30301 22.2892 9.30785 22.0578 9.39592 21.8526C9.48399 21.6473 9.64832 21.4843 9.85429 21.398C10.0595 21.3136 10.2898 21.3131 10.4954 21.3965C10.7011 21.4799 10.8657 21.6405 10.9543 21.844C11.0333 22.028 12.7643 25.962 18.3263 25.962C23.9403 25.962 25.6983 21.87 25.6983 21.844C25.7891 21.6417 25.9525 21.4808 26.1562 21.3932C26.3599 21.3056 26.589 21.2977 26.7983 21.371C27.0004 21.462 27.1611 21.6255 27.2485 21.8291C27.3359 22.0328 27.3437 22.2618 27.2703 22.471C27.1923 22.708 25.0703 27.6661 18.3243 27.6661C11.6133 27.6671 9.48837 22.709 9.38237 22.498ZM24.9913 15.913C24.7497 15.9145 24.5103 15.868 24.2868 15.7762C24.0633 15.6844 23.8603 15.5491 23.6895 15.3782C23.5187 15.2073 23.3835 15.0042 23.2918 14.7807C23.2001 14.5572 23.1537 14.3176 23.1553 14.076V12.633C23.1537 12.3914 23.2001 12.152 23.2918 11.9285C23.3835 11.705 23.5187 11.502 23.6895 11.3312C23.8603 11.1604 24.0633 11.0252 24.2868 10.9335C24.5103 10.8418 24.7497 10.7954 24.9913 10.797H25.0173C25.2589 10.7954 25.4984 10.8418 25.722 10.9335C25.9455 11.0252 26.1486 11.1603 26.3195 11.3311C26.4904 11.5019 26.6256 11.705 26.7175 11.9285C26.8093 12.152 26.8558 12.3914 26.8543 12.633V14.076C26.8558 14.3176 26.8093 14.5571 26.7175 14.7807C26.6257 15.0042 26.4904 15.2073 26.3195 15.3782C26.1486 15.5491 25.9455 15.6844 25.722 15.7762C25.4984 15.868 25.2589 15.9145 25.0173 15.913H24.9913ZM11.6644 15.913C11.4228 15.9145 11.1832 15.868 10.9598 15.7762C10.7363 15.6844 10.5333 15.5491 10.3625 15.3782C10.1917 15.2073 10.0565 15.0042 9.96477 14.7807C9.87308 14.5572 9.8267 14.3176 9.82829 14.076V12.633C9.8267 12.3914 9.87306 12.152 9.96477 11.9285C10.0565 11.705 10.1917 11.502 10.3625 11.3312C10.5333 11.1604 10.7364 11.0252 10.9599 10.9335C11.1834 10.8418 11.4228 10.7954 11.6644 10.797H11.6904C11.932 10.7954 12.1714 10.8418 12.3949 10.9335C12.6185 11.0252 12.8216 11.1603 12.9925 11.3311C13.1634 11.5019 13.2986 11.705 13.3904 11.9285C13.4822 12.152 13.5287 12.3914 13.5273 12.633V14.076C13.5287 14.3176 13.4822 14.5571 13.3904 14.7807C13.2986 15.0042 13.1633 15.2073 12.9925 15.3782C12.8216 15.5491 12.6186 15.6844 12.3951 15.7762C12.1715 15.868 11.932 15.9145 11.6904 15.913H11.6644Z" fill="#000"/>
</svg>
