<svg width="56" height="56" viewBox="0 0 56 56" fill="none" xmlns="http://www.w3.org/2000/svg">
<ellipse cx="39" cy="32" rx="14" ry="14" transform="rotate(-90 39 32)" fill="#F7F4BA"/>
<ellipse cx="32.5" cy="8.5" rx="3.5" ry="3.5" transform="rotate(-90 32.5 8.5)" fill="#F7F4BA"/>
<circle cx="14.5" cy="20.5" r="9.5" transform="rotate(-90 14.5 20.5)" fill="#F7F4BA"/>
<path d="M35.5 18.5C35.5 17.1193 36.6193 16 38 16V16C39.3807 16 40.5 17.1193 40.5 18.5V38.5C40.5 39.8807 39.3807 41 38 41V41C36.6193 41 35.5 39.8807 35.5 38.5V18.5Z" stroke="#6E6B04" stroke-width="1.3"/>
<path d="M20 18.5C20 17.1193 18.8807 16 17.5 16V16C16.1193 16 15 17.1193 15 18.5V38.5C15 39.8807 16.1193 41 17.5 41V41C18.8807 41 20 39.8807 20 38.5V18.5Z" stroke="#6E6B04" stroke-width="1.3"/>
<path d="M40.5 22.5C40.5 21.1193 41.6193 20 43 20V20C44.3807 20 45.5 21.1193 45.5 22.5V34.5C45.5 35.8807 44.3807 37 43 37V37C41.6193 37 40.5 35.8807 40.5 34.5V22.5Z" stroke="#6E6B04" stroke-width="1.3"/>
<path d="M15 22.5C15 21.1193 13.8807 20 12.5 20V20C11.1193 20 10 21.1193 10 22.5V34.5C10 35.8807 11.1193 37 12.5 37V37C13.8807 37 15 35.8807 15 34.5V22.5Z" stroke="#6E6B04" stroke-width="1.3"/>
<path d="M45.5 27C45.5 26.4477 45.9477 26 46.5 26H47.5C48.0523 26 48.5 26.4477 48.5 27V30C48.5 30.5523 48.0523 31 47.5 31H46.5C45.9477 31 45.5 30.5523 45.5 30V27Z" stroke="#6E6B04" stroke-width="1.3"/>
<path d="M10 27C10 26.4477 9.55228 26 9 26H8C7.44772 26 7 26.4477 7 27V30C7 30.5523 7.44772 31 8 31H9C9.55228 31 10 30.5523 10 30V27Z" stroke="#6E6B04" stroke-width="1.3"/>
<path d="M35.5 31V26H20V31H30" stroke="#6E6B04" stroke-width="1.3" stroke-linecap="round"/>
<path d="M33.3 31C33.3 31.359 33.009 31.65 32.65 31.65C32.291 31.65 32 31.359 32 31C32 30.641 32.291 30.35 32.65 30.35C33.009 30.35 33.3 30.641 33.3 31Z" fill="#6E6B04"/>
</svg>
