<svg width="56" height="56" viewBox="0 0 56 56" fill="none" xmlns="http://www.w3.org/2000/svg">
<circle cx="35" cy="21" r="14" fill="#FBE0CF"/>
<ellipse cx="16.3333" cy="39.6667" rx="9.33333" ry="9.33333" fill="#FBE0CF"/>
<circle cx="39.6668" cy="44.3333" r="2.33333" fill="#FBE0CF"/>
<path d="M37.8054 21.4691C37.4171 20.7985 37.4526 19.9596 37.913 19.3361L38.5081 18.5302C39.894 16.6535 38.5526 14 36.2179 14H19.2724C16.9377 14 15.5963 16.6535 16.9822 18.5302L17.5773 19.3361C18.0377 19.9596 18.0733 20.7985 17.6849 21.4691C16.7716 23.0463 15.1458 26.0138 14.4206 28.3287C13.7409 30.4982 13.4841 33.2697 13.4188 35.796C13.3487 38.5057 14.9195 40.7647 17.1951 41.8895M39.818 25.258C40.3134 26.2967 40.769 27.3688 41.0697 28.3287C41.7494 30.4982 42.0062 33.2697 42.0716 35.796C42.1723 39.6926 38.8798 42.6573 34.9776 42.6573H22.2801" stroke="#7A292C" stroke-width="1.3" stroke-linecap="round" stroke-linejoin="round"/>
<path d="M23.5011 28.7346C25.4575 25.5881 30.037 25.5881 31.9934 28.7346L33.6212 31.3526C35.692 34.6832 33.297 38.9927 29.375 38.9927H26.1195C22.1976 38.9927 19.8025 34.6832 21.8734 31.3526L23.5011 28.7346Z" stroke="#7A292C" stroke-width="1.3"/>
<path d="M27.645 31.7705C27.722 31.6372 27.9144 31.6372 27.9914 31.7705L29.336 34.0993C30.0105 35.2677 29.1673 36.7281 27.8182 36.7281V36.7281C26.4691 36.7281 25.6259 35.2677 26.3005 34.0993L27.645 31.7705Z" stroke="#7A292C" stroke-width="1.3"/>
<path d="M20.5524 42.65C20.5524 43.009 20.2614 43.3 19.9024 43.3C19.5435 43.3 19.2524 43.009 19.2524 42.65C19.2524 42.291 19.5435 42 19.9024 42C20.2614 42 20.5524 42.291 20.5524 42.65Z" fill="#7A292C"/>
<path d="M39.6495 23.35C39.6495 23.709 39.3585 24 38.9995 24C38.6405 24 38.3495 23.709 38.3495 23.35C38.3495 22.991 38.6405 22.7 38.9995 22.7C39.3585 22.7 39.6495 22.991 39.6495 23.35Z" fill="#7A292C"/>
</svg>
