<svg width="56" height="56" viewBox="0 0 56 56" fill="none" xmlns="http://www.w3.org/2000/svg">
<ellipse cx="23.9167" cy="32.0833" rx="16.9167" ry="16.9167" transform="rotate(-90 23.9167 32.0833)" fill="#CBE7FF"/>
<circle cx="45.5" cy="10.5" r="3.5" transform="rotate(-90 45.5 10.5)" fill="#CBE7FF"/>
<path d="M15.1099 24.3055C16.0534 30.9017 21.7261 35.9722 28.5831 35.9722C35.4402 35.9722 41.1129 30.9017 42.0564 24.3055" stroke="#0C4D84" stroke-width="1.3"/>
<path d="M34.9026 13.7326C33.1321 12.4337 30.9472 11.6666 28.5831 11.6666C22.6767 11.6666 17.8887 16.4547 17.8887 22.3611C17.8887 25.2953 19.0704 27.9536 20.9839 29.8859M36.7235 15.425C38.3162 17.2924 39.2776 19.7144 39.2776 22.3611C39.2776 28.2675 34.4895 33.0555 28.5831 33.0555C27.1548 33.0555 25.792 32.7755 24.5464 32.2675" stroke="#0C4D84" stroke-width="1.3" stroke-linecap="round"/>
<path d="M23.15 31.1498C23.15 31.5087 22.859 31.7998 22.5 31.7998C22.141 31.7998 21.85 31.5087 21.85 31.1498C21.85 30.7908 22.141 30.4998 22.5 30.4998C22.859 30.4998 23.15 30.7908 23.15 31.1498Z" fill="#0C4D84"/>
<path d="M31.014 39.4123H22.8057C21.7011 39.4123 20.8057 40.3077 20.8057 41.4123V42.8011C20.8057 43.0773 21.0295 43.3011 21.3057 43.3011H35.8612C36.1374 43.3011 36.3612 43.0773 36.3612 42.8011V41.4123C36.3612 40.3077 35.4658 39.4123 34.3612 39.4123H33.4446H33.2015" stroke="#0C4D84" stroke-width="1.3" stroke-linecap="round"/>
<path d="M39.2776 24.3055H41.2221C42.2959 24.3055 43.1665 23.435 43.1665 22.3611V22.3611C43.1665 21.2872 42.2959 20.4167 41.2221 20.4167H39.2776" stroke="#0C4D84" stroke-width="1.3"/>
<path d="M17.8889 24.3055H15.9444C14.8706 24.3055 14 23.435 14 22.3611V22.3611C14 21.2872 14.8706 20.4167 15.9444 20.4167H17.8889" stroke="#0C4D84" stroke-width="1.3"/>
<path d="M28.5835 35.972V39.3748" stroke="#0C4D84" stroke-width="1.3"/>
</svg>
