<svg width="16" height="16" viewBox="0 0 16 16" fill="none" xmlns="http://www.w3.org/2000/svg">
<path d="M11.1335 12.6535H4.8668C4.5868 12.6535 4.27347 12.4335 4.18013 12.1668L1.42013 4.44682C1.0268 3.34015 1.4868 3.00015 2.43347 3.68015L5.03347 5.54015C5.4668 5.84015 5.96013 5.68682 6.1468 5.20015L7.32013 2.07349C7.69347 1.07349 8.31347 1.07349 8.6868 2.07349L9.86013 5.20015C10.0468 5.68682 10.5401 5.84015 10.9668 5.54015L13.4068 3.80015C14.4468 3.05349 14.9468 3.43349 14.5201 4.64015L11.8268 12.1802C11.7268 12.4335 11.4135 12.6535 11.1335 12.6535Z" stroke="#FFB31B" stroke-linecap="round" stroke-linejoin="round"/>
<path d="M4.3335 14.6667H11.6668" stroke="#FFB31B" stroke-linecap="round" stroke-linejoin="round"/>
<path d="M6.3335 9.33325H9.66683" stroke="#FFB31B" stroke-linecap="round" stroke-linejoin="round"/>
</svg>
