<svg width="16" height="16" viewBox="0 0 16 16" fill="none" xmlns="http://www.w3.org/2000/svg">
<path d="M7.97074 2.17318C7.20302 2.17339 6.47393 2.31803 5.80312 2.60323C5.09259 2.90501 4.46209 3.31945 3.92894 3.83532C3.4022 4.34467 2.97953 4.9563 2.67273 5.65305C2.36878 6.3436 2.21023 7.09866 2.20148 7.89773C2.1929 8.64804 2.3217 9.36025 2.58441 10.0146C2.85163 10.6806 3.22755 11.2762 3.70171 11.7849C4.18431 12.3028 4.76079 12.7368 5.41569 13.0752C6.05909 13.4081 6.76551 13.6171 7.51535 13.6964L7.532 13.6982L7.54859 13.7005C7.77522 13.731 8.00198 13.7551 8.2443 13.7741C8.49262 13.7941 8.77421 13.8094 9.07916 13.8195C9.23583 13.8244 9.39776 13.8268 9.56046 13.8268C9.72811 13.8268 9.91112 13.8242 10.1051 13.819C10.4717 13.8093 10.8973 13.779 11.3703 13.7289L11.376 13.7283L11.3818 13.7277C11.4605 13.7201 11.5366 13.7125 11.6106 13.7048C11.5841 13.5202 11.5865 13.3279 11.6199 13.1324C11.6998 12.6624 11.9129 12.2303 12.2532 11.8479L12.2577 11.8428L12.2622 11.8379C12.7102 11.3459 13.0795 10.7604 13.3597 10.098C13.6323 9.45279 13.7799 8.74319 13.7982 7.98887C13.806 7.19816 13.6615 6.44804 13.3688 5.75918C13.0684 5.05249 12.6536 4.42697 12.1365 3.9007C11.6212 3.37701 11.0021 2.95473 10.2972 2.646C9.60107 2.34169 8.84208 2.1827 8.05051 2.17347L7.97074 2.17318ZM7.9725 1.00781L8.05491 1.00812C9.01262 1.01923 9.92412 1.21107 10.764 1.57821C11.6058 1.94694 12.3471 2.45318 12.9672 3.08332C13.5878 3.715 14.0837 4.462 14.4413 5.3033C14.7983 6.14335 14.9739 7.05327 14.9634 8.0086C14.9425 8.91279 14.7641 9.76838 14.4332 10.5516C14.1012 11.3367 13.6603 12.0335 13.1238 12.6226C12.931 12.8392 12.8116 13.0765 12.7688 13.3277C12.7188 13.6199 12.8408 13.8559 13.1207 14.0096C13.3734 14.1427 13.6603 14.2557 13.9738 14.3453L14.1723 14.4079L13.9663 14.473C13.4331 14.6416 12.6008 14.7814 11.4932 14.8877C10.9901 14.9411 10.5333 14.9735 10.1358 14.984C9.93461 14.9894 9.74291 14.9922 9.56048 14.9922C9.37849 14.9922 9.20605 14.9894 9.04278 14.9843C8.71599 14.9735 8.41856 14.9573 8.15066 14.9357C7.88373 14.9148 7.63266 14.8877 7.39271 14.8554C6.49838 14.7607 5.65308 14.5101 4.88019 14.1103C4.10637 13.7104 3.42305 13.1953 2.84917 12.5795C2.27671 11.9652 1.8238 11.2484 1.50288 10.4487C1.18276 9.65122 1.02585 8.78831 1.03619 7.88443C1.04667 6.92783 1.23834 6.01918 1.60612 5.18359C1.97405 4.348 2.483 3.61243 3.11884 2.99758C3.75499 2.38208 4.50483 1.88853 5.34759 1.53061C6.16329 1.18376 7.04639 1.00781 7.9725 1.00781Z" fill="#3D3736"/>
<path d="M7.02842 4.62845C7.02842 4.36545 7.12451 4.13786 7.3167 3.9456C7.50896 3.75343 7.73652 3.65735 7.9996 3.65735C8.27266 3.65735 8.50284 3.75343 8.69001 3.9456C8.87713 4.13786 8.9707 4.36543 8.9707 4.62845C8.9707 4.90159 8.87713 5.13177 8.69001 5.31886C8.50283 5.50607 8.27266 5.5996 7.9996 5.5996C7.73652 5.5996 7.50896 5.50607 7.3167 5.31886C7.12451 5.13176 7.02842 4.90159 7.02842 4.62845Z" fill="#3D3736"/>
<path d="M8.05352 6.39368H7.94561C7.43905 6.39368 7.02842 6.80431 7.02842 7.31086V11.3033C7.02842 11.8099 7.43905 12.2205 7.94561 12.2205H8.05352C8.56007 12.2205 8.9707 11.8099 8.9707 11.3033V7.31086C8.9707 6.80433 8.56007 6.39368 8.05352 6.39368Z" fill="#3D3736"/>
</svg>
