<svg width="126" height="80" viewBox="0 0 126 80" fill="none" xmlns="http://www.w3.org/2000/svg">
<g clip-path="url(#clip0_3001_18946)">
<path d="M105.148 65.9862C103.373 65.9862 102.929 67.4616 102.929 68.1993C102.19 68.1993 100.711 68.6419 100.711 70.4124C100.711 72.1829 102.375 72.6255 102.929 71.5189C101.82 73.732 104.038 73.732 105.148 72.6255C105.148 74.8386 108.475 73.732 107.366 72.6255C107.735 72.9943 108.696 73.5107 109.584 72.6255C110.693 71.5189 108.844 70.7812 108.474 70.4124C108.844 70.0436 109.361 69.0845 108.474 68.1993C107.587 67.3141 106.996 67.8305 106.257 68.1993C106.626 67.4616 106.257 65.9862 105.148 65.9862Z" fill="#3D3736"/>
<path d="M72.111 55.057L73.7511 53.9675L98.3536 53.4227L98.9003 55.057L99.9938 55.6018L98.9003 56.1465L99.9938 57.2361L102.181 60.5046L103.274 64.318L103.274 69.1073L100.494 73.0306L93.7635 76.3883L85.3501 77.2277L75.254 77.2277L67.682 78.0672L60.1099 77.2277L59.2686 76.3883L59.2686 75.5489L61.7926 73.87L65.9993 72.1911L65.1579 70.5123L65.1579 69.6728L65.1579 65.4757L66.097 63.7732L68.8306 59.4151L63.4753 57.9208L61.5268 56.6913L60.1099 54.563L60.1099 52.0447L60.9512 51.2053L62.6339 50.3658L65.1579 50.3658L68.5233 55.057L72.111 56.6913L71.5643 56.1465L72.111 55.6018L72.111 55.057Z" fill="white"/>
<path d="M76.4724 23.9486L76.4855 24.0063L75.3921 22.9164L74.8453 22.9164L74.8453 24.006C74.6631 24.1876 74.2986 24.6597 74.2986 25.0958C69.3781 27.2752 63.3645 35.446 62.2711 38.7145C61.3963 41.3294 61.9066 44.5253 62.2711 45.7964L64.458 50.1545L69.3785 53.4231L75.9391 55.0574L76.4858 58.326L78.6727 62.1393L81.4063 62.6841L83.5932 62.1393L85.7801 60.505L85.7801 58.8707L86.3268 58.326L87.4203 60.505L89.6072 62.6841L91.794 62.6841L94.5276 61.5945L95.6211 59.4155L95.6211 56.6917L95.6211 55.6022C95.9856 55.6022 97.3706 55.3843 99.9949 54.5126C106.556 52.3336 109.289 47.4307 109.836 45.2517L109.836 41.9831C110.929 33.8117 102.728 28.3641 101.088 27.2745C101.635 25.6403 101.088 26.185 98.9014 26.185C104.369 19.1031 106.008 10.3869 106.555 8.75296C107.102 7.11901 106.51 0.907303 99.9949 1.67104C90.7003 2.76057 93.4342 16.3796 95.6211 25.0958C88.6231 21.6093 82.1353 22.9168 79.7662 24.0063L85.2334 13.1111C86.3268 10.932 92.3405 0.0364428 81.4063 0.0367449C71.039 0.0370279 74.2857 14.325 76.4724 23.9486Z" fill="white"/>
<path d="M78.935 56.2862L90.5989 48.4502C91.081 48.1264 91.737 48.2768 92.0288 48.7782C92.2944 49.2345 92.1597 49.8183 91.7209 50.1132L79.9461 58.0236L77.2498 58.1917L78.935 56.2862Z" fill="#26BAB9" stroke="#3D3736" stroke-width="0.5" stroke-linecap="round" stroke-linejoin="round"/>
<path d="M73.8053 43.2117C73.7364 42.8306 73.6282 42.4463 73.4412 42.1044C73.0049 41.3065 72.8179 41.1437 72.129 40.5607C71.6074 40.1211 70.7216 39.8378 70.0524 39.7791C69.5341 39.7107 69.0387 39.7759 68.5696 39.9713C68.0808 40.0787 67.651 40.3035 67.2738 40.6454C66.8834 40.9515 66.5947 41.3261 66.4044 41.7722C66.142 42.1826 65.9944 42.6385 65.9648 43.1335C65.978 43.4657 65.9911 43.7979 66.0075 44.13C66.1256 44.7911 66.4044 45.3773 66.8407 45.8919C67.0769 46.1068 67.3131 46.3185 67.5493 46.5335C68.0906 46.908 68.691 47.1262 69.3471 47.1913C69.37 47.1946 69.393 47.1978 69.4193 47.2011C69.1043 47.1294 68.7861 47.0578 68.4712 46.9861C68.5105 46.9959 68.5466 47.0122 68.5827 47.0285C68.3006 46.8819 68.0152 46.7321 67.7331 46.5856C67.7691 46.6051 67.7987 46.6279 67.8315 46.6572C67.5953 46.4423 67.3591 46.2306 67.1229 46.0157C67.1524 46.045 67.1754 46.0743 67.1983 46.1068C67.0212 45.8365 66.8473 45.5662 66.6702 45.2959C66.6866 45.3252 66.6997 45.3513 66.7128 45.3806C66.6111 45.0647 66.5094 44.7456 66.4077 44.4297C66.4143 44.4525 66.4208 44.4753 66.4241 44.498C66.493 45.0061 66.6833 45.4588 66.9917 45.8561C67.2213 46.286 67.5461 46.6344 67.966 46.9015C68.3629 47.2011 68.8058 47.3835 69.288 47.4518C69.7703 47.6049 70.2624 47.6277 70.7676 47.517C71.0858 47.416 71.4073 47.3151 71.7255 47.2141C72.3193 46.9308 72.8081 46.5204 73.1886 45.9863C73.3362 45.7063 73.4871 45.4229 73.6348 45.1429C73.8611 44.5208 73.9202 43.876 73.8053 43.2117Z" fill="#FBC9BC"/>
<path d="M95.5651 47.8332C95.5684 47.8429 95.5717 47.8527 95.575 47.8625C95.8604 48.4519 96.2737 48.9372 96.8117 49.3149C97.353 49.6895 97.9534 49.9077 98.6095 49.9728C98.8293 49.9663 99.0458 49.9826 99.2623 50.0184C99.7806 50.0868 100.276 50.0216 100.745 49.8262C101.234 49.7188 101.664 49.4941 102.041 49.1521C102.431 48.846 102.72 48.4715 102.91 48.0253C103.173 47.615 103.32 47.159 103.35 46.664C103.399 45.687 103.166 44.6416 102.477 43.9056C102.241 43.6907 102.005 43.479 101.769 43.264C101.227 42.8895 100.627 42.6713 99.9709 42.6062C99.7544 42.5704 99.5379 42.5541 99.3181 42.5606C98.9835 42.5736 98.6488 42.5867 98.3142 42.6029C97.8025 42.6713 97.3465 42.8602 96.9462 43.1664C96.6477 43.3096 96.4049 43.5116 96.2147 43.7819C95.8571 44.1108 95.6012 44.5081 95.447 44.9771C95.3716 45.293 95.2994 45.6121 95.2272 45.9313C95.1682 46.5924 95.2797 47.2274 95.5651 47.8332Z" fill="#FBC9BC"/>
<path d="M74.0033 38.8259C74.8332 40.1188 77.2149 40.3175 78.5304 39.8615C80.8497 39.0571 81.0728 36.53 80.443 34.475C80.0854 33.3091 79.216 32.2377 78.0318 31.9283C77.005 31.658 75.8928 31.9934 75.0202 32.5927C74.679 32.8239 74.3608 33.104 74.1574 33.4589C73.918 33.879 73.8556 34.3773 73.8097 34.8593C73.7474 35.4976 73.6982 36.1392 73.6654 36.7807C73.6293 37.4777 73.6227 38.23 74.0033 38.8259Z" fill="white"/>
<path d="M86.4511 40.5023C86.6578 40.3753 86.8349 40.1734 86.8678 39.9356C86.9137 39.6034 86.6808 39.2908 86.4085 39.0889C85.9098 38.7176 85.2668 38.5841 84.6435 38.6134C84.1351 38.6362 83.5478 38.8349 83.4002 39.3168C83.1936 39.9845 83.7906 40.5251 84.3614 40.7921C85.0503 41.1113 85.8147 40.8866 86.4511 40.5023Z" fill="#3D3736"/>
<path d="M86.5169 40.6387C87.4617 40.2088 87.114 39.2221 86.3857 38.7694C85.6312 38.3004 84.3649 38.1408 83.6038 38.6847C82.8722 39.2058 83.0953 40.1372 83.7088 40.6485C84.5716 41.3682 85.6935 41.2738 86.5924 40.6648C86.7892 40.528 86.576 40.2219 86.366 40.3196C85.8182 40.5768 85.2539 40.8439 84.6339 40.655C84.027 40.4661 83.1281 39.6519 83.8991 39.0788C84.7323 38.4567 87.4191 39.2318 86.3332 40.4205C86.2217 40.5312 86.3923 40.6941 86.5169 40.6387Z" fill="#3D3736"/>
<path d="M80.4893 38.6846C81.3652 37.4861 80.9649 35.467 80.4499 34.1936C79.8955 32.8258 78.7178 31.6729 77.1693 31.6111C73.6657 31.471 72.8948 35.5386 73.6165 38.1733C73.6821 38.4175 74.0463 38.3621 74.0135 38.1049C73.8593 36.8999 73.7215 35.6396 74.0856 34.4541C74.4924 33.1254 75.5848 32.1061 77.0348 32.0996C80.1153 32.0833 81.0732 36.2551 80.276 38.5706C80.2235 38.7041 80.404 38.7985 80.4893 38.6846Z" fill="#3D3736"/>
<path d="M80.5125 37.1533C80.7028 39.0943 78.0226 40.0453 76.4807 39.8596C75.6311 39.7587 74.7191 39.3711 74.2696 38.6123C73.794 37.8079 73.8891 36.8277 73.8629 35.9321C73.8563 35.7204 73.5676 35.6878 73.5315 35.8995C73.3511 36.9384 73.3347 38.1596 73.9842 39.0552C74.5878 39.8857 75.7 40.296 76.7005 40.3546C78.3309 40.4458 81.4245 39.179 80.7323 37.0817C80.6896 36.9547 80.5027 37.0361 80.5125 37.1533Z" fill="#3D3736"/>
<path d="M91.2544 39.7943C90.992 38.5405 91.0018 37.2866 91.5562 36.1077C92.0877 34.9809 93.1047 34.0332 94.3316 33.7141C95.4535 33.4242 96.7395 33.7238 97.5399 34.5738C98.5011 35.5932 98.4683 37.0912 98.6324 38.3841C98.6586 38.5926 98.9473 38.5535 98.9801 38.3711C99.2393 36.9577 98.8325 35.0656 97.7401 34.0625C96.8182 33.2158 95.4502 32.9097 94.243 33.2158C91.4283 33.9323 89.8799 37.2573 90.9297 39.892C91.0051 40.0743 91.2938 39.9799 91.2544 39.7943Z" fill="#3D3736"/>
<path d="M82.8254 52.8842C82.1523 54.2273 83.6673 56.2419 84.5089 57.0813L90.3975 54.5628L88.7148 51.2053C85.3494 49.5264 83.6667 51.2053 82.8254 52.8842Z" fill="white"/>
<path d="M94.0576 56.1256C93.0267 55.8689 90.8102 55.0472 90.1916 53.8147C89.4184 52.2741 88.3686 49.303 84.7792 50.7335C80.9132 52.2743 83.2328 59.207 91.738 59.207" stroke="#3D3736" stroke-width="0.5" stroke-linecap="round"/>
<path d="M105.065 48.5234C106.258 48.757 107.448 49.1715 108.594 49.572C109.637 49.9364 110.719 50.5093 111.809 50.6957C112.064 50.7374 112.222 50.3369 111.989 50.2062C111.491 49.9308 110.915 49.789 110.376 49.6109C109.778 49.4135 109.177 49.2215 108.577 49.0408C107.42 48.6931 106.274 48.4678 105.09 48.2592C104.921 48.2314 104.902 48.49 105.065 48.5234Z" fill="#3D3736"/>
<path d="M105.81 46.6631C107.028 46.6297 108.237 46.652 109.455 46.7243C110.044 46.7604 110.631 46.8105 111.22 46.855C111.768 46.8995 112.341 47.0108 112.886 46.9218C113.207 46.8689 113.177 46.4016 112.864 46.3599C111.729 46.2097 110.537 46.2709 109.394 46.2848C108.209 46.2987 107.022 46.3377 105.838 46.3794C105.658 46.3877 105.627 46.6687 105.81 46.6631Z" fill="#3D3736"/>
<path d="M106.096 44.3217C107.209 44.2049 108.327 44.1521 109.439 44.0519C109.987 44.0019 110.538 43.9518 111.08 43.8656C111.623 43.7821 112.115 43.5569 112.661 43.4678C112.937 43.4206 112.824 42.9867 112.539 43.0868C111.971 43.2898 111.371 43.2342 110.776 43.3149C110.264 43.3844 109.752 43.4484 109.24 43.529C108.174 43.6987 107.115 43.9045 106.046 44.0519C105.875 44.077 105.925 44.3384 106.096 44.3217Z" fill="#3D3736"/>
<path d="M64.5127 44.034C62.2164 43.7051 59.909 43.68 57.6017 43.5239C57.3299 43.5044 57.2467 43.8835 57.4963 43.9894C57.9317 44.1733 58.4226 44.1343 58.8857 44.1148C59.5513 44.0841 60.2197 44.0284 60.888 44.0451C62.0888 44.0758 63.2952 44.1566 64.4905 44.2988C64.6569 44.3183 64.6791 44.0591 64.5127 44.034Z" fill="#3D3736"/>
<path d="M64.6545 41.723C63.6395 41.3969 62.5773 41.2185 61.5429 40.9648C60.6277 40.7419 59.5905 40.4492 58.6475 40.491C58.3924 40.5022 58.3758 40.9091 58.6032 40.9816C59.5156 41.2742 60.5944 41.2993 61.5456 41.4164C62.5745 41.5446 63.5729 41.815 64.5935 41.985C64.746 42.0101 64.7987 41.7704 64.6545 41.723Z" fill="#3D3736"/>
<path d="M64.8954 46.1881C63.775 46.1658 62.6629 46.2578 61.5674 46.4947C60.4359 46.74 59.2933 46.8152 58.1563 47.0131C57.94 47.0522 57.9483 47.3894 58.1729 47.4061C60.4664 47.5817 62.6601 46.7483 64.9065 46.4306C65.0396 46.4139 65.034 46.1909 64.8954 46.1881Z" fill="#3D3736"/>
<path d="M98.6633 37.8847C98.6371 39.6857 96.882 40.9428 95.2384 41.2391C93.5358 41.5452 91.2493 40.92 91.0623 38.9269C91.0459 38.7608 90.7736 38.7738 90.7703 38.9399C90.6916 41.1088 93.2275 41.91 95.0088 41.7113C96.987 41.4899 99.0439 40.0635 98.9586 37.9141C98.952 37.7284 98.6666 37.6893 98.6633 37.8847Z" fill="#3D3736"/>
<path d="M92.8815 37.7498C93.7508 37.8019 93.6852 39.1371 93.3736 39.6843C93.0061 40.3323 92.0548 40.5538 91.6874 39.7527C91.3987 39.1209 91.5594 37.9908 92.3369 37.8214C93.39 37.5935 93.449 39.072 92.8421 39.5963C92.3992 39.9774 91.9301 39.5703 91.8284 39.1013C91.7497 38.7366 91.8087 38.4142 92.022 38.1113C92.2254 37.8214 92.3271 37.7205 92.6781 37.8703C92.9504 37.9875 93.016 38.0234 93.0619 38.3034C93.0947 38.4988 93.0718 38.6975 93.0258 38.8896C92.9471 39.2153 92.9077 39.3521 92.5633 39.4205C92.2057 39.4921 92.186 39.3521 92.1302 39.0199C92.0974 38.8343 92.1138 38.6161 92.1466 38.4304C92.1729 38.3327 92.1991 38.235 92.2254 38.1373C92.3566 38.222 92.4878 38.3067 92.619 38.3946C92.6387 38.4532 92.5797 38.8408 92.5469 38.8571C92.4517 38.9027 92.537 38.3621 92.5403 38.3458C92.5895 38.2416 92.6354 38.1406 92.6846 38.0364C92.5731 38.1308 92.537 38.2448 92.5764 38.3783C92.5665 38.476 92.5141 38.7691 92.5928 38.6649C92.7076 38.5119 92.6945 38.2546 92.8093 38.0787C92.6551 38.0462 92.5042 38.0103 92.35 37.9778C92.4419 38.323 92.4452 38.6063 92.3369 38.9483C92.4911 38.9417 92.6486 38.9352 92.8027 38.9287C92.7831 38.8017 92.7634 38.6747 92.7437 38.5477C92.8323 38.2383 92.3566 38.0592 92.268 38.3718C92.186 38.6617 92.1958 38.8799 92.3435 39.1437C92.4419 39.3228 92.7404 39.3423 92.8126 39.1241C92.9471 38.7073 92.9635 38.3165 92.8487 37.8898C92.7962 37.6912 92.5206 37.5935 92.3894 37.7889C92.1499 38.1536 91.8678 39.0622 92.3632 39.3814C92.9602 39.7624 93.0947 38.7105 93.0849 38.3946C93.075 38.0624 92.8979 37.2646 92.3894 37.6163C91.9957 37.8866 91.7923 38.8245 92.0777 39.2186C92.3763 39.6322 92.8782 39.4563 93.0193 39.0329C93.1767 38.564 93.2292 37.6782 92.642 37.4567C91.461 37.0138 91.2248 39.6712 92.2582 40.062C93.5606 40.5538 93.9509 38.0234 93.0783 37.3851C92.5633 37.0073 91.9925 37.3199 91.6513 37.7628C91.215 38.3262 91.1789 38.9483 91.4544 39.5996C92.0909 41.1107 93.7902 39.8504 93.7639 38.6226C93.7311 37.1506 91.8711 36.8607 91.3035 38.1927C90.7721 39.4335 91.6447 41.4592 93.2095 40.5603C94.2626 39.9546 94.5283 37.1897 92.8651 37.3981C92.665 37.4209 92.6781 37.7368 92.8815 37.7498Z" fill="#3D3736"/>
<path d="M77 37.0001C76.9114 36.6973 76.7376 36.4269 76.5112 36.2218C76.4029 36.0589 76.2619 35.9157 76.0716 35.8114C75.4581 35.4727 74.7102 35.6519 74.2509 36.1534C73.1027 37.4137 74.3132 40.4229 76.1503 39.244C76.8786 38.7718 77.2395 37.8273 77 37.0001Z" fill="#3D3736"/>
<path d="M71.3047 56.1255C70.2737 55.8687 68.0572 55.0471 67.4387 53.8146C66.6655 52.274 65.6157 49.3029 62.0262 50.7334C58.1602 52.2742 60.4798 59.2069 68.9851 59.2069" stroke="#3D3736" stroke-width="0.5" stroke-linecap="round"/>
<path d="M74.4818 25.1946C67.9995 28.0002 64.641 31.8409 62.454 38.8136C59.9563 46.7765 63.8478 52.4664 74.1278 54.6364" stroke="#3D3736" stroke-width="0.5" stroke-linecap="round"/>
<path d="M98.9001 55.0574C100.54 55.6021 99.4468 56.1469 98.9001 56.1469C103.274 60.505 103.638 65.2263 103.274 67.0421C102.662 74.9686 95.1659 77.0519 80.7487 77.0519C63.0031 77.0519 63.4724 68.5685 66.0969 63.7736C67.8464 59.8513 70.8352 57.418 72.1108 56.6917C71.9286 56.6917 71.5641 56.5827 71.5641 56.1469C71.5641 55.7111 72.2931 55.6021 72.6576 55.6021C72.4752 55.602 72.1107 55.4929 72.1108 55.0574C72.111 54.715 73.0115 54.5744 73.7509 54.5298" stroke="#3D3736" stroke-width="0.5" stroke-linecap="round" stroke-linejoin="round"/>
<path d="M105.099 30.6418C106.922 32.2762 110.457 37.1792 110.02 43.7161C109.605 49.912 103.532 53.6025 98.9521 55.0246M76.6699 24.1046C76.3054 23.5599 75.4671 22.5793 75.0297 23.0151C74.483 23.5599 75.0297 24.1046 75.0297 24.1046C74.665 24.2862 74.045 24.7583 74.4824 25.1941" stroke="#3D3736" stroke-width="0.5" stroke-linecap="round" stroke-linejoin="round"/>
<path d="M76.6702 24.1048C73.9367 14.1176 71.0162 -0.834945 81.9505 0.0364138C92.8848 0.907772 85.235 14.4804 79.9498 23.5598C81.9545 23.0151 87.0572 22.2524 91.431 23.5598C95.8047 24.8673 95.8047 24.831 95.258 24.6494" stroke="#3D3736" stroke-width="0.5" stroke-linejoin="round"/>
<path d="M95.8053 25.1951C92.3428 14.1184 91.7924 0.483805 100.725 1.67112C110.927 3.02727 105.464 16.2973 99.0852 26.2847C99.6319 26.1031 100.835 25.8489 101.272 26.2847C101.709 26.7205 101.09 27.1926 100.725 27.3742C101.637 27.9189 103.678 29.2264 104.552 30.098" stroke="#3D3736" stroke-width="0.5" stroke-linecap="round" stroke-linejoin="round"/>
<path d="M80.4961 43.7164C81.2251 45.1692 83.1205 47.2031 84.8699 43.7164C86.51 47.5297 89.2436 43.7164 89.2436 43.1716" stroke="#3D3736" stroke-width="0.5" stroke-linecap="round" stroke-linejoin="round"/>
<path d="M65.2209 72.6255C61.8937 73.732 57.0138 76.1664 59.6756 77.0517C63.0028 78.1582 68.5481 78.1582 76.3115 77.0517" stroke="#3D3736" stroke-width="0.5" stroke-linecap="round"/>
<path d="M107.977 74.8394C104.428 72.1837 101.323 72.2575 100.214 72.6263C96.8861 73.733 91.3412 78.1589 100.214 78.1589H100.215C109.087 78.1589 112.413 78.1589 107.977 74.8394Z" fill="white" stroke="#3D3736" stroke-width="0.5"/>
<path d="M57.5486 65.3359C59.8085 64.7383 61.2614 62.7434 61.0725 60.4804L57.5486 65.3359ZM57.5486 65.3359L24.4754 74.144L57.5486 65.3359ZM60.8234 60.5011C60.8234 60.5011 60.8234 60.5012 60.8234 60.5013C61.0016 62.6375 59.6331 64.5261 57.4846 65.0942L57.4842 65.0943L24.4109 73.9024L24.4105 73.9026C21.3115 74.7341 18.058 72.5223 17.804 69.4585L17.804 69.4581L14.9064 35.1095C14.7281 32.9739 16.096 31.0842 18.2574 30.5023C18.2575 30.5022 18.2576 30.5022 18.2577 30.5022L51.3184 21.7082C54.4201 20.8884 57.6718 23.0891 57.9258 26.1521L57.9258 26.1524L60.8234 60.5011Z" fill="url(#paint0_linear_3001_18946)" stroke="url(#paint1_linear_3001_18946)" stroke-width="0.5"/>
<path d="M63.1143 70.0465C65.3742 69.4489 66.8271 67.454 66.6382 65.191L63.1143 70.0465ZM63.1143 70.0465L30.0398 78.8419L63.1143 70.0465ZM66.389 65.2117C66.3891 65.2117 66.3891 65.2118 66.3891 65.2119C66.5673 67.348 65.1988 69.2367 63.0503 69.8048L63.0499 69.8049L29.9758 78.6002C26.8741 79.42 23.6224 77.2193 23.3685 74.1564L23.3684 74.156L20.4709 39.8073C20.2926 37.6718 21.6605 35.7821 23.8218 35.2001C23.8219 35.2001 23.822 35.2001 23.8221 35.2001L56.8829 26.4061C59.9846 25.5863 63.2363 27.787 63.4902 30.8499L63.4903 30.8503L66.389 65.2117Z" fill="white" stroke="#3D3736" stroke-width="0.5"/>
<path d="M29.4164 47.5249C28.572 47.7453 27.9292 48.6133 28.0077 49.4392L28.3787 53.8784L29.414 53.5247C29.4758 53.5061 29.5377 53.4874 29.5869 53.47C31.2732 53.0038 32.7632 53.9534 32.895 55.6076C33.0394 57.2606 31.7778 58.9816 30.0927 59.4605C30.0434 59.4779 29.9816 59.4966 29.9059 59.5037L28.8712 59.7291L29.2422 64.1683C29.3081 64.9954 30.0663 65.4754 30.9082 65.2296L60.1232 57.048C60.9651 56.8023 61.6079 55.9342 61.5294 55.1083L60.2811 40.3677C60.2152 39.5406 59.457 39.0606 58.6151 39.3064L29.4164 47.5249ZM40.8622 59.3712L38.8919 59.9282L38.7801 58.6183L40.7642 58.0728L40.8736 59.3573L40.8622 59.3712ZM40.6398 56.7641L38.6557 57.3096L38.5439 55.9996L40.5281 55.4542L40.6398 56.7641ZM40.4163 54.1443L38.4448 54.6885L38.333 53.3786L40.3171 52.8332L40.4289 54.1431L40.4163 54.1443ZM40.1915 51.5118L38.2212 52.0687L38.1082 50.7461L40.0924 50.2007L40.2041 51.5106L40.1915 51.5118ZM39.9692 48.9046L37.9977 49.4489L37.8859 48.139L39.87 47.5935L39.9818 48.9034L39.9692 48.9046ZM54.9817 55.3007L50.8604 54.3805L47.074 57.5182L47.4609 53.0206L44.0243 50.8695L48.3892 48.9978L50.0278 44.5492L52.3323 47.9092L56.8041 47.2966L53.8565 51.2273L54.9817 55.3007Z" fill="#26BAB9"/>
<path d="M46.4995 58.4994L46.999 52.9994L43.5 50.9999L48.5 48.9999L50 43.4999L52.5 47.4999L57.5 46.9999" stroke="#3D3736" stroke-linecap="round"/>
<path d="M57.9995 58.9995L62.4995 53.4995L62.4995 48.9995L54.4995 59.9995L57.9995 58.9995Z" fill="white"/>
<path d="M52.9995 60.9995L61.4995 47.9995L62.4995 43.9995L51.9995 61.4995L52.9995 60.9995Z" fill="white"/>
<path d="M27.4995 59.4995L38.9995 42.4995L36.4995 43.4995C33.6662 47.4995 27.7995 55.8995 26.9995 57.4995C26.1995 59.0995 26.9995 59.4995 27.4995 59.4995Z" fill="white"/>
<path d="M26.9995 54.9995L33.4995 45.4995L32.4995 43.9995L26.9995 51.9995L26.9995 54.9995Z" fill="white"/>
<path d="M9.36364 33L11.6364 38M13 34.3636L8 36.6364" stroke="#26BAB9" stroke-linecap="round"/>
<path d="M122.8 15.6019L121.581 18.7795M123.779 17.8001L120.602 16.5813" stroke="#26BAB9" stroke-linecap="round"/>
<circle cx="19" cy="2" r="1.5" stroke="#26BAB9"/>
<circle cx="111" cy="64" r="1.5" stroke="#26BAB9"/>
<path d="M54.1396 11.5793L53.6893 15.7113M57.8119 13.7217L56.3912 16.0058" stroke="#26BAB9" stroke-linecap="round"/>
<path d="M1 73.9327L6.92705 73M4.24691 78.4833L7.47117 76.4574" stroke="#26BAB9" stroke-linecap="round"/>
</g>
<defs>
<linearGradient id="paint0_linear_3001_18946" x1="15.5259" y1="30.8789" x2="59.4939" y2="67.308" gradientUnits="userSpaceOnUse">
<stop stop-color="white" stop-opacity="0.3"/>
<stop offset="1" stop-color="white" stop-opacity="0"/>
</linearGradient>
<linearGradient id="paint1_linear_3001_18946" x1="15.0852" y1="31.1648" x2="60.4252" y2="63.99" gradientUnits="userSpaceOnUse">
<stop stop-color="#3D3736" stop-opacity="0.7"/>
<stop offset="0.290712" stop-color="#3D3736" stop-opacity="0.3"/>
<stop offset="0.65814" stop-color="#3D3736" stop-opacity="0"/>
</linearGradient>
<clipPath id="clip0_3001_18946">
<rect width="126" height="80" fill="white" transform="matrix(-1 0 0 1 126 0)"/>
</clipPath>
</defs>
</svg>
