<svg width="24" height="24" viewBox="0 0 24 24" fill="none" xmlns="http://www.w3.org/2000/svg">
<path fill-rule="evenodd" clip-rule="evenodd" d="M12.8618 9.03018C12.8618 8.55424 12.4759 8.16842 12 8.16842C11.5241 8.16842 11.1382 8.55424 11.1382 9.03018L11.1382 11.1383L9.03015 11.1383C8.55421 11.1383 8.16839 11.5241 8.16839 12C8.16839 12.476 8.55421 12.8618 9.03015 12.8618H11.1382V14.9699C11.1382 15.4458 11.5241 15.8316 12 15.8316C12.4759 15.8316 12.8618 15.4458 12.8618 14.9699V12.8618H14.9698C15.4458 12.8618 15.8316 12.476 15.8316 12C15.8316 11.5241 15.4458 11.1383 14.9698 11.1383L12.8618 11.1383L12.8618 9.03018Z" fill="#26BAB9"/>
</svg>
