<svg width="22" height="22" viewBox="0 0 22 22" fill="none" xmlns="http://www.w3.org/2000/svg">
<path d="M16.94 11.2292C17.1966 11.2292 17.4166 11.0092 17.3983 10.7525C17.1508 7.43416 14.3825 4.8125 11 4.8125C7.61747 4.8125 4.84916 7.425 4.60166 10.7525C4.58332 11.0092 4.80332 11.2292 5.05999 11.2292H16.94Z" fill="#000"/>
<path d="M20.1665 11.9166H20.0932C19.589 11.9166 19.1765 11.5041 19.1765 11C19.1765 10.4958 19.589 10.0833 20.0932 10.0833C20.5973 10.0833 21.0465 10.4958 21.0465 11C21.0465 11.5041 20.6707 11.9166 20.1665 11.9166ZM1.90652 11.9166H1.83317C1.329 11.9166 0.916504 11.5041 0.916504 11C0.916504 10.4958 1.329 10.0833 1.83317 10.0833C2.33734 10.0833 2.78648 10.4958 2.78648 11C2.78648 11.5041 2.41069 11.9166 1.90652 11.9166ZM17.4257 5.4908C17.1873 5.4908 16.9582 5.39912 16.7748 5.22496C16.4173 4.86746 16.4173 4.28995 16.7748 3.93245L16.894 3.8133C17.2515 3.4558 17.829 3.4558 18.1865 3.8133C18.544 4.1708 18.544 4.7483 18.1865 5.1058L18.0674 5.22496C17.8932 5.39912 17.664 5.4908 17.4257 5.4908ZM4.574 5.4908C4.33566 5.4908 4.10653 5.39912 3.9232 5.22496L3.80403 5.1058C3.44653 4.7483 3.44653 4.1708 3.80403 3.8133C4.16153 3.4558 4.739 3.4558 5.0965 3.8133L5.21567 3.93245C5.57317 4.28995 5.57317 4.86746 5.21567 5.22496C5.04151 5.39912 4.80316 5.4908 4.574 5.4908ZM10.9998 2.78662C10.4957 2.78662 10.0832 2.41079 10.0832 1.90663V1.83329C10.0832 1.32913 10.4957 0.916626 10.9998 0.916626C11.504 0.916626 11.9165 1.32913 11.9165 1.83329C11.9165 2.33746 11.504 2.78662 10.9998 2.78662Z" fill="#000"/>
<path opacity="0.4" d="M18.3332 14.4375H3.6665C3.29067 14.4375 2.979 14.1258 2.979 13.75C2.979 13.3742 3.29067 13.0625 3.6665 13.0625H18.3332C18.709 13.0625 19.0207 13.3742 19.0207 13.75C19.0207 14.1258 18.709 14.4375 18.3332 14.4375Z" fill="#000"/>
<path opacity="0.4" d="M16.5 17.1875H5.5C5.12417 17.1875 4.8125 16.8758 4.8125 16.5C4.8125 16.1242 5.12417 15.8125 5.5 15.8125H16.5C16.8758 15.8125 17.1875 16.1242 17.1875 16.5C17.1875 16.8758 16.8758 17.1875 16.5 17.1875Z" fill="#000"/>
<path opacity="0.4" d="M13.75 19.9375H8.25C7.87417 19.9375 7.5625 19.6258 7.5625 19.25C7.5625 18.8742 7.87417 18.5625 8.25 18.5625H13.75C14.1258 18.5625 14.4375 18.8742 14.4375 19.25C14.4375 19.6258 14.1258 19.9375 13.75 19.9375Z" fill="#000"/>
</svg>
