<svg width="16" height="16" viewBox="0 0 16 16" fill="none" xmlns="http://www.w3.org/2000/svg">
<g opacity="0.8">
<path d="M5.5 12.609C3.71916 12.7745 2.5 13.1114 2.5 13.5C2.5 14.0523 4.96243 14.5 8 14.5C11.0376 14.5 13.5 14.0523 13.5 13.5C13.5 13.1114 12.2808 12.7745 10.5 12.609" stroke="#3D3736" stroke-linecap="round"/>
<path d="M8.79393 10.9373L8.71515 10.4436C8.53911 10.4716 8.39134 10.5913 8.3273 10.7577L8.79393 10.9373ZM7.20607 10.9373L7.6727 10.7577C7.60866 10.5913 7.46089 10.4716 7.28485 10.4436L7.20607 10.9373ZM8 13L7.53337 13.1796C7.60767 13.3726 7.79316 13.5 8 13.5C8.20684 13.5 8.39233 13.3726 8.46663 13.1796L8 13ZM12.5 6C12.5 8.24164 10.8604 10.1013 8.71515 10.4436L8.8727 11.4311C11.4956 11.0126 13.5 8.74084 13.5 6H12.5ZM8 1.5C10.4853 1.5 12.5 3.51472 12.5 6H13.5C13.5 2.96243 11.0376 0.5 8 0.5V1.5ZM3.5 6C3.5 3.51472 5.51472 1.5 8 1.5V0.5C4.96243 0.5 2.5 2.96243 2.5 6H3.5ZM7.28485 10.4436C5.13955 10.1013 3.5 8.24164 3.5 6H2.5C2.5 8.74084 4.50435 11.0126 7.1273 11.4311L7.28485 10.4436ZM6.73944 11.1169L7.53337 13.1796L8.46663 12.8204L7.6727 10.7577L6.73944 11.1169ZM8.46663 13.1796L9.26056 11.1169L8.3273 10.7577L7.53337 12.8204L8.46663 13.1796Z" fill="#3D3736"/>
<path d="M8 7C8.55228 7 9 6.55228 9 6C9 5.44772 8.55228 5 8 5C7.44772 5 7 5.44772 7 6C7 6.55228 7.44772 7 8 7Z" stroke="#3D3736"/>
</g>
</svg>
