<svg width="22" height="22" viewBox="0 0 22 22" fill="none" xmlns="http://www.w3.org/2000/svg">
<path opacity="0.4" d="M15.3727 17.3984H6.62772C6.24272 17.3984 5.89439 17.1509 5.76605 16.7934L1.95272 6.11428C1.65022 5.26178 2.62189 4.53762 3.34605 5.06012L7.01272 7.68178C7.49855 8.03012 8.19522 7.81928 8.40605 7.26012L10.1386 2.64012C10.4319 1.84262 11.5594 1.84262 11.8527 2.64012L13.5852 7.26012C13.7961 7.82845 14.4836 8.03012 14.9786 7.68178L18.6452 5.06012C19.3786 4.53762 20.3411 5.27095 20.0386 6.11428L16.2252 16.7934C16.1061 17.1509 15.7577 17.3984 15.3727 17.3984Z" fill="#FFB31B"/>
<path d="M15.5832 20.1667H6.4165C6.04067 20.1667 5.729 19.8551 5.729 19.4792C5.729 19.1034 6.04067 18.7917 6.4165 18.7917H15.5832C15.959 18.7917 16.2707 19.1034 16.2707 19.4792C16.2707 19.8551 15.959 20.1667 15.5832 20.1667Z" fill="#FFB31B"/>
<path d="M13.2918 13.5208H8.7085C8.33266 13.5208 8.021 13.2091 8.021 12.8333C8.021 12.4574 8.33266 12.1458 8.7085 12.1458H13.2918C13.6677 12.1458 13.9793 12.4574 13.9793 12.8333C13.9793 13.2091 13.6677 13.5208 13.2918 13.5208Z" fill="#FFB31B"/>
</svg>
