<svg width="16" height="16" viewBox="0 0 16 16" fill="none" xmlns="http://www.w3.org/2000/svg">
<path d="M1.52686 5.18661V11.6733C1.52686 12.9399 2.42686 13.4599 3.52019 12.8333L5.08686 11.9399C5.42686 11.7466 5.99352 11.7266 6.34686 11.9066L9.84686 13.6599C10.2002 13.8333 10.7669 13.8199 11.1069 13.6266L13.9935 11.9733C14.3602 11.7599 14.6669 11.2399 14.6669 10.8133V4.32661C14.6669 3.05994 13.7669 2.53994 12.6735 3.16661L11.1069 4.05994C10.7669 4.25328 10.2002 4.27328 9.84686 4.09328L6.34686 2.34661C5.99352 2.17328 5.42686 2.18661 5.08686 2.37994L2.20019 4.03328C1.82686 4.24661 1.52686 4.76661 1.52686 5.18661Z" stroke="#000" stroke-linecap="round" stroke-linejoin="round"/>
<path d="M5.70654 2.66663V11.3333" stroke="#000" stroke-linecap="round" stroke-linejoin="round"/>
<path d="M10.4868 4.41333V13.3333" stroke="#000" stroke-linecap="round" stroke-linejoin="round"/>
</svg>
