<svg width="16" height="16" viewBox="0 0 16 16" fill="none" xmlns="http://www.w3.org/2000/svg">
<path fill-rule="evenodd" clip-rule="evenodd" d="M2.30968 3.49844C2.50946 3.16765 3.61021 1.96448 4.39572 2.00081C4.63052 2.02026 4.83809 2.16231 5.00674 2.32706C5.39398 2.70519 6.5025 4.13538 6.56542 4.43633C6.7185 5.17445 5.06415 5.92271 5.33333 6.66667C6.0196 8.34592 7.65335 9.98109 9.33333 10.6667C10.0767 10.9358 10.8257 9.28079 11.5639 9.43451C11.8642 9.49743 13.2951 10.6059 13.6732 10.9931C13.8373 11.1611 13.98 11.3693 13.9995 11.6041C14.0287 12.4311 12.7509 13.5473 12.5018 13.69C11.9141 14.1103 11.1474 14.1032 10.2127 13.6686C7.60455 12.5835 3.43637 8.49403 2.33109 5.78739C1.90817 4.85793 1.87898 4.08608 2.30968 3.49844Z" stroke="#000" stroke-linecap="round" stroke-linejoin="round"/>
</svg>
