<svg width="16" height="16" viewBox="0 0 16 16" fill="none" xmlns="http://www.w3.org/2000/svg">
<path fill-rule="evenodd" clip-rule="evenodd" d="M2.97976 13.6691C1.95309 13.6691 1.31309 12.5558 1.82642 11.6691L6.84642 2.99581C7.35976 2.10914 8.63976 2.10914 9.15309 2.99581L14.1731 11.6691C14.6864 12.5558 14.0464 13.6691 13.0198 13.6691H2.97976ZM8.43235 4.41017C8.23978 4.07745 7.75943 4.07745 7.56686 4.41017L3.41396 11.5854C3.22103 11.9187 3.46156 12.3358 3.8467 12.3358H12.1525C12.5376 12.3358 12.7782 11.9187 12.5852 11.5854L8.43235 4.41017ZM7.33301 7.5V9.16667C7.33301 9.625 7.63301 10 7.99967 10C8.36634 10 8.66634 9.625 8.66634 9.16667V7.5C8.66634 7.04167 8.36634 6.66667 7.99967 6.66667C7.63301 6.66667 7.33301 7.04167 7.33301 7.5ZM7.9998 10.3358C7.63161 10.3358 7.33313 10.6343 7.33313 11.0025C7.33313 11.3707 7.63161 11.6692 7.9998 11.6692C8.36799 11.6692 8.66646 11.3707 8.66646 11.0025C8.66646 10.6343 8.36799 10.3358 7.9998 10.3358Z" fill="#FF4C4C"/>
</svg>
