<svg width="36" height="36" viewBox="0 0 36 36" fill="none" xmlns="http://www.w3.org/2000/svg">
<path d="M29.7753 21.6279H5.02384C4.13939 21.6279 3.42236 20.911 3.42236 20.0265V11.0246C3.42236 10.1402 4.13933 9.42314 5.02384 9.42314H29.7753C30.6598 9.42314 31.3768 10.1402 31.3768 11.0246V20.0265C31.3768 20.911 30.6598 21.6279 29.7753 21.6279Z" fill="#F5F5F5"/>
<path d="M29.7753 20.1054H5.02384C4.13939 20.1054 3.42236 19.3884 3.42236 18.5039V20.0259C3.42236 20.9103 4.13933 21.6273 5.02384 21.6273H29.7753C30.6598 21.6273 31.3768 20.9104 31.3768 20.0259V18.5039C31.3768 19.3884 30.6598 20.1054 29.7753 20.1054Z" fill="#C4C4C4"/>
<path d="M28.3403 18.4499H6.45898V21.6274H28.3403V18.4499Z" fill="#66BAEA"/>
<path d="M28.3403 20.1056H6.45898V21.6276H28.3403V20.1056Z" fill="#3AAAE4"/>
<path d="M29.7758 9H9.84772C9.61423 9 9.42494 9.18923 9.42494 9.42278C9.42494 9.65632 9.61423 9.84555 9.84772 9.84555H29.7758C30.4257 9.84555 30.9545 10.3743 30.9545 11.0243V20.026C30.9545 20.676 30.4257 21.2047 29.7758 21.2047H28.7634V18.4501C28.7634 18.2166 28.5741 18.0273 28.3406 18.0273H6.45931C6.22583 18.0273 6.03654 18.2166 6.03654 18.4501V21.2047H5.02425C4.3743 21.2047 3.84555 20.676 3.84555 20.026V11.0243C3.84555 10.3743 4.3743 9.84555 5.02425 9.84555H8.15662C8.3901 9.84555 8.57939 9.65632 8.57939 9.42278C8.57939 9.18923 8.3901 9 8.15662 9H5.02425C3.90806 9 3 9.90807 3 11.0243V20.026C3 21.1422 3.90806 22.0503 5.02425 22.0503H9.42511C9.65859 22.0503 9.84789 21.8611 9.84789 21.6275C9.84789 21.394 9.65859 21.2047 9.42511 21.2047H6.88209V20.4616H23.6838C23.9173 20.4616 24.1066 20.2723 24.1066 20.0388C24.1066 19.8052 23.9173 19.616 23.6838 19.616H6.88209V18.8728H27.9179V19.616H25.3749C25.1414 19.616 24.9521 19.8052 24.9521 20.0388C24.9521 20.2723 25.1414 20.4616 25.3749 20.4616H27.9179V21.2047H11.1162C10.8827 21.2047 10.6934 21.394 10.6934 21.6275C10.6934 21.8611 10.8827 22.0503 11.1162 22.0503H29.7758C30.8919 22.0503 31.8 21.1422 31.8 20.026V11.0243C31.7999 9.90812 30.8919 9 29.7758 9Z" fill="black"/>
<path d="M28.3408 12.4375C28.5743 12.4375 28.7636 12.2482 28.7636 12.0147C28.7636 11.7811 28.5743 11.5919 28.3408 11.5919H27.0905C26.857 11.5919 26.6677 11.7811 26.6677 12.0147C26.6677 12.2482 26.857 12.4375 27.0905 12.4375H28.3408Z" fill="black"/>
<path d="M25.1609 12.4375C25.3944 12.4375 25.5837 12.2482 25.5837 12.0147C25.5837 11.7811 25.3944 11.5919 25.1609 11.5919H17.1589C16.9254 11.5919 16.7361 11.7811 16.7361 12.0147C16.7361 12.2482 16.9254 12.4375 17.1589 12.4375H25.1609Z" fill="black"/>
<path d="M10.9528 23.1813C10.7194 23.1813 10.5301 23.3705 10.5301 23.604C10.5301 23.6166 10.5165 24.8699 9.34365 25.7035C9.15335 25.8388 9.1087 26.1028 9.24399 26.2931C9.32646 26.4091 9.45667 26.471 9.58897 26.471C9.6737 26.471 9.75927 26.4456 9.83356 26.3927C11.3582 25.3091 11.3757 23.6731 11.3757 23.604C11.3756 23.3705 11.1863 23.1813 10.9528 23.1813Z" fill="black"/>
<path d="M13.9801 23.1813C13.7467 23.1813 13.5574 23.3705 13.5574 23.604V26.0481C13.5574 26.2817 13.7467 26.4709 13.9801 26.4709C14.2136 26.4709 14.4029 26.2817 14.4029 26.0481V23.604C14.4029 23.3705 14.2136 23.1813 13.9801 23.1813Z" fill="black"/>
<path d="M17.519 23.1813C17.2855 23.1813 17.0962 23.3705 17.0962 23.604V26.0481C17.0962 26.2817 17.2855 26.4709 17.519 26.4709C17.7524 26.4709 17.9417 26.2817 17.9417 26.0481V23.604C17.9417 23.3705 17.7524 23.1813 17.519 23.1813Z" fill="black"/>
<path d="M25.4565 25.7035C24.2995 24.8812 24.2707 23.6584 24.2701 23.6021C24.2691 23.3695 24.0802 23.1813 23.8473 23.1813C23.6139 23.1813 23.4246 23.3705 23.4246 23.604C23.4246 23.6732 23.4421 25.3091 24.9667 26.3928C25.041 26.4456 25.1265 26.471 25.2113 26.471C25.3435 26.471 25.4738 26.4091 25.5563 26.2931C25.6915 26.1027 25.6468 25.8388 25.4565 25.7035Z" fill="black"/>
<path d="M20.8197 23.1813C20.5863 23.1813 20.397 23.3705 20.397 23.604V26.0481C20.397 26.2817 20.5863 26.4709 20.8197 26.4709C21.0532 26.4709 21.2425 26.2817 21.2425 26.0481V23.604C21.2425 23.3705 21.0532 23.1813 20.8197 23.1813Z" fill="black"/>
</svg>
