<svg width="36" height="36" viewBox="0 0 36 36" fill="none" xmlns="http://www.w3.org/2000/svg">
<path d="M28.0861 28.207V29.6621C28.0861 30.5321 28.7914 31.2375 29.6614 31.2375C30.5314 31.2375 31.2368 30.5321 31.2368 29.6621V8.28745C31.2368 7.04483 30.2294 6.03745 28.9868 6.03745H24.5993H9.39342H7.71435C6.47174 6.03745 5.46436 7.04483 5.46436 8.28745V28.207H28.0861Z" fill="white"/>
<path d="M28.0875 29.6625V28.2083L28.0868 28.207H3.5625V29.6625C3.5625 30.5323 4.26765 31.2375 5.1375 31.2375H29.6622C28.7925 31.2373 28.0875 30.5322 28.0875 29.6625Z" fill="#C7EAFF"/>
<path d="M31.2094 10.7062H5.50317V8.28745C5.50317 7.04483 6.51056 6.03745 7.75317 6.03745H28.9594C30.202 6.03745 31.2094 7.04483 31.2094 8.28745V10.7062Z" fill="#BAEE83"/>
<path d="M15.7266 23.8125C14.8568 23.8125 14.1516 23.1073 14.1516 22.2375C14.1516 21.3676 14.8568 20.6625 15.7266 20.6625C16.5965 20.6625 17.3016 21.3676 17.3016 22.2375C17.3016 23.1073 16.5965 23.8125 15.7266 23.8125Z" fill="#A5DDFF"/>
<path d="M20.9764 23.8126C20.1065 23.8126 19.4014 23.1074 19.4014 22.2376C19.4014 21.3677 20.1065 20.6626 20.9764 20.6626C21.8462 20.6626 22.5514 21.3677 22.5514 22.2376C22.5514 23.1074 21.8462 23.8126 20.9764 23.8126Z" fill="#A5DDFF"/>
<path d="M26.2266 23.8125C25.3568 23.8125 24.6516 23.1073 24.6516 22.2375C24.6516 21.3676 25.3568 20.6625 26.2266 20.6625C27.0965 20.6625 27.8016 21.3676 27.8016 22.2375C27.8016 23.1073 27.0965 23.8125 26.2266 23.8125Z" fill="#FE6663"/>
<path d="M10.4766 17.9625C9.60676 17.9625 8.90161 17.2573 8.90161 16.3875C8.90161 15.5176 9.60676 14.8125 10.4766 14.8125C11.3465 14.8125 12.0516 15.5176 12.0516 16.3875C12.0516 17.2573 11.3465 17.9625 10.4766 17.9625Z" fill="#A5DDFF"/>
<path d="M20.9764 17.9625C20.1065 17.9625 19.4014 17.2573 19.4014 16.3875C19.4014 15.5176 20.1065 14.8125 20.9764 14.8125C21.8462 14.8125 22.5514 15.5176 22.5514 16.3875C22.5514 17.2573 21.8462 17.9625 20.9764 17.9625Z" fill="#A5DDFF"/>
<path d="M15.7264 17.9625C14.8565 17.9625 14.1514 17.2573 14.1514 16.3875C14.1514 15.5176 14.8565 14.8125 15.7264 14.8125C16.5962 14.8125 17.3014 15.5176 17.3014 16.3875C17.3014 17.2573 16.5962 17.9625 15.7264 17.9625Z" fill="#A5DDFF"/>
<path d="M26.2259 17.9625C25.356 17.9625 24.6509 17.2573 24.6509 16.3875C24.6509 15.5176 25.356 14.8125 26.2259 14.8125C27.0957 14.8125 27.8009 15.5176 27.8009 16.3875C27.8009 17.2573 27.0957 17.9625 26.2259 17.9625Z" fill="#FE6663"/>
<path d="M8.08882 28.2C10.3256 28.2 12.1388 26.3867 12.1388 24.15C12.1388 21.9132 10.3256 20.1 8.08882 20.1C5.85206 20.1 4.03882 21.9132 4.03882 24.15C4.03882 26.3867 5.85206 28.2 8.08882 28.2Z" fill="#FE6663"/>
<path d="M11.7937 8.42813C11.1724 8.42813 10.6687 7.92446 10.6687 7.30313V4.6875C10.6687 4.06616 11.1724 3.5625 11.7937 3.5625C12.415 3.5625 12.9187 4.06616 12.9187 4.6875V7.30313C12.9187 7.92446 12.415 8.42813 11.7937 8.42813Z" fill="white"/>
<path d="M24.6189 8.42813C23.9976 8.42813 23.4939 7.92446 23.4939 7.30313V4.6875C23.4939 4.06616 23.9976 3.5625 24.6189 3.5625C25.2402 3.5625 25.7439 4.06616 25.7439 4.6875V7.30313C25.7439 7.92446 25.2402 8.42813 24.6189 8.42813Z" fill="white"/>
<path d="M28.9875 5.475H26.3062V4.6875C26.3062 3.75701 25.5492 3 24.6187 3C23.6882 3 22.9312 3.75701 22.9312 4.6875V5.475H13.4812V4.6875C13.4812 3.75701 12.7242 3 11.7937 3C10.8632 3 10.1062 3.75701 10.1062 4.6875V5.49581C10.0584 5.48259 10.0083 5.475 9.95627 5.475H7.71504C6.16423 5.475 4.90254 6.73669 4.90254 8.2875V17.8687C4.90254 18.1794 5.15443 18.4312 5.46504 18.4312C5.77566 18.4312 6.02754 18.1794 6.02754 17.8687V11.2688H26.3062C26.6168 11.2688 26.8687 11.0169 26.8687 10.7063C26.8687 10.3956 26.6168 10.1438 26.3062 10.1438H6.02754V8.2875C6.02754 7.35701 6.78456 6.6 7.71504 6.6H9.95627C10.0083 6.6 10.0584 6.59235 10.1062 6.57919V7.30313C10.1062 8.23361 10.8632 8.99063 11.7937 8.99063C12.7242 8.99063 13.4812 8.23361 13.4812 7.30313V6.6H22.9312V7.30313C22.9312 8.23361 23.6882 8.99063 24.6187 8.99063C25.5492 8.99063 26.3062 8.23361 26.3062 7.30313V6.6H28.9875C29.918 6.6 30.675 7.35701 30.675 8.2875V29.6622C30.675 30.2206 30.2207 30.675 29.6622 30.675C29.1037 30.675 28.6493 30.2206 28.6493 29.6622V28.207C28.6493 27.8964 28.3974 27.6445 28.0868 27.6445H21.5438C21.2332 27.6445 20.9813 27.8964 20.9813 28.207C20.9813 28.5177 21.2332 28.7695 21.5438 28.7695H27.5243V29.6622C27.5243 30.0284 27.617 30.3733 27.78 30.675H5.1375C4.57922 30.675 4.125 30.2208 4.125 29.6625V28.7695H16.7152C17.0258 28.7695 17.2777 28.5177 17.2777 28.207C17.2777 27.8964 17.0258 27.6445 16.7152 27.6445H11.0949C12.0778 26.798 12.7019 25.5459 12.7019 24.15C12.7019 21.6067 10.6328 19.5375 8.08944 19.5375C5.5461 19.5375 3.47694 21.6067 3.47694 24.15C3.47694 25.5459 4.10109 26.798 5.08401 27.6445H3.5625C3.25189 27.6445 3 27.8964 3 28.207V29.6625C3 30.8411 3.95889 31.8 5.1375 31.8H29.6622C30.8409 31.8 31.8 30.841 31.8 29.6622V8.2875C31.8 6.73669 30.5383 5.475 28.9875 5.475ZM12.3562 7.30313C12.3562 7.61329 12.1039 7.86563 11.7937 7.86563C11.4836 7.86563 11.2312 7.61329 11.2312 7.30313V4.6875C11.2312 4.37734 11.4836 4.125 11.7937 4.125C12.1039 4.125 12.3562 4.37734 12.3562 4.6875V7.30313ZM25.1812 7.30313C25.1812 7.61329 24.9289 7.86563 24.6187 7.86563C24.3086 7.86563 24.0562 7.61329 24.0562 7.30313V4.6875C24.0562 4.37734 24.3086 4.125 24.6187 4.125C24.9289 4.125 25.1812 4.37734 25.1812 4.6875V7.30313ZM4.60194 24.15C4.60194 22.227 6.16642 20.6625 8.08944 20.6625C10.0125 20.6625 11.5769 22.227 11.5769 24.15C11.5769 26.073 10.0125 27.6375 8.08944 27.6375C6.16642 27.6375 4.60194 26.073 4.60194 24.15Z" fill="black"/>
<path d="M28.9441 11.2688C29.092 11.2688 29.2372 11.2087 29.3417 11.104C29.4463 10.9994 29.5066 10.8543 29.5066 10.7063C29.5066 10.5584 29.4464 10.4133 29.3417 10.3087C29.2372 10.204 29.092 10.1438 28.9441 10.1438C28.7961 10.1438 28.651 10.204 28.5464 10.3087C28.4418 10.4133 28.3816 10.5584 28.3816 10.7063C28.3816 10.8543 28.4417 10.9994 28.5464 11.104C28.6511 11.2087 28.7961 11.2688 28.9441 11.2688Z" fill="black"/>
<path d="M19.0039 27.8094C18.8993 27.9146 18.8391 28.0592 18.8391 28.2071C18.8391 28.3556 18.8992 28.5002 19.0039 28.6054C19.1086 28.71 19.2537 28.7696 19.4016 28.7696C19.5495 28.7696 19.6947 28.71 19.7992 28.6054C19.9039 28.5002 19.9641 28.355 19.9641 28.2071C19.9641 28.0592 19.9039 27.9146 19.7992 27.8094C19.6947 27.7048 19.5495 27.6452 19.4016 27.6452C19.2537 27.6452 19.1086 27.7048 19.0039 27.8094Z" fill="black"/>
<path d="M15.7266 24.375C16.9052 24.375 17.8641 23.4161 17.8641 22.2375C17.8641 21.0588 16.9052 20.1 15.7266 20.1C14.548 20.1 13.5891 21.0588 13.5891 22.2375C13.5891 23.4161 14.548 24.375 15.7266 24.375ZM15.7266 21.225C16.2849 21.225 16.7391 21.6792 16.7391 22.2375C16.7391 22.7957 16.2849 23.25 15.7266 23.25C15.1683 23.25 14.7141 22.7957 14.7141 22.2375C14.7141 21.6792 15.1683 21.225 15.7266 21.225Z" fill="black"/>
<path d="M20.9766 24.375C22.1552 24.375 23.1141 23.4161 23.1141 22.2375C23.1141 21.0588 22.1552 20.1 20.9766 20.1C19.798 20.1 18.8391 21.0588 18.8391 22.2375C18.8391 23.4161 19.798 24.375 20.9766 24.375ZM20.9766 21.225C21.5349 21.225 21.9891 21.6792 21.9891 22.2375C21.9891 22.7957 21.5349 23.25 20.9766 23.25C20.4183 23.25 19.9641 22.7957 19.9641 22.2375C19.9641 21.6792 20.4183 21.225 20.9766 21.225Z" fill="black"/>
<path d="M26.2266 24.375C27.4052 24.375 28.3641 23.4161 28.3641 22.2375C28.3641 21.0588 27.4052 20.1 26.2266 20.1C25.048 20.1 24.0891 21.0588 24.0891 22.2375C24.0891 23.4161 25.048 24.375 26.2266 24.375ZM26.2266 21.225C26.7849 21.225 27.2391 21.6792 27.2391 22.2375C27.2391 22.7957 26.7849 23.25 26.2266 23.25C25.6683 23.25 25.2141 22.7957 25.2141 22.2375C25.2141 21.6792 25.6683 21.225 26.2266 21.225Z" fill="black"/>
<path d="M12.6141 16.3875C12.6141 15.2089 11.6552 14.25 10.4766 14.25C9.29801 14.25 8.33911 15.2089 8.33911 16.3875C8.33911 17.5661 9.29801 18.525 10.4766 18.525C11.6552 18.525 12.6141 17.5661 12.6141 16.3875ZM9.46411 16.3875C9.46411 15.8292 9.91833 15.375 10.4766 15.375C11.0349 15.375 11.4891 15.8292 11.4891 16.3875C11.4891 16.9458 11.0349 17.4 10.4766 17.4C9.91833 17.4 9.46411 16.9458 9.46411 16.3875Z" fill="black"/>
<path d="M20.9766 18.525C22.1552 18.525 23.1141 17.5661 23.1141 16.3875C23.1141 15.2089 22.1552 14.25 20.9766 14.25C19.798 14.25 18.8391 15.2089 18.8391 16.3875C18.8391 17.5661 19.798 18.525 20.9766 18.525ZM20.9766 15.375C21.5349 15.375 21.9891 15.8292 21.9891 16.3875C21.9891 16.9458 21.5349 17.4 20.9766 17.4C20.4183 17.4 19.9641 16.9458 19.9641 16.3875C19.9641 15.8292 20.4183 15.375 20.9766 15.375Z" fill="black"/>
<path d="M26.2266 18.525C27.4052 18.525 28.3641 17.5661 28.3641 16.3875C28.3641 15.2089 27.4052 14.25 26.2266 14.25C25.048 14.25 24.0891 15.2089 24.0891 16.3875C24.0891 17.5661 25.048 18.525 26.2266 18.525ZM26.2266 15.375C26.7849 15.375 27.2391 15.8292 27.2391 16.3875C27.2391 16.9458 26.7849 17.4 26.2266 17.4C25.6683 17.4 25.2141 16.9458 25.2141 16.3875C25.2141 15.8292 25.6683 15.375 26.2266 15.375Z" fill="black"/>
<path d="M15.7266 18.525C16.9052 18.525 17.8641 17.5661 17.8641 16.3875C17.8641 15.2089 16.9052 14.25 15.7266 14.25C14.548 14.25 13.5891 15.2089 13.5891 16.3875C13.5891 17.5661 14.548 18.525 15.7266 18.525ZM15.7266 15.375C16.2849 15.375 16.7391 15.8292 16.7391 16.3875C16.7391 16.9458 16.2849 17.4 15.7266 17.4C15.1683 17.4 14.7141 16.9458 14.7141 16.3875C14.7141 15.8292 15.1683 15.375 15.7266 15.375Z" fill="black"/>
<path d="M7.06794 25.8041C7.17347 25.9096 7.31651 25.9689 7.46568 25.9689C7.61486 25.9689 7.7579 25.9096 7.86343 25.8041L10.0931 23.5745C10.3127 23.3548 10.3127 22.9987 10.0931 22.779C9.87335 22.5593 9.51729 22.5593 9.29752 22.779L7.46568 24.6109L6.83968 23.9849C6.61997 23.7652 6.2639 23.7652 6.04414 23.9849C5.82448 24.2045 5.82448 24.5607 6.04414 24.7804L7.06794 25.8041Z" fill="black"/>
</svg>
