<svg width="36" height="36" viewBox="0 0 36 36" fill="none" xmlns="http://www.w3.org/2000/svg">
<path d="M28.774 31.3673C27.3415 31.3673 26.1804 30.2063 26.1804 28.7738V15.806H29.3675C30.4721 15.806 31.3675 16.7015 31.3675 17.806V28.7738C31.3675 30.2063 30.2065 31.3673 28.774 31.3673Z" fill="#F4B2B0"/>
<path d="M29.6597 15.3742H26.6129V6.86111C26.6129 5.86452 25.7484 5 24.5417 5H6.86111C5.93056 5 5 5.93056 5 6.86111V28.7742C5 30.4423 6.35729 31.8 8.02581 31.8H28.7742C30.4427 31.8 31.8 30.4423 31.8 28.7742V17.3756C31.8 16.5171 30.831 15.3742 29.6597 15.3742ZM8.02581 30.9355C6.83407 30.9355 6 29.9659 6 28.7742V8C6 6.89543 6.89543 6 8 6H23.6482C24.749 6 25.6429 6.88956 25.6482 7.99036L25.7484 28.7742C25.7484 29.6201 26.0972 30.3861 26.6583 30.9355H8.02581ZM30.9355 28.7742C30.9355 29.9659 29.9659 30.9355 28.7742 30.9355C27.5825 30.9355 26.6129 29.9659 26.6129 28.7742V16.2387H28.9355C30.0401 16.2387 30.9355 17.1341 30.9355 18.2387V28.7742Z" fill="black"/>
<path d="M7.99976 10.4875C7.99976 10.2488 8.19328 10.0552 8.43201 10.0552H14.9422C15.1809 10.0552 15.3744 10.2488 15.3744 10.4875C15.3744 10.7262 15.1809 10.9198 14.9422 10.9198H8.43201C8.19328 10.9198 7.99976 10.7262 7.99976 10.4875Z" fill="#B3404A"/>
<path d="M8.00024 12.2159C8.00024 11.9772 8.19377 11.7837 8.4325 11.7837H19.2646C19.5033 11.7837 19.6968 11.9772 19.6968 12.2159C19.6968 12.4546 19.5033 12.6482 19.2646 12.6482H8.4325C8.19377 12.6482 8.00024 12.4546 8.00024 12.2159Z" fill="#B3404A"/>
<path d="M7.99976 18.2018C7.99976 17.9631 8.19329 17.7695 8.43202 17.7695L14.942 17.7697C15.1807 17.7697 15.3743 17.9632 15.3743 18.2019C15.3743 18.4407 15.1807 18.6342 14.942 18.6342L8.432 18.6341C8.19328 18.6341 7.99976 18.4405 7.99976 18.2018Z" fill="#B3404A"/>
<path d="M8 19.9312C8 19.6924 8.19353 19.4989 8.43226 19.4989H19.2648C19.5035 19.4989 19.697 19.6924 19.697 19.9312C19.697 20.1699 19.5035 20.3634 19.2648 20.3634H8.43226C8.19353 20.3634 8 20.1699 8 19.9312Z" fill="#B3404A"/>
<path d="M7.99976 25.6165C7.99976 25.3778 8.19328 25.1843 8.43201 25.1843H14.9422C15.1809 25.1843 15.3744 25.3778 15.3744 25.6165C15.3744 25.8553 15.1809 26.0488 14.9422 26.0488H8.43201C8.19328 26.0488 7.99976 25.8553 7.99976 25.6165Z" fill="#B3404A"/>
<path d="M7.99976 27.345C7.99976 27.1062 8.19328 26.9127 8.43201 26.9127H19.2647C19.5035 26.9127 19.697 27.1062 19.697 27.345C19.697 27.5837 19.5035 27.7772 19.2647 27.7772H8.43201C8.19328 27.7772 7.99976 27.5837 7.99976 27.345Z" fill="#B3404A"/>
<path d="M22.2159 20.5092C21.9077 20.5092 21.6456 20.3308 21.5534 20.0841C21.5148 19.9809 21.4287 19.8889 21.3186 19.8889C21.0433 19.8889 20.8113 20.1226 20.9305 20.3708C21.0988 20.7211 21.4449 20.9881 21.8669 21.0856V21.401C21.8669 21.5938 22.0232 21.75 22.2159 21.75C22.4086 21.75 22.5649 21.5938 22.5649 21.401V21.0856C23.1651 20.9469 23.6117 20.4655 23.6117 19.8889C23.6117 19.2046 22.9857 18.6481 22.2159 18.6481C21.831 18.6481 21.518 18.3699 21.518 18.0278C21.518 17.6856 21.831 17.4074 22.2159 17.4074C22.5241 17.4074 22.7862 17.5858 22.8785 17.8326C22.917 17.9357 23.0031 18.0278 23.1132 18.0278C23.3885 18.0278 23.6205 17.7941 23.5013 17.5459C23.3329 17.1956 22.9868 16.9286 22.5649 16.8311V16.5156C22.5649 16.3229 22.4086 16.1667 22.2159 16.1667C22.0232 16.1667 21.8669 16.3229 21.8669 16.5156V16.8311C21.2667 16.9697 20.8201 17.4514 20.8201 18.0278C20.8201 18.712 21.4461 19.2685 22.2159 19.2685C22.6008 19.2685 22.9138 19.5467 22.9138 19.8889C22.9138 20.231 22.6008 20.5092 22.2159 20.5092Z" fill="#B3404A"/>
<path d="M22.2159 12.1342C21.9077 12.1342 21.6456 11.9558 21.5534 11.7091C21.5148 11.6059 21.4287 11.5139 21.3186 11.5139C21.0433 11.5139 20.8113 11.7476 20.9305 11.9958C21.0988 12.3461 21.4449 12.6131 21.8669 12.7106V13.026C21.8669 13.2188 22.0232 13.375 22.2159 13.375C22.4086 13.375 22.5649 13.2188 22.5649 13.026V12.7106C23.1651 12.5719 23.6117 12.0905 23.6117 11.5139C23.6117 10.8296 22.9857 10.2731 22.2159 10.2731C21.831 10.2731 21.518 9.9949 21.518 9.65277C21.518 9.31063 21.831 9.0324 22.2159 9.0324C22.5241 9.0324 22.7862 9.21081 22.8785 9.45758C22.917 9.56074 23.0031 9.65277 23.1132 9.65277C23.3885 9.65277 23.6205 9.41906 23.5013 9.1709C23.3329 8.82061 22.9868 8.55356 22.5649 8.45607V8.14061C22.5649 7.94789 22.4086 7.79166 22.2159 7.79166C22.0232 7.79166 21.8669 7.94789 21.8669 8.14061V8.45607C21.2667 8.59473 20.8201 9.07644 20.8201 9.65277C20.8201 10.337 21.4461 10.8935 22.2159 10.8935C22.6008 10.8935 22.9138 11.1717 22.9138 11.5139C22.9138 11.856 22.6008 12.1342 22.2159 12.1342Z" fill="#B3404A"/>
<path d="M22.2134 27.3226L21.6374 26.6724C21.5204 26.5403 21.3248 26.5127 21.1758 26.6073C20.9892 26.7259 20.9529 26.9833 21.0995 27.1488L21.9719 28.1339C22.0448 28.2164 22.1588 28.2639 22.279 28.2639C22.2905 28.2639 22.302 28.2636 22.3136 28.2626C22.446 28.2525 22.5627 28.1849 22.6226 28.0841L24.3276 25.1963C24.4413 25.0038 24.3593 24.7552 24.1535 24.6679C23.9828 24.5957 23.7851 24.6608 23.6909 24.8204L22.2134 27.3226Z" fill="#B3404A"/>
<rect x="14" y="5" width="5" height="1" fill="white"/>
<path d="M19.5 5.5C19.5 5.77614 19.2761 6 19 6C18.7239 6 18.5 5.77614 18.5 5.5C18.5 5.22386 18.7239 5 19 5C19.2761 5 19.5 5.22386 19.5 5.5Z" fill="black"/>
<path d="M14.5 5.5C14.5 5.77614 14.2761 6 14 6C13.7239 6 13.5 5.77614 13.5 5.5C13.5 5.22386 13.7239 5 14 5C14.2761 5 14.5 5.22386 14.5 5.5Z" fill="black"/>
<path d="M17 5.5C17 5.77614 16.7761 6 16.5 6C16.2239 6 16 5.77614 16 5.5C16 5.22386 16.2239 5 16.5 5C16.7761 5 17 5.22386 17 5.5Z" fill="black"/>
</svg>
