<svg width="36" height="36" viewBox="0 0 36 36" fill="none" xmlns="http://www.w3.org/2000/svg">
<path d="M30.8315 10.9825H6.35896C5.90844 10.9825 5.54321 11.3477 5.54321 11.7982V27.5694C5.54321 28.0199 5.90844 28.3851 6.35896 28.3851H30.8315C31.282 28.3851 31.6472 28.0199 31.6472 27.5694V11.7982C31.6472 11.3477 31.282 10.9825 30.8315 10.9825Z" fill="#C1C1C1"/>
<path d="M14.2451 18.596H8.26294V14.7892V13.1577H14.2451V18.596Z" fill="#F0F0F0"/>
<path d="M14.2451 15.333V14.2454H11.5259C11.4545 14.2454 11.3838 14.2594 11.3178 14.2868C11.2518 14.3141 11.1919 14.3541 11.1414 14.4046L10.213 15.333H8.26294V16.4207H10.213L11.1414 17.3491C11.1919 17.3996 11.2518 17.4396 11.3178 17.467C11.3838 17.4943 11.4545 17.5084 11.5259 17.5084H14.2451V16.4207H11.7512L11.2073 15.8769L11.7512 15.333H14.2451Z" fill="#CCCCCC"/>
<path d="M16.9626 13.7008H19.138V14.7885H16.9626V13.7008Z" fill="#C1C1C1"/>
<path d="M20.2266 13.7008H29.4717V14.7885H20.2266V13.7008Z" fill="#C1C1C1"/>
<path d="M16.9626 15.876H24.5763V16.9637H16.9626V15.876Z" fill="#C1C1C1"/>
<path d="M25.6648 15.876H27.2963V16.9637H25.6648V15.876Z" fill="#C1C1C1"/>
<path d="M8.26172 22.4023H10.9809V23.49H8.26172V22.4023Z" fill="#C1C1C1"/>
<path d="M12.0688 22.4023H14.788V23.49H12.0688V22.4023Z" fill="#C1C1C1"/>
<path d="M15.8762 22.4023H18.5954V23.49H15.8762V22.4023Z" fill="#C1C1C1"/>
<path d="M19.6824 22.4023H22.4015V23.49H19.6824V22.4023Z" fill="#C1C1C1"/>
<path d="M8.26172 24.5776H12.0686V25.6652H8.26172V24.5776Z" fill="#C1C1C1"/>
<path d="M13.1555 24.5776H14.2432V25.6652H13.1555V24.5776Z" fill="#C1C1C1"/>
<path d="M15.3318 24.5776H16.9633V25.6652H15.3318V24.5776Z" fill="#C1C1C1"/>
<path d="M27.8407 25.6655C28.7418 25.6655 29.4722 24.9351 29.4722 24.034C29.4722 23.133 28.7418 22.4025 27.8407 22.4025C26.9397 22.4025 26.2092 23.133 26.2092 24.034C26.2092 24.9351 26.9397 25.6655 27.8407 25.6655Z" fill="#676767"/>
<path d="M25.6654 25.6655C26.5665 25.6655 27.2969 24.9351 27.2969 24.034C27.2969 23.133 26.5665 22.4025 25.6654 22.4025C24.7644 22.4025 24.0339 23.133 24.0339 24.034C24.0339 24.9351 24.7644 25.6655 25.6654 25.6655Z" fill="#F0F0F0"/>
<path d="M14.2445 12.6134H8.26234C8.11811 12.6134 7.97978 12.6707 7.87779 12.7727C7.7758 12.8746 7.71851 13.013 7.71851 13.1572V18.5955C7.71851 18.7398 7.7758 18.8781 7.87779 18.9801C7.97978 19.0821 8.11811 19.1394 8.26234 19.1394H14.2445C14.3887 19.1394 14.5271 19.0821 14.6291 18.9801C14.731 18.8781 14.7883 18.7398 14.7883 18.5955V13.1572C14.7883 13.013 14.731 12.8746 14.6291 12.7727C14.5271 12.6707 14.3887 12.6134 14.2445 12.6134ZM13.7007 13.701V14.2449H11.5253C11.4539 14.2449 11.3832 14.2589 11.3172 14.2863C11.2512 14.3136 11.1913 14.3536 11.1408 14.4041L10.2124 15.3325H8.80617V13.701H13.7007ZM13.7007 15.3325V16.4202H11.7506L11.2067 15.8764L11.7506 15.3325H13.7007ZM8.80617 18.0517V16.4202H10.2124L11.1408 17.3486C11.1913 17.3991 11.2512 17.4392 11.3172 17.4665C11.3832 17.4938 11.4539 17.5079 11.5253 17.5079H13.7007V18.0517H8.80617Z" fill="black"/>
<path d="M16.9648 14.2454C16.9648 13.945 17.2083 13.7015 17.5087 13.7015H18.5963C18.8967 13.7015 19.1402 13.945 19.1402 14.2454C19.1402 14.5457 18.8967 14.7892 18.5963 14.7892H17.5087C17.2083 14.7892 16.9648 14.5457 16.9648 14.2454Z" fill="black"/>
<path d="M20.2268 14.2454C20.2268 13.945 20.4703 13.7015 20.7706 13.7015H28.9281C29.2285 13.7015 29.472 13.945 29.472 14.2454C29.472 14.5457 29.2285 14.7892 28.9281 14.7892H20.7706C20.4703 14.7892 20.2268 14.5457 20.2268 14.2454Z" fill="black"/>
<path d="M16.9648 16.4206C16.9648 16.1203 17.2083 15.8768 17.5087 15.8768H24.0347C24.335 15.8768 24.5785 16.1203 24.5785 16.4206C24.5785 16.721 24.335 16.9644 24.0347 16.9644H17.5087C17.2083 16.9644 16.9648 16.721 16.9648 16.4206Z" fill="black"/>
<path d="M25.666 16.4206C25.666 16.1203 25.9095 15.8768 26.2098 15.8768H26.7537C27.054 15.8768 27.2975 16.1203 27.2975 16.4206C27.2975 16.721 27.054 16.9644 26.7537 16.9644H26.2098C25.9095 16.9644 25.666 16.721 25.666 16.4206Z" fill="black"/>
<path d="M8.26294 22.9464C8.26294 22.646 8.50642 22.4025 8.80677 22.4025H10.4383C10.7386 22.4025 10.9821 22.646 10.9821 22.9464C10.9821 23.2467 10.7386 23.4902 10.4383 23.4902H8.80677C8.50642 23.4902 8.26294 23.2467 8.26294 22.9464Z" fill="black"/>
<path d="M12.0701 22.9464C12.0701 22.646 12.3136 22.4025 12.6139 22.4025H14.2454C14.5458 22.4025 14.7892 22.646 14.7892 22.9464C14.7892 23.2467 14.5458 23.4902 14.2454 23.4902H12.6139C12.3136 23.4902 12.0701 23.2467 12.0701 22.9464Z" fill="black"/>
<path d="M15.8762 22.9464C15.8762 22.646 16.1197 22.4025 16.4201 22.4025H18.0516C18.3519 22.4025 18.5954 22.646 18.5954 22.9464C18.5954 23.2467 18.3519 23.4902 18.0516 23.4902H16.4201C16.1197 23.4902 15.8762 23.2467 15.8762 22.9464Z" fill="black"/>
<path d="M19.6833 22.9464C19.6833 22.646 19.9268 22.4025 20.2272 22.4025H21.8587C22.159 22.4025 22.4025 22.646 22.4025 22.9464C22.4025 23.2467 22.159 23.4902 21.8587 23.4902H20.2272C19.9268 23.4902 19.6833 23.2467 19.6833 22.9464Z" fill="black"/>
<path d="M27.8411 21.8587C27.459 21.8586 27.0837 21.9595 26.753 22.151C26.4224 21.9598 26.0472 21.8589 25.6652 21.8587C25.2832 21.8585 24.9078 21.9588 24.5769 22.1497C24.246 22.3406 23.9712 22.6152 23.7802 22.946C23.5891 23.2768 23.4885 23.652 23.4885 24.034C23.4885 24.416 23.5891 24.7913 23.7802 25.1221C23.9712 25.4529 24.246 25.7275 24.5769 25.9184C24.9078 26.1092 25.2832 26.2096 25.6652 26.2094C26.0472 26.2092 26.4224 26.1083 26.753 25.9171C27.0419 26.0839 27.3653 26.1819 27.6981 26.2038C28.031 26.2256 28.3644 26.1706 28.6726 26.0429C28.9808 25.9153 29.2555 25.7185 29.4754 25.4677C29.6954 25.217 29.8547 24.919 29.9411 24.5968C30.0275 24.2746 30.0386 23.9368 29.9736 23.6097C29.9086 23.2825 29.7692 22.9747 29.5662 22.71C29.3632 22.4453 29.102 22.2309 28.8029 22.0833C28.5038 21.9356 28.1747 21.8588 27.8411 21.8587ZM24.5781 24.034C24.5781 23.8189 24.6419 23.6086 24.7614 23.4298C24.8809 23.2509 25.0508 23.1115 25.2495 23.0292C25.4483 22.9468 25.667 22.9253 25.878 22.9673C26.089 23.0092 26.2828 23.1128 26.4349 23.2649C26.587 23.4171 26.6906 23.6109 26.7325 23.8218C26.7745 24.0328 26.753 24.2515 26.6707 24.4503C26.5883 24.649 26.4489 24.8189 26.2701 24.9384C26.0912 25.0579 25.8809 25.1217 25.6658 25.1217C25.3774 25.1214 25.101 25.0067 24.8971 24.8028C24.6932 24.5989 24.5784 24.3224 24.5781 24.034ZM27.8411 25.1217C27.7493 25.1214 27.658 25.1095 27.5692 25.0863C27.7478 24.7643 27.8415 24.4022 27.8415 24.034C27.8415 23.6659 27.7478 23.3038 27.5692 22.9818C27.7187 22.9431 27.8747 22.9366 28.0269 22.9629C28.1791 22.9892 28.3239 23.0476 28.4517 23.1342C28.5796 23.2208 28.6875 23.3337 28.7683 23.4653C28.8492 23.5968 28.901 23.7441 28.9205 23.8973C28.94 24.0505 28.9266 24.2061 28.8812 24.3537C28.8359 24.5013 28.7596 24.6376 28.6575 24.7534C28.5554 24.8693 28.4297 24.962 28.289 25.0255C28.1482 25.089 27.9955 25.1218 27.8411 25.1217Z" fill="black"/>
<path d="M8.26294 25.1216C8.26294 24.8212 8.50642 24.5778 8.80677 24.5778H11.5259C11.8263 24.5778 12.0698 24.8212 12.0698 25.1216C12.0698 25.4219 11.8263 25.6654 11.5259 25.6654H8.80677C8.50642 25.6654 8.26294 25.4219 8.26294 25.1216Z" fill="black"/>
<path d="M13.1577 25.1216C13.1577 24.8212 13.4012 24.5778 13.7015 24.5778C14.0019 24.5778 14.2454 24.8212 14.2454 25.1216C14.2454 25.4219 14.0019 25.6654 13.7015 25.6654C13.4012 25.6654 13.1577 25.4219 13.1577 25.1216Z" fill="black"/>
<path d="M15.333 25.1216C15.333 24.8212 15.5765 24.5778 15.8768 24.5778H16.4207C16.721 24.5778 16.9645 24.8212 16.9645 25.1216C16.9645 25.4219 16.721 25.6654 16.4207 25.6654H15.8768C15.5765 25.6654 15.333 25.4219 15.333 25.1216Z" fill="black"/>
<path d="M5.5 12C5.5 11.4477 5.94772 11 6.5 11H30.5C31.0523 11 31.5 11.4477 31.5 12V27C31.5 27.5523 31.0523 28 30.5 28H6.5C5.94772 28 5.5 27.5523 5.5 27V12Z" stroke="black" stroke-linejoin="round"/>
</svg>
