<svg width="36" height="36" viewBox="0 0 36 36" fill="none" xmlns="http://www.w3.org/2000/svg">
<path d="M26.0259 11.6988C26.0259 15.1306 23.2437 17.9129 19.8118 17.9129C19.4948 17.9129 19.1831 17.889 18.8788 17.8432L18.881 17.8426C18.9576 17.8215 19.0315 17.794 19.1032 17.7624C19.7324 17.4883 20.1656 16.861 20.1656 16.1326C20.1656 15.6404 19.9659 15.196 19.6437 14.8733C19.3218 14.5519 18.8774 14.3523 18.3852 14.3523H14.1917C13.8108 13.5478 13.5977 12.648 13.5977 11.6988C13.5977 11.6381 13.5982 11.5777 13.6004 11.5172C13.6004 11.5145 13.6004 11.5109 13.6012 11.5082C13.6031 11.4159 13.6081 11.3253 13.6152 11.2346C13.6806 10.2851 13.9767 9.34634 14.4653 8.52979C14.604 8.2977 14.757 8.07578 14.9229 7.86237C14.9918 7.77393 15.0643 7.68741 15.1388 7.60309C16.2772 6.30423 17.9485 5.48438 19.8118 5.48438C23.2445 5.48438 26.0259 8.26666 26.0259 11.6988Z" fill="#FFCD6B"/>
<path d="M31.1324 19.5035H26.0504L20.4413 21.8252C19.4602 22.2314 18.998 23.3591 19.4119 24.3372L19.4308 24.382C19.8483 25.3677 20.9618 25.8404 21.9516 25.4586C23.5433 24.8445 25.6307 24.0419 25.6307 24.0419L20.2559 26.1085C19.1224 26.5443 17.8845 26.6322 16.7004 26.3611L11.1938 25.1005C10.1847 24.8692 9.18278 25.5122 8.97212 26.5257C8.77079 27.4941 9.36762 28.4491 10.3262 28.6927L16.8968 30.3626C18.1355 30.6777 19.4421 30.5958 20.6319 30.1292L29.1117 26.8031H31.1324V19.5035Z" fill="#FFD4BE"/>
<path d="M31.1324 19.5035H26.0504L20.4413 21.8252C19.4602 22.2314 18.998 23.3591 19.4119 24.3372L19.4308 24.382C19.8483 25.3677 20.9618 25.8404 21.9516 25.4586C23.5433 24.8445 25.6307 24.0419 25.6307 24.0419L20.2559 26.1085C19.1224 26.5443 17.8845 26.6322 16.7004 26.3611L11.1938 25.1005C10.1847 24.8692 9.18278 25.5122 8.97212 26.5257C8.77079 27.4941 9.36762 28.4491 10.3262 28.6927L16.8968 30.3626C18.1355 30.6777 19.4421 30.5958 20.6319 30.1292L29.1117 26.8031H31.1324V19.5035Z" fill="#FFDDCF"/>
<path d="M31.1326 18.2063H35.2969V27.8764H31.1326V18.2063Z" fill="#F4C1D3"/>
<path d="M0.703125 8.97885H4.86749V18.649H0.703125V8.97885Z" fill="#598DCB"/>
<path d="M13.6013 11.5082C13.6032 11.4159 13.6082 11.3253 13.6153 11.2346C13.6082 11.3253 13.6032 11.4167 13.6013 11.5082Z" fill="#FFD4BE"/>
<path d="M35.2967 17.5031H31.1323C30.744 17.5031 30.4292 17.8179 30.4292 18.2063V18.8004H26.0503C25.958 18.8004 25.8666 18.8185 25.7814 18.8539L20.1723 21.1753C19.5233 21.4442 19.0191 21.9501 18.7529 22.6003C18.4865 23.2501 18.4906 23.9642 18.7644 24.6113L18.7834 24.6561C18.946 25.04 19.1855 25.3666 19.4764 25.6248C18.6227 25.8563 17.7276 25.875 16.8575 25.6759L11.3509 24.4149C10.6771 24.2608 9.98554 24.3814 9.40381 24.7547C8.82236 25.1277 8.42438 25.7061 8.28376 26.3826C8.00498 27.7229 8.82621 29.0371 10.1531 29.3744L16.7235 31.0443C17.2799 31.1855 17.8441 31.2558 18.4063 31.2558C19.2492 31.2558 20.088 31.0979 20.8887 30.7837L29.2449 27.5065H30.4292V27.8764C30.4292 28.2648 30.7442 28.5796 31.1323 28.5796H35.2967C35.6851 28.5796 35.9998 28.2648 35.9998 27.8764V18.2063C35.9998 17.8179 35.6851 17.5031 35.2967 17.5031ZM29.1117 26.1002C29.0238 26.1002 28.9367 26.1167 28.8551 26.1486L20.375 29.4747C19.3157 29.89 18.1728 29.9614 17.0698 29.6812L10.4994 28.0113C9.90397 27.86 9.53538 27.2703 9.66035 26.6688C9.72352 26.365 9.90204 26.1054 10.1632 25.9382C10.35 25.8181 10.5623 25.7563 10.7788 25.7563C10.8644 25.7563 10.951 25.766 11.0369 25.7857L16.5436 27.0464C17.8685 27.3496 19.2393 27.2524 20.5083 26.7646L22.1062 26.1502C22.1392 26.1389 22.1719 26.1269 22.2045 26.1142C23.6171 25.5696 25.42 24.8763 25.8075 24.7272L25.883 24.6981C26.2453 24.5588 26.4263 24.1518 26.2871 23.7895C26.1478 23.427 25.741 23.2462 25.3782 23.3855C25.3782 23.3855 25.3494 23.3968 25.2961 23.4171L21.6313 24.8264C21.0101 25.0277 20.3382 24.7217 20.0784 24.1078L20.0592 24.0628C19.9326 23.764 19.9309 23.4338 20.054 23.1334C20.177 22.8329 20.4099 22.5989 20.7101 22.4747L26.1901 20.2066H30.4292V26.1002H29.1117ZM34.5936 27.1733H31.8354V18.9094H34.5936V27.1733Z" fill="black"/>
<path d="M20.1661 16.1327C20.1661 16.8611 19.7329 17.4884 19.1037 17.7625C19.032 17.7941 18.9581 17.8215 18.8815 17.8427C18.7247 17.8883 18.558 17.9122 18.3857 17.9122H4.86816V9.9361H5.76602C6.17664 9.9361 6.58176 9.83832 6.9465 9.65128L11.533 6.6586C12.4114 6.20816 13.4702 6.2966 14.2617 6.88794L15.1711 7.56635C14.2296 8.62268 13.6438 10.0015 13.6009 11.5173H13.1804C12.7888 11.5173 12.4336 11.6763 12.1779 11.932C11.9211 12.1888 11.7629 12.5432 11.7629 12.9348C11.7629 13.7181 12.3971 14.3523 13.1804 14.3523H18.3857C18.8779 14.3523 19.3223 14.552 19.6442 14.8734C19.9664 15.1961 20.1661 15.6405 20.1661 16.1327Z" fill="#FFDDCF"/>
<path d="M6.84723 17.2093H5.57089V10.6394H5.76562C6.28555 10.6394 6.80466 10.5142 7.26691 10.2772C7.2886 10.2659 7.31003 10.2538 7.33035 10.2404L11.8839 7.26938C12.5132 6.96066 13.2778 7.03098 13.8409 7.45175L14.1696 7.69675C14.1496 7.72504 14.1303 7.75388 14.1108 7.78217C14.024 7.90851 13.9406 8.03732 13.862 8.16888C13.3759 8.98105 13.0636 9.89484 12.9488 10.8268C12.4695 10.8784 12.0256 11.0899 11.6801 11.4351C11.2799 11.8353 11.0594 12.3681 11.0594 12.935C11.0594 14.1042 12.0108 15.0557 13.18 15.0557H18.3853C18.6726 15.0557 18.9432 15.1677 19.1461 15.3701C19.3499 15.5745 19.4623 15.8453 19.4626 16.1326C19.4623 16.5616 19.211 16.9483 18.8196 17.1189C18.7743 17.1389 18.7333 17.1538 18.6949 17.1645C18.6913 17.1656 18.688 17.1667 18.6844 17.1678C18.5897 17.1953 18.4892 17.2093 18.3853 17.2093H12.4709C12.0828 17.2093 11.7677 17.524 11.7677 17.9124C11.7677 18.3008 12.0828 18.6155 12.4709 18.6155H18.3853C18.5669 18.6155 18.746 18.5957 18.9201 18.5576C19.2154 18.5955 19.5145 18.6161 19.8119 18.6161C23.6261 18.6161 26.7295 15.513 26.7295 11.6985C26.7295 7.88434 23.6261 4.78125 19.8119 4.78125C18.0544 4.78125 16.3721 5.45059 15.0991 6.63602L14.6821 6.32483C13.6832 5.57858 12.3206 5.46405 11.2115 6.03342C11.1898 6.0444 11.169 6.05676 11.1484 6.06995L6.59537 9.04065C6.33829 9.16672 6.05209 9.23291 5.76562 9.23291H5.57062V8.97858C5.57062 8.59021 5.25586 8.27545 4.86749 8.27545H0.703125C0.314758 8.27545 0 8.59021 0 8.97858V18.6487C0 19.0371 0.314758 19.3519 0.703125 19.3519H4.86749C5.25586 19.3519 5.57062 19.0371 5.57062 18.6487V18.6155H6.84723C7.23532 18.6155 7.55035 18.3008 7.55035 17.9124C7.55035 17.524 7.23532 17.2093 6.84723 17.2093ZM12.4656 12.935C12.4656 12.7439 12.5398 12.5642 12.6747 12.4297C12.745 12.3593 12.8276 12.3058 12.9177 12.2704C12.9559 12.7406 13.0416 13.2009 13.1734 13.6491C12.7826 13.6456 12.4656 13.3267 12.4656 12.935ZM25.3229 11.6988C25.3229 14.4511 23.2946 16.739 20.6537 17.1455C20.7949 16.8286 20.8688 16.4798 20.8688 16.1326C20.8688 15.7066 20.7614 15.2971 20.5604 14.9334C20.8655 14.8854 21.1473 14.7445 21.3701 14.5217C21.6486 14.2435 21.8018 13.8735 21.8018 13.4799V12.4401C21.8018 11.6277 21.1407 10.9666 20.3283 10.9666H19.2967C19.2596 10.9666 19.2294 10.9363 19.2294 10.8993V9.91763C19.2294 9.88055 19.2596 9.85062 19.2967 9.85062H19.8122H19.8125H19.8127H20.3283C20.3654 9.85062 20.3956 9.88055 20.3956 9.91763C20.3956 10.306 20.7103 10.6208 21.0987 10.6208C21.4868 10.6208 21.8018 10.306 21.8018 9.91763C21.8018 9.16891 21.2396 8.55011 20.5156 8.45755V8.21393C20.5156 7.82556 20.2008 7.5108 19.8125 7.5108C19.4241 7.5108 19.1093 7.82556 19.1093 8.21393V8.45755C18.3851 8.55011 17.8231 9.16891 17.8231 9.91763V10.8993C17.8231 11.7117 18.4842 12.3728 19.2967 12.3728H20.3283C20.3654 12.3728 20.3956 12.403 20.3956 12.4401V13.4799C20.3956 13.4984 20.389 13.5143 20.3758 13.5275C20.3626 13.5404 20.347 13.547 20.3283 13.547H19.2967C19.2596 13.547 19.2294 13.5168 19.2294 13.4799V13.3846C19.2294 12.9963 18.9146 12.6815 18.5262 12.6815C18.1379 12.6815 17.8231 12.9963 17.8231 13.3846V13.4799C17.8231 13.5371 17.8272 13.5934 17.8336 13.6491H14.6558C14.4201 13.029 14.3009 12.3745 14.3009 11.6988C14.3009 10.6685 14.594 9.63721 15.146 8.76627C15.3048 8.51605 15.4817 8.27737 15.678 8.05518C16.7242 6.8681 18.2299 6.1875 19.8119 6.1875C22.8507 6.1875 25.3229 8.6597 25.3229 11.6988ZM4.16437 17.9459H1.40625V9.6817H4.16437V17.9459Z" fill="black"/>
<path d="M10.2226 17.5226C10.0576 17.2702 9.73402 17.154 9.44536 17.2367C9.1663 17.3169 8.96278 17.5665 8.93779 17.8555C8.91252 18.1475 9.08198 18.4326 9.3484 18.5526C9.61235 18.6718 9.93013 18.6147 10.1356 18.41C10.3699 18.176 10.4061 17.7975 10.2226 17.5226Z" fill="black"/>
</svg>
