<svg width="36" height="36" viewBox="0 0 36 36" fill="none" xmlns="http://www.w3.org/2000/svg">
<path d="M18.4444 23.3455C17.4972 23.3455 16.588 23.5107 15.7435 23.8132C13.698 24.5457 11.9804 26.109 11.0778 28.179C10.6502 29.1598 10.4121 30.2414 10.4121 31.3779H18.4445V23.3455C18.4444 23.3455 18.4444 23.3455 18.4444 23.3455Z" fill="#D3D3D3"/>
<path d="M25.8107 28.1791C24.9419 26.1869 23.2693 24.5739 21.144 23.8131C20.2964 23.5096 19.3841 23.3457 18.4441 23.3457V31.3781H26.4764C26.4764 30.2416 26.2383 29.1599 25.8107 28.1791Z" fill="#E7E7E7"/>
<path d="M21.1443 23.8129C20.2966 23.5094 19.3843 23.3455 18.4442 23.3455C17.497 23.3455 16.5878 23.5107 15.7433 23.8132C13.6978 24.5457 11.9802 26.109 11.0776 28.179C11.8746 28.8795 12.7988 29.55 13.753 30.1182V31.3779H23.1346V30.1188C24.0891 29.5505 25.0137 28.8798 25.8109 28.1789C24.9422 26.1867 23.2696 24.5737 21.1443 23.8129Z" fill="#A4A4A4"/>
<path d="M15.7446 23.8134C13.9227 24.4661 12.3959 25.7616 11.4482 27.438C11.346 27.6176 11.2517 27.8019 11.1642 27.989C11.1348 28.052 11.106 28.1155 11.0781 28.1795C11.875 28.8801 12.7993 29.5506 13.7535 30.1188V31.3785H14.4286C14.6348 30.1153 15.0901 28.9339 15.7446 27.8877V23.8134Z" fill="#979797"/>
<path d="M18.4452 23.3455C17.5162 23.3455 16.6052 23.5047 15.7451 23.8128V31.3779H21.1469V23.8135C20.2864 23.5052 19.3744 23.3455 18.4452 23.3455Z" fill="#DFDFDF"/>
<path d="M21.1433 23.8126C20.2835 23.5049 19.3725 23.3455 18.4442 23.3455C17.5152 23.3455 16.6043 23.5047 15.7441 23.8128V27.8871C16.9588 25.9455 18.8611 24.4707 21.1433 23.8126Z" fill="#D9D9D9"/>
<path d="M18.4465 22.3624L15.7441 23.8129C16.2183 25.0566 17.1687 26.0433 18.4465 26.7266C19.7242 26.0434 20.6717 25.0571 21.146 23.8136L18.4465 22.3624Z" fill="#D3D3D3"/>
<path d="M8.8156 16.9626C10.1376 16.9626 11.2093 15.8909 11.2093 14.5689C11.2093 13.2469 10.1376 12.1752 8.8156 12.1752C7.49358 12.1752 6.42188 13.2469 6.42188 14.5689C6.42188 15.8909 7.49358 16.9626 8.8156 16.9626Z" fill="#D3D3D3"/>
<path d="M28.0722 16.9627C29.3942 16.9627 30.4659 15.891 30.4659 14.569C30.4659 13.247 29.3942 12.1753 28.0722 12.1753C26.7502 12.1753 25.6785 13.247 25.6785 14.569C25.6785 15.891 26.7502 16.9627 28.0722 16.9627Z" fill="#D3D3D3"/>
<path d="M21.1432 23.813C25.1468 22.646 28.0723 18.9494 28.0723 14.569C28.0723 9.25145 23.7616 4.94072 18.444 4.94072C13.1266 4.94072 8.81592 9.25145 8.81592 14.569C8.81592 18.9493 11.7414 22.646 15.7449 23.813C16.6014 24.0627 17.507 24.1971 18.444 24.1971C19.3812 24.1972 20.2868 24.0627 21.1432 23.813Z" fill="#E7E7E7"/>
<path d="M12.0076 14.57C12.0076 9.79615 15.4821 5.83451 20.0399 5.07412C19.5208 4.9875 18.9878 4.94171 18.444 4.94171C13.1266 4.94171 8.81592 9.25244 8.81592 14.57C8.81592 19.8874 13.1267 24.1981 18.444 24.1981C18.9877 24.1981 19.5207 24.1523 20.0399 24.0657C15.4821 23.3052 12.0076 19.3437 12.0076 14.57Z" fill="#D3D3D3"/>
<path d="M12.8996 19.6936C14.0293 19.6936 14.9452 18.9642 14.9452 18.0646C14.9452 17.1649 14.0293 16.4356 12.8996 16.4356C11.7698 16.4356 10.854 17.1649 10.854 18.0646C10.854 18.9642 11.7698 19.6936 12.8996 19.6936Z" fill="#A0A0A0" fill-opacity="0.3"/>
<path d="M23.986 19.6936C25.1158 19.6936 26.0316 18.9643 26.0316 18.0646C26.0316 17.1649 25.1158 16.4356 23.986 16.4356C22.8563 16.4356 21.9404 17.1649 21.9404 18.0646C21.9404 18.9643 22.8563 19.6936 23.986 19.6936Z" fill="#A0A0A0" fill-opacity="0.3"/>
<path d="M23.7372 4.59604L20.8816 3.71544C19.3127 3.23163 17.6199 3.34892 16.1328 4.04439L8.81163 7.46806C8.3344 7.6912 8.29869 8.35624 8.74925 8.62928L8.52864 8.73666C7.94763 9.01943 8.07785 9.88248 8.71646 9.9812L8.94832 10.017L8.87913 10.1055C8.55136 10.5249 8.93358 11.1231 9.45181 11.0019L9.50328 10.9899C9.21883 11.6999 9.01672 12.4516 8.90827 13.2334H9.49754H9.50953C10.7861 13.2308 11.9508 12.504 12.5232 11.363L13.1364 10.1406L14.3948 9.66867C17.0054 8.6897 19.8823 8.6897 22.4928 9.66867L22.8606 9.85255C23.5075 10.176 24.0322 10.7002 24.3564 11.3468C24.3593 11.3527 24.3623 11.3585 24.3653 11.3644C24.7714 12.1626 25.5303 12.7229 26.407 12.9056L27.9794 13.2332L27.9802 13.2334C29.3152 9.66974 27.3738 5.71744 23.7372 4.59604Z" fill="#A8A8A8"/>
<path d="M16.5854 6.20119C16.5854 4.98855 17.3201 3.89679 18.4435 3.44009C17.6495 3.49904 16.866 3.70115 16.1325 4.04416L8.81139 7.46783C8.33416 7.69097 8.29844 8.35602 8.74901 8.62905L8.52839 8.73644C7.94738 9.0192 8.0776 9.88225 8.71621 9.98097L8.94807 10.0168L8.87889 10.1053C8.55112 10.5246 8.93334 11.1228 9.45157 11.0017L9.50304 10.9896C9.21858 11.6996 9.01647 12.4514 8.90802 13.2332H9.4973H9.50928C10.7858 13.2306 11.9505 12.5038 12.5229 11.3628L13.1362 10.1404L14.3946 9.66844C15.6796 9.18655 17.0291 8.94242 18.3797 8.93494C17.2925 8.46328 16.5854 7.3906 16.5854 6.20119Z" fill="#595959"/>
<path d="M22.1333 28.6547C22.3663 28.6547 22.5552 28.4658 22.5552 28.2328C22.5552 27.9998 22.3663 27.8109 22.1333 27.8109C21.9003 27.8109 21.7114 27.9998 21.7114 28.2328C21.7114 28.4658 21.9003 28.6547 22.1333 28.6547Z" fill="black"/>
<path d="M22.1333 30.8044C22.3663 30.8044 22.5552 30.6156 22.5552 30.3826C22.5552 30.1496 22.3663 29.9607 22.1333 29.9607C21.9003 29.9607 21.7114 30.1496 21.7114 30.3826C21.7114 30.6156 21.9003 30.8044 22.1333 30.8044Z" fill="black"/>
<path d="M13.6699 15.6797V16.4758C13.6699 16.7088 13.8588 16.8977 14.0918 16.8977C14.3248 16.8977 14.5137 16.7088 14.5137 16.4758V15.6797C14.5137 15.4467 14.3248 15.2578 14.0918 15.2578C13.8588 15.2578 13.6699 15.4466 13.6699 15.6797Z" fill="black"/>
<path d="M22.1562 15.7038V16.4999C22.1562 16.7329 22.3451 16.9218 22.5781 16.9218C22.8111 16.9218 23 16.7329 23 16.4999V15.7038C23 15.4708 22.8111 15.2819 22.5781 15.2819C22.3451 15.2819 22.1562 15.4707 22.1562 15.7038Z" fill="black"/>
<path d="M19.2735 16.1936C19.0642 16.4338 18.7619 16.5715 18.4442 16.5715C18.1265 16.5715 17.8243 16.4338 17.615 16.1936C17.4618 16.0179 17.1954 15.9996 17.0197 16.1527C16.844 16.3058 16.8258 16.5722 16.9788 16.7479C17.3484 17.1721 17.8825 17.4153 18.4442 17.4153C19.0058 17.4153 19.5399 17.1721 19.9096 16.7479C20.0626 16.5722 20.0443 16.3058 19.8687 16.1527C19.6932 15.9996 19.4266 16.0179 19.2735 16.1936Z" fill="black"/>
<path d="M26.0744 19.7215C25.9438 19.9145 25.9943 20.1768 26.1873 20.3074C26.3808 20.4382 26.6428 20.387 26.7731 20.1944C27.3596 19.3279 27.8026 18.3838 28.0935 17.3839C29.6361 17.3722 30.8876 16.1142 30.8876 14.5688C30.8876 13.2664 29.9987 12.1514 28.762 11.8399C28.9702 10.2848 28.6498 8.70016 27.8429 7.33379C26.952 5.82539 25.538 4.70989 23.8615 4.1929L21.006 3.3123C20.3292 3.10356 19.6324 3 18.9376 3C17.9018 3 16.898 3.22089 15.9541 3.66218L8.63296 7.0859C8.0911 7.3393 7.8639 7.97853 8.10617 8.5124C7.51583 9.01589 7.65381 9.97957 8.3463 10.3054C8.27864 10.7458 8.52597 11.1781 8.91938 11.3547C8.89795 11.4183 8.83962 11.5986 8.79411 11.7549C7.23756 11.7675 6 13.0306 6 14.5688C6 16.1172 7.24853 17.3706 8.79377 17.3832C9.66149 20.3695 11.8333 22.7125 14.5928 23.855C13.7103 24.3091 12.906 24.9185 12.2296 25.652C12.0717 25.8233 12.0825 26.0902 12.2538 26.2482C12.4251 26.4061 12.692 26.3953 12.85 26.224C13.5461 25.4691 14.3919 24.8593 15.3217 24.4385V30.9563H14.1744C14.1744 30.3706 14.1744 29.9291 14.1744 29.3266C14.1744 28.7783 13.3307 28.7451 13.3307 29.3576C12.7199 28.9582 12.1309 28.5211 11.5932 28.067C11.6864 27.8752 11.7878 27.6867 11.8962 27.504C12.0152 27.3036 11.9492 27.0447 11.7488 26.9258C11.5484 26.8069 11.2896 26.8729 11.1707 27.0732C10.4246 28.3301 9.98954 29.7973 9.98954 31.3781C9.98954 31.6111 10.1784 31.8 10.4114 31.8H26.4761C26.7092 31.8 26.898 31.6111 26.898 31.3781C26.898 28.1681 25.0832 25.2871 22.3 23.856C23.5489 23.3375 24.6912 22.5635 25.6642 21.5592C25.8263 21.3918 25.8221 21.1247 25.6547 20.9626C25.4872 20.8005 25.2202 20.8048 25.0582 20.9721C23.3509 22.7345 21.0143 23.775 18.4438 23.775C14.2256 23.775 10.5559 20.9233 9.51979 16.84C9.26104 15.8201 9.1756 14.7485 9.28366 13.6552H9.5104C10.952 13.6523 12.251 12.8465 12.9003 11.5521L13.4394 10.4774L14.543 10.0636C17.0516 9.12282 19.8141 9.12041 22.3241 10.0559C22.7088 10.2482 23.4947 10.5692 23.9793 11.5361L23.9892 11.5557C24.4512 12.4635 25.301 13.1061 26.3209 13.3186L27.597 13.5845C27.823 15.7067 27.3224 17.8774 26.0744 19.7215ZM11.255 28.8817C11.8995 29.4091 12.605 29.9115 13.3307 30.3565V30.9563H10.8448C10.8836 30.2452 11.0213 29.5508 11.255 28.8817ZM16.1655 25.3927C16.6978 26.0674 17.3989 26.6452 18.2471 27.0987C18.3714 27.1652 18.5207 27.1652 18.645 27.0987C19.4916 26.646 20.1918 26.0687 20.7236 25.3941V30.9563H16.1655V25.3927ZM22.7122 30.9563H21.5673V24.4392C23.2229 25.1883 24.5338 26.5008 25.2943 28.067C24.7564 28.5214 24.1671 28.9587 23.5559 29.3582C23.5559 28.7471 22.7122 28.776 22.7122 29.3266V30.9563ZM23.5559 30.9563V30.357C24.282 29.9118 24.9877 29.4093 25.6326 28.8816C25.8664 29.5507 26.004 30.2452 26.0428 30.9563H23.5559ZM20.3675 24.4359C19.9233 25.1514 19.2722 25.7659 18.446 26.2441C17.618 25.765 16.9659 25.1502 16.5215 24.4347C17.7543 24.6735 19.065 24.6864 20.3675 24.4359ZM30.0439 14.5688C30.0439 15.5783 29.2813 16.4124 28.3021 16.5268C28.4288 15.8852 28.4939 15.2303 28.4939 14.5728C28.4939 14.1431 28.4649 13.7096 28.4102 13.282C28.482 13.0811 28.5449 12.8765 28.5984 12.6694C29.4324 12.9024 30.0439 13.6767 30.0439 14.5688ZM6.84375 14.5688C6.84375 13.5659 7.60082 12.7215 8.58542 12.6102C8.32982 13.9095 8.32988 15.2325 8.58571 16.5274C7.6011 16.4162 6.84375 15.5721 6.84375 14.5688ZM12.1461 11.1739C11.6593 12.1442 10.7026 12.8115 9.40668 12.8115C9.49898 12.3334 9.62785 11.8588 9.81134 11.3643C10.3619 11.2735 11.3327 11.1371 12.2999 10.8672L12.1461 11.1739ZM24.7335 11.1577C24.371 10.4345 23.7728 9.83703 23.0492 9.47518C23.0164 9.45881 22.6738 9.28595 22.6409 9.27363C19.9343 8.25871 16.9532 8.25865 14.2467 9.27363L12.9882 9.74557C12.986 9.74641 12.984 9.74748 12.9819 9.74833C12.9799 9.74911 12.9778 9.74962 12.9759 9.75046C11.7051 10.2733 10.0973 10.4469 9.42406 10.5755C9.36145 10.5875 9.26881 10.6314 9.20373 10.5293C9.13983 10.4295 9.20946 10.368 9.28068 10.2769C9.47884 10.0234 9.33085 9.64933 9.01281 9.60016L8.78089 9.56428C8.54993 9.52856 8.50279 9.21851 8.71322 9.11602C8.91229 9.01916 9.15709 8.94322 9.17071 8.64869C9.17779 8.4944 9.1 8.34854 8.96792 8.2685C8.80553 8.17012 8.81813 7.93077 8.99037 7.85022L16.3115 4.4265C17.7068 3.77406 19.2857 3.66471 20.7574 4.11853L23.613 4.99913C26.8975 6.01197 28.7177 9.46865 27.7017 12.7444L26.493 12.4926C25.7347 12.3347 25.0857 11.8598 24.7335 11.1577Z" fill="black"/>
</svg>
