<svg width="36" height="36" viewBox="0 0 36 36" fill="none" xmlns="http://www.w3.org/2000/svg">
<path d="M27.217 29.4377C29.5937 29.4377 31.5204 27.511 31.5204 25.1343C31.5204 22.7576 29.5937 20.8309 27.217 20.8309C24.8403 20.8309 22.9136 22.7576 22.9136 25.1343C22.9136 27.511 24.8403 29.4377 27.217 29.4377Z" fill="#FC3850"/>
<path d="M26.5419 23.1655V24.4593H25.248C24.8752 24.4593 24.573 24.7615 24.573 25.1344C24.573 25.5072 24.8752 25.8094 25.248 25.8094H26.5419V27.1032C26.5419 27.4761 26.8441 27.7783 27.2169 27.7783C27.5898 27.7783 27.892 27.4761 27.892 27.1032V25.8094H29.1858C29.5586 25.8094 29.8608 25.5072 29.8608 25.1344C29.8608 24.7615 29.5586 24.4593 29.1858 24.4593H27.892V23.1655C27.892 22.7926 27.5898 22.4904 27.2169 22.4904C26.8441 22.4904 26.5419 22.7926 26.5419 23.1655Z" fill="#EDF4FC"/>
<path d="M24.1742 22.0919C25.6446 20.6215 27.9143 20.4376 29.5846 21.5401V9.36008C29.5846 8.49164 28.8741 7.78127 28.0058 7.78127H4.86007C3.99173 7.78127 3.28125 8.49164 3.28125 9.36008V23.5831C3.28125 24.4516 3.99173 25.162 4.86007 25.162H22.9145C22.9075 24.0516 23.327 22.939 24.1742 22.0919Z" fill="#C5E3FF"/>
<path d="M14.993 21.5285V11.3848C14.993 10.7655 14.4863 10.2589 13.867 10.2589H6.7478C6.12845 10.2589 5.62183 10.7656 5.62183 11.3848V21.5285C5.62183 22.1479 6.12856 22.6545 6.7478 22.6545H13.867C14.4864 22.6545 14.993 22.1479 14.993 21.5285Z" fill="#FACB35"/>
<path d="M12.7806 14.9386C12.7292 14.9386 12.6788 14.943 12.6295 14.9505V15.1102V16.7333C12.6295 16.7864 12.6271 16.8389 12.6235 16.8913C12.6748 16.8995 12.727 16.905 12.7806 16.905C13.3237 16.905 13.7638 16.4647 13.7638 15.9217C13.7639 15.3788 13.3237 14.9386 12.7806 14.9386Z" fill="#F9C1A8"/>
<path d="M7.91921 15.1102V14.9505C7.86993 14.9429 7.81953 14.9386 7.76811 14.9386C7.22504 14.9386 6.78491 15.3788 6.78491 15.9218C6.78491 16.4649 7.22515 16.9051 7.76811 16.9051C7.82167 16.9051 7.87387 16.8996 7.92517 16.8914C7.92169 16.8391 7.91921 16.7865 7.91921 16.7334V15.1102Z" fill="#F9C1A8"/>
<path d="M10.6269 13.8764C9.76678 14.9582 8.49781 14.8055 8.07119 14.7161C7.99367 14.6999 7.9193 14.7583 7.91919 14.8375V14.8391V16.7335C7.91919 18.0288 8.9789 19.0885 10.2742 19.0885C11.5695 19.0885 12.6292 18.0287 12.6292 16.7335V14.6358C12.6292 14.6236 12.6291 14.6113 12.6289 14.599C12.6275 14.5322 12.5741 14.4772 12.5072 14.4753C11.5289 14.4466 11.0134 14.0589 10.8154 13.8647C10.7614 13.8116 10.674 13.8172 10.6269 13.8764Z" fill="#F9C1A8"/>
<path d="M7.76694 14.9391C7.81835 14.9391 7.86875 14.9434 7.91803 14.951V14.8395C7.91803 14.8389 7.91803 14.8385 7.91803 14.8379C7.91814 14.7587 7.99251 14.7003 8.07003 14.7165C8.49666 14.8059 9.76563 14.9584 10.6257 13.8768C10.6729 13.8175 10.7602 13.812 10.8142 13.865C11.0123 14.0591 11.5277 14.4468 12.5061 14.4755C12.5729 14.4774 12.6264 14.5326 12.6277 14.5993C12.6279 14.6116 12.628 14.6238 12.628 14.6361V14.9511C12.6773 14.9434 12.7277 14.9392 12.7791 14.9392C13.0442 14.9392 13.2843 15.0446 13.461 15.215V13.4464C13.461 12.7066 12.8556 12.1012 12.1158 12.1012C11.8648 12.1012 11.6302 12.1721 11.4286 12.293C11.1931 11.8999 10.764 11.6346 10.2749 11.6346H9.58415C8.24723 11.6346 7.15332 12.7285 7.15332 14.0654V15.1546C7.32174 15.0201 7.53472 14.9391 7.76694 14.9391Z" fill="#843418"/>
<path d="M10.2724 19.089C9.89526 19.089 9.5385 18.9986 9.22168 18.8393V19.7109L9.68892 20.7481C9.72526 20.8288 9.80548 20.8807 9.89402 20.8807H10.6837C10.7699 20.8807 10.8485 20.8314 10.8861 20.7539L11.3916 19.7109V18.8041C11.0581 18.9856 10.6767 19.089 10.2724 19.089Z" fill="#F9C1A8"/>
<path d="M14.9931 21.3841C14.9098 21.059 14.6563 20.7976 14.3216 20.7133L12.4926 20.253L11.3924 19.7104L10.8869 20.7534C10.8494 20.8309 10.7707 20.8802 10.6845 20.8802C10.662 20.8802 9.89002 20.8802 9.89485 20.8802C9.80642 20.8802 9.72609 20.8283 9.68975 20.7476L9.22251 19.7104L8.1223 20.253L6.29338 20.7133C5.95867 20.7976 5.70531 21.059 5.62183 21.3841V21.5283C5.62183 22.1477 6.12856 22.6543 6.7478 22.6543H13.867C14.4864 22.6543 14.993 22.1476 14.993 21.5283V21.3841H14.9931Z" fill="#1387CE"/>
<path d="M27.2173 29.7171C26.0431 29.7171 24.8692 29.2701 23.9755 28.3763C22.1879 26.5887 22.1879 23.6803 23.9755 21.8927C25.7631 20.105 28.6715 20.105 30.4592 21.8927C32.2468 23.6803 32.2468 26.5887 30.4592 28.3763C29.5653 29.2701 28.3914 29.7171 27.2173 29.7171ZM27.2173 21.1142C26.1873 21.1142 25.1573 21.5062 24.3732 22.2904C22.8051 23.8586 22.8051 26.4103 24.3732 27.9786C25.9414 29.5469 28.4931 29.5469 30.0615 27.9786C31.6296 26.4104 31.6296 23.8587 30.0615 22.2904C29.2773 21.5062 28.2473 21.1142 27.2173 21.1142Z" fill="black"/>
<path d="M22.9145 25.4432H4.86008C3.83447 25.4432 3 24.6088 3 23.5831V9.36008C3 8.33447 3.83447 7.5 4.86008 7.5H28.0059C29.0315 7.5 29.866 8.33447 29.866 9.36008V21.5402C29.866 21.6437 29.8091 21.7389 29.718 21.7879C29.6267 21.8371 29.5162 21.832 29.4298 21.775C27.8448 20.7286 25.718 20.9458 24.3731 22.2908C23.607 23.057 23.1889 24.0759 23.1957 25.1603C23.1962 25.2352 23.1667 25.3072 23.1139 25.3602C23.0612 25.4134 22.9894 25.4432 22.9145 25.4432ZM4.86008 8.06254C4.14465 8.06254 3.56254 8.64465 3.56254 9.36008V23.5831C3.56254 24.2986 4.14465 24.8807 4.86008 24.8807H22.6398C22.7008 23.7513 23.169 22.6993 23.9753 21.893C25.3883 20.48 27.5576 20.1594 29.3033 21.0512V9.36008C29.3033 8.64465 28.7212 8.06254 28.0058 8.06254H4.86008Z" fill="black"/>
<path d="M13.8671 22.9359H6.74782C5.97197 22.9359 5.34058 22.3046 5.34058 21.5286V11.385C5.34058 10.609 5.97185 9.9776 6.74782 9.9776H13.8671C14.643 9.9776 15.2744 10.6089 15.2744 11.385V21.5286C15.2744 22.3046 14.643 22.9359 13.8671 22.9359ZM6.74782 10.5401C6.28204 10.5401 5.90311 10.9191 5.90311 11.385V21.5286C5.90311 21.9944 6.28204 22.3733 6.74782 22.3733H13.8671C14.3329 22.3733 14.7119 21.9944 14.7119 21.5286V11.385C14.7119 10.9191 14.3329 10.5401 13.8671 10.5401H6.74782Z" fill="black"/>
<path d="M12.7786 17.1869C12.7148 17.1869 12.6489 17.1813 12.5769 17.1697C12.4336 17.1467 12.3312 17.0182 12.341 16.8732C12.344 16.8271 12.3463 16.7809 12.3463 16.7341V14.9511C12.3463 14.8124 12.4475 14.6942 12.5847 14.6731C12.6504 14.663 12.7156 14.6578 12.7786 14.6578C13.4758 14.6578 14.0431 15.225 14.0431 15.9223C14.0431 16.6195 13.4758 17.1869 12.7786 17.1869ZM12.9088 15.2325V16.6123C13.234 16.5511 13.4806 16.2649 13.4806 15.9224C13.4806 15.5798 13.234 15.2937 12.9088 15.2325Z" fill="black"/>
<path d="M7.76715 17.1867C7.06995 17.1867 6.50269 16.6195 6.50269 15.9223C6.50269 15.225 7.06995 14.6578 7.76715 14.6578C7.83016 14.6578 7.89541 14.663 7.96112 14.6731C8.09826 14.6942 8.19952 14.8123 8.19952 14.9511V16.734C8.19952 16.7808 8.20188 16.827 8.20492 16.8731C8.21471 17.0181 8.11244 17.1467 7.96888 17.1697C7.89687 17.1811 7.83095 17.1867 7.76715 17.1867ZM7.63698 15.2322C7.31184 15.2934 7.06522 15.5796 7.06522 15.9221C7.06522 16.2647 7.31184 16.5508 7.63698 16.612V15.2322Z" fill="black"/>
<path d="M10.2737 19.3699C8.82013 19.3699 7.63745 18.1872 7.63745 16.7335V14.8391C7.63745 14.7151 7.69202 14.6008 7.7872 14.5234C7.88328 14.4456 8.0076 14.4157 8.12832 14.4407C8.56372 14.532 9.65763 14.6424 10.4061 13.7014C10.4781 13.6107 10.5855 13.5546 10.7006 13.5475C10.8167 13.5405 10.9292 13.5827 11.0118 13.6635C11.1655 13.8144 11.6195 14.1675 12.515 14.1938C12.732 14.2004 12.9051 14.3757 12.9095 14.5932C12.9099 14.6061 12.91 14.6208 12.91 14.6357V16.7335C12.91 18.1872 11.7273 19.3699 10.2737 19.3699ZM8.19999 15.024V16.7335C8.19999 17.877 9.13031 18.8073 10.2737 18.8073C11.4172 18.8073 12.3476 17.877 12.3476 16.7335V14.7488C11.5287 14.6945 11.0205 14.4043 10.7417 14.1758C9.89277 15.1263 8.74137 15.1016 8.19999 15.024ZM10.8465 14.0513C10.8464 14.0514 10.8463 14.0515 10.8463 14.0516C10.8464 14.0515 10.8464 14.0514 10.8465 14.0513ZM10.6263 13.8763H10.6274H10.6263Z" fill="black"/>
<path d="M13.461 15.4962C13.3895 15.4962 13.3192 15.469 13.2657 15.4175C13.134 15.2903 12.9612 15.2203 12.779 15.2203C12.7446 15.2203 12.7083 15.2233 12.6708 15.229C12.5899 15.2416 12.5072 15.218 12.4448 15.1645C12.3824 15.1111 12.3467 15.0331 12.3467 14.9511V14.7494C11.5278 14.695 11.0196 14.4049 10.7408 14.1764C9.8868 15.1322 8.72673 15.1015 8.18985 15.0231C8.17534 15.0776 8.14473 15.1271 8.10108 15.1645C8.03886 15.218 7.95685 15.2417 7.87517 15.229C7.83703 15.2232 7.80159 15.2203 7.76671 15.2203C7.60616 15.2203 7.45484 15.2737 7.32883 15.3742C7.24434 15.4419 7.12879 15.455 7.03125 15.4081C6.93382 15.3613 6.87183 15.2628 6.87183 15.1546V14.0654C6.87183 12.57 8.08848 11.3533 9.58393 11.3533H10.2748C10.7542 11.3533 11.2106 11.5714 11.5178 11.9358C11.708 11.8595 11.9109 11.82 12.1156 11.82C13.0125 11.82 13.7421 12.5496 13.7421 13.4465V15.2151C13.7421 15.3279 13.6746 15.4298 13.5709 15.4739C13.5355 15.4889 13.4982 15.4962 13.461 15.4962ZM12.9092 14.6644C13.0018 14.674 13.0925 14.6936 13.1797 14.7228V13.4464C13.1797 12.8597 12.7024 12.3824 12.1157 12.3824C11.9262 12.3824 11.7387 12.435 11.5733 12.5342C11.5093 12.5727 11.4324 12.5841 11.3602 12.5658C11.2879 12.5477 11.2256 12.5016 11.1873 12.4376C10.9944 12.1158 10.6449 11.9158 10.2749 11.9158H9.58404C8.39878 11.9158 7.43448 12.8801 7.43448 14.0653V14.7025C7.51368 14.6809 7.59514 14.6668 7.67738 14.6608C7.70292 14.6084 7.73982 14.5616 7.7864 14.5237C7.88248 14.4459 8.0068 14.416 8.12752 14.441C8.56292 14.5324 9.65683 14.6427 10.4053 13.7016C10.4773 13.611 10.5847 13.5549 10.6998 13.5478C10.8159 13.5408 10.9284 13.583 11.011 13.6638C11.1647 13.8147 11.6187 14.1678 12.5142 14.1942C12.7312 14.2007 12.9044 14.376 12.9086 14.5936C12.9091 14.6064 12.9092 14.6211 12.9092 14.636V14.6644Z" fill="black"/>
<path d="M10.6838 21.1624H9.89404C9.69513 21.1624 9.51399 21.0453 9.43242 20.8641L8.96529 19.8271C8.94887 19.7907 8.94043 19.7514 8.94043 19.7115V18.8399C8.94043 18.7424 8.99095 18.6517 9.07409 18.6005C9.15712 18.5494 9.26074 18.5447 9.34804 18.5887C9.63786 18.7344 9.94894 18.8083 10.2724 18.8083C10.6154 18.8083 10.9559 18.7216 11.2572 18.5576C11.3443 18.5103 11.45 18.5123 11.5354 18.5628C11.6207 18.6136 11.673 18.7055 11.673 18.8046V19.7115C11.673 19.7541 11.6633 19.796 11.6449 19.8343L11.1394 20.8772C11.0553 21.0503 10.8766 21.1624 10.6838 21.1624ZM9.93049 20.5999H10.6485L11.1104 19.6468V19.233C10.5917 19.4076 10.0186 19.4146 9.50297 19.2555V19.651L9.93049 20.5999Z" fill="black"/>
<path d="M13.8671 22.9362H6.74782C5.97197 22.9362 5.34058 22.3049 5.34058 21.529V21.3846C5.34058 21.361 5.3435 21.3376 5.34935 21.3148C5.45983 20.884 5.79533 20.5492 6.22466 20.441L8.02466 19.9881L9.0981 19.4588C9.1665 19.4252 9.24571 19.4205 9.31748 19.4464C9.38938 19.4722 9.44754 19.526 9.47893 19.5955L9.93132 20.5995H10.6493L11.1393 19.5884C11.1721 19.521 11.2303 19.4694 11.3011 19.4452C11.3719 19.4207 11.4494 19.4259 11.5168 19.4589L12.5902 19.9882L14.3902 20.4411C14.8194 20.5492 15.1549 20.8841 15.2655 21.3148C15.2714 21.3376 15.2743 21.3611 15.2743 21.3847V21.5291C15.2744 22.3049 14.643 22.9362 13.8671 22.9362ZM5.90311 21.4233V21.529C5.90311 21.9947 6.28204 22.3737 6.74782 22.3737H13.8671C14.3329 22.3737 14.7119 21.9947 14.7119 21.529V21.4234C14.6449 21.2076 14.4717 21.0417 14.253 20.9867L12.424 20.5263C12.4048 20.5213 12.3861 20.5146 12.3683 20.5057L11.5222 20.0885L11.1401 20.8766C11.0561 21.0499 10.8773 21.162 10.6846 21.162H9.89476C9.69585 21.162 9.51471 21.0448 9.43314 20.8636L9.08561 20.0921L8.24653 20.5058C8.22875 20.5146 8.21008 20.5215 8.19084 20.5264L6.36192 20.9868C6.1432 21.0417 5.96994 21.2076 5.90311 21.4233Z" fill="black"/>
<path d="M26.9216 18.4385H16.9873C16.832 18.4385 16.7061 18.3126 16.7061 18.1572C16.7061 18.0019 16.832 17.876 16.9873 17.876H26.9216C27.077 17.876 27.2029 18.0019 27.2029 18.1572C27.2029 18.3126 27.077 18.4385 26.9216 18.4385Z" fill="black"/>
<path d="M22.9139 21.2229H16.9873C16.832 21.2229 16.7061 21.097 16.7061 20.9416C16.7061 20.7862 16.832 20.6603 16.9873 20.6603H22.9139C23.0692 20.6603 23.1951 20.7862 23.1951 20.9416C23.1951 21.097 23.0692 21.2229 22.9139 21.2229Z" fill="black"/>
<path d="M26.9216 12.3016H16.9873C16.832 12.3016 16.7061 12.1757 16.7061 12.0203C16.7061 11.8649 16.832 11.7391 16.9873 11.7391H26.9216C27.077 11.7391 27.2029 11.8649 27.2029 12.0203C27.2029 12.1757 27.077 12.3016 26.9216 12.3016Z" fill="black"/>
<path d="M26.9216 15.5625H16.9873C16.832 15.5625 16.7061 15.4366 16.7061 15.2813C16.7061 15.1259 16.832 15 16.9873 15H26.9216C27.077 15 27.2029 15.1259 27.2029 15.2813C27.2029 15.4366 27.077 15.5625 26.9216 15.5625Z" fill="black"/>
<path d="M27.2169 28.0596C26.6896 28.0596 26.2606 27.6306 26.2606 27.1033V26.0907H25.2481C24.7207 26.0907 24.2917 25.6617 24.2917 25.1344C24.2917 24.6071 24.7207 24.1781 25.2481 24.1781H26.2606V23.1655C26.2606 22.6382 26.6896 22.2092 27.2169 22.2092C27.7443 22.2092 28.1733 22.6382 28.1733 23.1655V24.1781H29.1858C29.7131 24.1781 30.1421 24.6071 30.1421 25.1344C30.1421 25.6617 29.7131 26.0907 29.1858 26.0907H28.1733V27.1033C28.1733 27.6306 27.7443 28.0596 27.2169 28.0596ZM25.2481 24.7406C25.0309 24.7406 24.8543 24.9172 24.8543 25.1344C24.8543 25.3515 25.0309 25.5282 25.2481 25.5282H26.5419C26.6973 25.5282 26.8232 25.654 26.8232 25.8094V27.1033C26.8232 27.3204 26.9998 27.497 27.2169 27.497C27.4341 27.497 27.6107 27.3204 27.6107 27.1033V25.8094C27.6107 25.654 27.7366 25.5282 27.892 25.5282H29.1858C29.403 25.5282 29.5796 25.3515 29.5796 25.1344C29.5796 24.9172 29.403 24.7406 29.1858 24.7406H27.892C27.7366 24.7406 27.6107 24.6147 27.6107 24.4593V23.1655C27.6107 22.9484 27.4341 22.7717 27.2169 22.7717C26.9998 22.7717 26.8232 22.9484 26.8232 23.1655V24.4593C26.8232 24.6147 26.6973 24.7406 26.5419 24.7406H25.2481Z" fill="black"/>
<path d="M8 7.5H9.82682V8.0625H8V7.5Z" fill="white"/>
<path d="M8.27534 7.775C8.27534 7.92688 8.15222 8.05 8.00034 8.05C7.84846 8.05 7.72534 7.92688 7.72534 7.775C7.72534 7.62312 7.84846 7.5 8.00034 7.5C8.15222 7.5 8.27534 7.62312 8.27534 7.775Z" fill="black"/>
<path d="M10.0498 7.775C10.0498 7.92688 9.92663 8.05 9.77476 8.05C9.62288 8.05 9.49976 7.92688 9.49976 7.775C9.49976 7.62312 9.62288 7.5 9.77476 7.5C9.92663 7.5 10.0498 7.62312 10.0498 7.775Z" fill="black"/>
</svg>
