<svg width="36" height="36" viewBox="0 0 36 36" fill="none" xmlns="http://www.w3.org/2000/svg">
<g clip-path="url(#clip0_5_12603)">
<path d="M24.6381 10.9542C24.6381 13.018 22.9648 14.6913 20.9009 14.6913C18.8368 14.6913 17.1638 13.018 17.1638 10.9542C17.1638 8.89004 18.8368 7.21704 20.9009 7.21704C22.9648 7.21704 24.6381 8.89004 24.6381 10.9542Z" fill="#6A6A6A"/>
<path d="M24.6385 10.9536C24.6385 13.0179 22.9653 14.6911 20.9014 14.6911C19.8872 14.6911 18.967 14.2871 18.2939 13.6307C18.8255 13.9212 19.435 14.0862 20.083 14.0862C22.1469 14.0862 23.8201 12.413 23.8201 10.3491C23.8201 9.29904 23.3872 8.35047 22.69 7.6713C23.851 8.30543 24.6385 9.53744 24.6385 10.9536Z" fill="#4E4E4E"/>
<path d="M23.458 10.9539C23.458 12.3659 22.3134 13.5104 20.9015 13.5104C19.4895 13.5104 18.3447 12.3659 18.3447 10.9539C18.3447 9.54195 19.4895 8.39717 20.9015 8.39717C22.3134 8.39717 23.458 9.54195 23.458 10.9539Z" fill="#D2D2D2"/>
<path d="M23.4569 10.9541C23.4569 12.366 22.3124 13.511 20.9004 13.511C20.1421 13.511 19.461 13.1808 18.9932 12.6565C19.2979 12.785 19.6328 12.8558 19.9844 12.8558C21.3965 12.8558 22.5413 11.711 22.5413 10.299C22.5413 9.64558 22.2961 9.04924 21.8922 8.59726C22.8118 8.98464 23.4569 9.89387 23.4569 10.9541Z" fill="#ACACAC"/>
<path d="M23.6489 31.9645H12.3699C10.0522 31.9645 8.15601 30.0683 8.15601 27.7504V22.2355C8.15601 19.9178 10.0522 18.0213 12.3699 18.0213H23.6489C25.9666 18.0213 27.8628 19.9176 27.8628 22.2355V27.7504C27.8628 30.0683 25.9666 31.9645 23.6489 31.9645Z" fill="#F5F5F5"/>
<path d="M27.8623 22.2352V27.7502C27.8623 30.0683 25.9658 31.9647 23.6484 31.9647H22.3362C24.6541 31.9647 26.5505 30.0683 26.5505 27.7502V22.2352C26.5505 19.9178 24.6541 18.0213 22.3362 18.0213H23.6484C25.9658 18.0213 27.8623 19.9178 27.8623 22.2352Z" fill="#E9E9E9"/>
<path d="M26.0587 15.5567H10.0097C9.63679 15.5567 9.33423 15.2544 9.33423 14.8813V13.6058C9.33423 13.2327 9.63679 12.9303 10.0097 12.9303H26.0587C26.4318 12.9303 26.7341 13.2327 26.7341 13.6058V14.8813C26.7341 15.2544 26.4318 15.5567 26.0587 15.5567Z" fill="#F5F5F5"/>
<path d="M26.7333 13.6055V14.8813C26.7333 15.2546 26.4308 15.5565 26.0581 15.5565H24.5686C24.9415 15.5565 25.244 15.2546 25.244 14.8813V13.6055C25.244 13.2329 24.9415 12.9303 24.5686 12.9303H26.0581C26.4308 12.9303 26.7333 13.2329 26.7333 13.6055Z" fill="#E9E9E9"/>
<path d="M11.9004 15.5568H24.1631V18.0208H11.9004V15.5568Z" fill="#D2D2D2"/>
<path d="M22.3362 15.5568H24.163V18.0208H22.3362V15.5568Z" fill="#C2C2C2"/>
<path d="M18.2845 23.5998C18.2845 25.6637 16.6115 27.3369 14.5474 27.3369C12.4835 27.3369 10.8103 25.6637 10.8103 23.5998C10.8103 21.5359 12.4835 19.8626 14.5474 19.8626C16.6115 19.8626 18.2845 21.5359 18.2845 23.5998Z" fill="#6A6A6A"/>
<path d="M18.2848 23.5994C18.2848 25.6638 16.6116 27.337 14.5474 27.337C13.5334 27.337 12.6132 26.9329 11.9399 26.2766C12.4715 26.5671 13.081 26.7321 13.7292 26.7321C15.7931 26.7321 17.4663 25.0588 17.4663 22.995C17.4663 21.9449 17.0332 20.9963 16.336 20.3171C17.4971 20.9513 18.2848 22.1833 18.2848 23.5994Z" fill="#4E4E4E"/>
<path d="M17.1047 23.5998C17.1047 25.0117 15.9599 26.1563 14.548 26.1563C13.136 26.1563 11.9915 25.0117 11.9915 23.5998C11.9915 22.1878 13.136 21.043 14.548 21.043C15.9599 21.043 17.1047 22.1878 17.1047 23.5998Z" fill="#D2D2D2"/>
<path d="M17.1036 23.5992C17.1036 25.0114 15.9591 26.1561 14.5469 26.1561C13.7886 26.1561 13.1077 25.8259 12.6399 25.3016C12.9447 25.4302 13.2795 25.5011 13.6311 25.5011C15.043 25.5011 16.188 24.3564 16.188 22.9442C16.188 22.2907 15.9428 21.6944 15.539 21.2424C16.4583 21.6298 17.1036 22.539 17.1036 23.5992Z" fill="#ACACAC"/>
<path d="M25.2545 26.3482C25.2545 28.4121 23.5813 30.0853 21.5174 30.0853C19.4535 30.0853 17.7803 28.4121 17.7803 26.3482C17.7803 24.2841 19.4535 22.6111 21.5174 22.6111C23.5813 22.6111 25.2545 24.2841 25.2545 26.3482Z" fill="#6A6A6A"/>
<path d="M25.2545 26.3476C25.2545 28.412 23.5813 30.0852 21.5174 30.0852C20.5031 30.0852 19.5829 29.6811 18.9099 29.0248C19.4414 29.3153 20.051 29.4803 20.6989 29.4803C22.7628 29.4803 24.436 27.8071 24.436 25.7432C24.436 24.6931 24.003 23.7445 23.306 23.0654C24.4668 23.6995 25.2545 24.9315 25.2545 26.3476Z" fill="#4E4E4E"/>
<path d="M24.0745 26.348C24.0745 27.7599 22.9299 28.9045 21.5179 28.9045C20.106 28.9045 18.9612 27.7599 18.9612 26.348C18.9612 24.936 20.106 23.7912 21.5179 23.7912C22.9299 23.7912 24.0745 24.936 24.0745 26.348Z" fill="#D2D2D2"/>
<path d="M24.0734 26.3481C24.0734 27.76 22.9288 28.905 21.5168 28.905C20.7586 28.905 20.0774 28.5748 19.6096 28.0505C19.9144 28.1791 20.2492 28.2498 20.6008 28.2498C22.013 28.2498 23.1578 27.105 23.1578 25.6931C23.1578 25.0396 22.9125 24.443 22.5087 23.9913C23.4282 24.3787 24.0734 25.2879 24.0734 26.3481Z" fill="#ACACAC"/>
<path d="M22.7587 8.62577C22.5768 8.48054 22.3116 8.5102 22.1661 8.69213C22.0209 8.87428 22.0505 9.13949 22.2325 9.28473C22.4045 9.42228 22.5537 9.58444 22.6761 9.76703C22.7576 9.88832 22.891 9.9538 23.0268 9.9538C23.1077 9.9538 23.1892 9.93073 23.2612 9.88239C23.4546 9.75275 23.5065 9.49083 23.3766 9.29748C23.2061 9.04303 22.9982 8.81716 22.7587 8.62577Z" fill="black"/>
<path d="M23.0355 10.9538C23.0355 11.1746 23.0021 11.3924 22.9359 11.6007C22.8654 11.8228 22.9882 12.0599 23.2101 12.1302C23.2525 12.1438 23.2956 12.1502 23.3378 12.1502C23.5167 12.1502 23.6828 12.0355 23.7397 11.856C23.832 11.5651 23.879 11.2614 23.879 10.9538C23.879 10.7209 23.6902 10.5321 23.4571 10.5321C23.2242 10.5321 23.0355 10.7209 23.0355 10.9538Z" fill="black"/>
<path d="M18.706 9.57529C18.4915 9.48498 18.2441 9.58583 18.154 9.80051C18.0351 10.0831 17.9613 10.3815 17.9341 10.6873C17.9134 10.9194 18.0848 11.1241 18.3168 11.1448C18.3296 11.1459 18.3421 11.1463 18.3546 11.1463C18.5706 11.1463 18.7545 10.9813 18.7741 10.762C18.7936 10.543 18.8464 10.3294 18.9314 10.1272C19.0217 9.91257 18.9206 9.66538 18.706 9.57529Z" fill="black"/>
<path d="M20.6162 7.98951C20.3105 8.01851 20.0126 8.09454 19.7309 8.21495C19.5169 8.30658 19.4176 8.55443 19.5092 8.76844C19.5775 8.9284 19.7333 9.02442 19.897 9.02442C19.9522 9.02442 20.0086 9.01343 20.0627 8.99036C20.2642 8.90423 20.4773 8.84996 20.6964 8.82908C20.9282 8.80689 21.098 8.60101 21.0761 8.3692C21.0539 8.13739 20.848 7.96732 20.6162 7.98951Z" fill="black"/>
<path d="M27.8629 26.6468C28.0958 26.6468 28.2845 26.4581 28.2845 26.2251V22.2354C28.2845 19.9999 26.6941 18.1291 24.5854 17.6947V15.9789H26.0587C26.6636 15.9789 27.1558 15.4867 27.1558 14.8818V13.6063C27.1558 13.0013 26.6636 12.5089 26.0587 12.5089H24.7568C24.9517 12.0284 25.0598 11.5037 25.0598 10.9539C25.0598 8.66086 23.1941 6.79517 20.901 6.79517C18.6078 6.79517 16.7421 8.66086 16.7421 10.9539C16.7421 11.5035 16.8497 12.0284 17.0442 12.5089H16.4019C16.169 12.5089 15.9803 12.6979 15.9803 12.9306C15.9803 13.1635 16.169 13.3522 16.4019 13.3522H26.0587C26.1984 13.3522 26.3125 13.4663 26.3125 13.6063V14.8818C26.3125 15.0217 26.1987 15.1355 26.0587 15.1355H10.0099C9.8699 15.1355 9.75586 15.0217 9.75586 14.8818V13.6063C9.75586 13.4663 9.86968 13.3522 10.0099 13.3522H14.4765C14.7092 13.3522 14.8981 13.1635 14.8981 12.9306C14.8981 12.6979 14.7092 12.5089 14.4765 12.5089H10.0099C9.40474 12.5089 8.91255 13.0011 8.91255 13.6063V14.8818C8.91255 15.4867 9.40474 15.9789 10.0099 15.9789H11.4794V17.6864C9.34805 18.103 7.73438 19.9838 7.73438 22.2354V27.7503C7.73438 30.3066 9.81387 32.3861 12.3702 32.3861H23.6489C24.8008 32.3861 25.9066 31.9567 26.7634 31.1773C27.6137 30.4032 28.1457 29.353 28.261 28.2196C28.2845 27.9878 28.1158 27.781 27.8842 27.7573C27.6521 27.7338 27.4454 27.9025 27.4219 28.1344C27.3276 29.0605 26.8923 29.9196 26.1958 30.5535C25.4947 31.1914 24.5903 31.5428 23.6489 31.5428H12.3702C10.279 31.5428 8.57769 29.8414 8.57769 27.7503V22.2354C8.57769 20.1442 10.279 18.4429 12.3702 18.4429H23.6489C25.7401 18.4429 27.4412 20.1442 27.4412 22.2354V26.2251C27.4412 26.4581 27.63 26.6468 27.8629 26.6468ZM23.8271 12.5092H19.4396C19.3687 12.4424 19.3017 12.3716 19.2401 12.2958C19.0936 12.1147 18.8281 12.0866 18.6471 12.2332C18.5585 12.3046 18.5071 12.4046 18.4942 12.5092H17.9741C17.7264 12.0451 17.5856 11.5158 17.5856 10.9542C17.5856 9.12603 19.0729 7.6387 20.901 7.6387C22.7292 7.6387 24.2165 9.12603 24.2165 10.9542C24.2165 11.516 24.075 12.0451 23.8271 12.5092ZM23.7421 17.5996H12.3227V15.9789H23.7421V17.5996Z" fill="black"/>
<path d="M16.6828 23.5996C16.6828 23.8207 16.6492 24.0384 16.5831 24.2467C16.5127 24.4686 16.6354 24.7057 16.8575 24.776C16.8999 24.7897 16.943 24.796 16.9852 24.796C17.164 24.796 17.3299 24.6813 17.3868 24.5018C17.4793 24.2109 17.5261 23.9075 17.5261 23.5996C17.5261 23.3667 17.3374 23.178 17.1045 23.178C16.8716 23.178 16.6828 23.3667 16.6828 23.5996Z" fill="black"/>
<path d="M15.5588 25.4801C15.3657 25.5844 15.1583 25.6576 14.9425 25.698C14.7136 25.7409 14.5628 25.9611 14.6057 26.19C14.6435 26.3926 14.8206 26.5343 15.0196 26.5343C15.0453 26.5343 15.0715 26.5319 15.0974 26.5271C15.3991 26.4706 15.6889 26.3682 15.9592 26.2225C16.1642 26.112 16.2409 25.8562 16.1301 25.6512C16.0196 25.4462 15.7638 25.3698 15.5588 25.4801Z" fill="black"/>
<path d="M14.7223 21.0142C14.7001 20.7824 14.4944 20.6121 14.2624 20.6345C13.9565 20.6635 13.6588 20.7393 13.3771 20.8599C13.1629 20.9516 13.0636 21.1994 13.1552 21.4134C13.2238 21.5734 13.3793 21.6694 13.543 21.6694C13.5984 21.6694 13.6546 21.6584 13.7089 21.6353C13.9102 21.5492 14.1235 21.4947 14.3424 21.4741C14.5744 21.4519 14.7443 21.246 14.7223 21.0142Z" fill="black"/>
<path d="M12.4213 23.4077C12.4409 23.1884 12.4938 22.9748 12.5786 22.7729C12.6689 22.5582 12.5681 22.3111 12.3534 22.221C12.1387 22.1304 11.8915 22.2315 11.8012 22.4462C11.6826 22.7285 11.6085 23.0269 11.5813 23.333C11.5606 23.565 11.732 23.7696 11.964 23.7902C11.9766 23.7916 11.9893 23.792 12.0018 23.792C12.2178 23.792 12.402 23.627 12.4213 23.4077Z" fill="black"/>
<path d="M13.371 25.3815C13.1875 25.2602 13.0245 25.1119 12.886 24.9407C12.7395 24.7597 12.474 24.7318 12.293 24.8781C12.1119 25.0247 12.0838 25.2901 12.2304 25.4712C12.4231 25.7096 12.6503 25.9159 12.9056 26.0848C12.9772 26.1323 13.0581 26.1549 13.1378 26.1549C13.2747 26.1549 13.409 26.0884 13.4901 25.9658C13.6184 25.7715 13.5652 25.5098 13.371 25.3815Z" fill="black"/>
<path d="M16.4046 21.2716C16.2227 21.1262 15.9573 21.1558 15.812 21.338C15.6666 21.5199 15.6962 21.7853 15.8784 21.9306C16.0502 22.0679 16.1996 22.2303 16.322 22.4127C16.4033 22.5342 16.5367 22.5997 16.6725 22.5997C16.7533 22.5997 16.8349 22.5764 16.9069 22.5282C17.1005 22.3984 17.1521 22.1365 17.0225 21.9431C16.852 21.6887 16.6441 21.4628 16.4046 21.2716Z" fill="black"/>
<path d="M18.6941 23.2977C18.539 21.1451 16.7392 19.4406 14.5474 19.4406C12.2544 19.4406 10.3887 21.3061 10.3887 23.5994C10.3887 25.8925 12.2544 27.7582 14.5474 27.7582C15.6364 27.7582 16.6285 27.3369 17.3707 26.6496C17.5258 28.8023 19.3256 30.5067 21.5174 30.5067C23.8104 30.5067 25.6761 28.6412 25.6761 26.348C25.6761 24.0549 23.8104 22.1892 21.5174 22.1892C20.4284 22.1892 19.4364 22.6104 18.6941 23.2977ZM14.5474 26.9149C12.7193 26.9149 11.232 25.4275 11.232 23.5994C11.232 21.7713 12.7193 20.2839 14.5474 20.2839C16.3758 20.2839 17.8631 21.7713 17.8631 23.5994C17.8631 25.4275 16.3756 26.9149 14.5474 26.9149ZM24.8328 26.348C24.8328 28.1761 23.3455 29.6634 21.5174 29.6634C19.689 29.6634 18.2019 28.1761 18.2019 26.348C18.2019 24.5198 19.689 23.0325 21.5174 23.0325C23.3455 23.0325 24.8328 24.5198 24.8328 26.348Z" fill="black"/>
<path d="M21.5754 28.9389C21.6134 29.1415 21.7905 29.2832 21.9893 29.2832C22.0153 29.2832 22.0412 29.2808 22.0676 29.276C22.369 29.2195 22.6589 29.1171 22.9289 28.9714C23.1339 28.8609 23.2106 28.6051 23.1001 28.4001C22.9895 28.1951 22.734 28.1186 22.5288 28.229C22.3354 28.3333 22.128 28.4065 21.9124 28.4469C21.6835 28.4896 21.5325 28.7099 21.5754 28.9389Z" fill="black"/>
<path d="M21.2321 23.3832C20.9263 23.4122 20.6285 23.4882 20.3469 23.6086C20.1326 23.7003 20.0333 23.9481 20.1249 24.1621C20.1935 24.3223 20.3491 24.4181 20.513 24.4181C20.5681 24.4181 20.6244 24.4071 20.6784 24.3841C20.8799 24.2979 21.0933 24.2437 21.3121 24.2228C21.5439 24.2006 21.714 23.9947 21.692 23.7629C21.6698 23.5311 21.4642 23.3612 21.2321 23.3832Z" fill="black"/>
<path d="M19.3912 26.1559C19.4105 25.9369 19.4635 25.7233 19.5485 25.5211C19.6386 25.3065 19.5378 25.0593 19.3231 24.969C19.1084 24.8789 18.8612 24.9797 18.7709 25.1944C18.6523 25.4768 18.5782 25.7751 18.551 26.0812C18.5305 26.3132 18.7017 26.518 18.9337 26.5385C18.9465 26.5398 18.959 26.5402 18.9715 26.5402C19.1875 26.5402 19.3716 26.3752 19.3912 26.1559Z" fill="black"/>
<path d="M22.8489 24.6788C23.021 24.8161 23.1702 24.9785 23.2926 25.1611C23.3739 25.2823 23.5072 25.3478 23.6432 25.3478C23.7239 25.3478 23.8056 25.3248 23.8777 25.2764C24.0711 25.1468 24.1227 24.8849 23.9931 24.6913C23.8225 24.4371 23.6147 24.2112 23.3752 24.0198C23.1932 23.8746 22.928 23.9042 22.7826 24.0862C22.6373 24.2681 22.667 24.5335 22.8489 24.6788Z" fill="black"/>
<path d="M20.3409 28.1303C20.1577 28.009 19.9944 27.8607 19.856 27.6897C19.7094 27.5087 19.444 27.4803 19.263 27.6271C19.0819 27.7735 19.0538 28.0391 19.2003 28.2202C19.393 28.4584 19.6202 28.6649 19.8758 28.8337C19.9472 28.8811 20.0281 28.9037 20.108 28.9037C20.2447 28.9037 20.379 28.8374 20.46 28.7148C20.5884 28.5205 20.5352 28.2588 20.3409 28.1303Z" fill="black"/>
<path d="M23.6519 26.3478C23.6519 26.5687 23.6185 26.7864 23.5524 26.9947C23.4818 27.2169 23.6047 27.4539 23.8266 27.5242C23.869 27.5379 23.9121 27.5442 23.9543 27.5442C24.1331 27.5442 24.299 27.4295 24.3561 27.25C24.4484 26.9591 24.4952 26.6555 24.4952 26.3478C24.4952 26.1149 24.3065 25.9262 24.0736 25.9262C23.8407 25.9262 23.6519 26.1149 23.6519 26.3478Z" fill="black"/>
<g clip-path="url(#clip1_5_12603)">
<path d="M24.6381 10.9539C24.6381 13.0178 22.9648 14.691 20.9009 14.691C18.8368 14.691 17.1638 13.0178 17.1638 10.9539C17.1638 8.8898 18.8368 7.2168 20.9009 7.2168C22.9648 7.2168 24.6381 8.8898 24.6381 10.9539Z" fill="#9A9A9A"/>
<path d="M24.6385 10.9533C24.6385 13.0177 22.9653 14.6909 20.9014 14.6909C19.8872 14.6909 18.967 14.2868 18.2939 13.6305C18.8255 13.921 19.435 14.086 20.083 14.086C22.1469 14.086 23.8201 12.4128 23.8201 10.3489C23.8201 9.29879 23.3872 8.35023 22.69 7.67105C23.851 8.30519 24.6385 9.5372 24.6385 10.9533Z" fill="#808080"/>
<path d="M23.458 10.9537C23.458 12.3656 22.3134 13.5102 20.9015 13.5102C19.4895 13.5102 18.3447 12.3656 18.3447 10.9537C18.3447 9.5417 19.4895 8.39693 20.9015 8.39693C22.3134 8.39693 23.458 9.5417 23.458 10.9537Z" fill="#E2E2E2"/>
<path d="M23.4569 10.9538C23.4569 12.3658 22.3124 13.5108 20.9004 13.5108C20.1421 13.5108 19.461 13.1805 18.9932 12.6563C19.2979 12.7848 19.6328 12.8555 19.9844 12.8555C21.3965 12.8555 22.5413 11.7108 22.5413 10.2988C22.5413 9.64533 22.2961 9.04899 21.8922 8.59702C22.8118 8.98439 23.4569 9.89362 23.4569 10.9538Z" fill="#CACACA"/>
<path d="M23.6489 31.9643H12.3699C10.0522 31.9643 8.15601 30.068 8.15601 27.7501V22.2352C8.15601 19.9175 10.0522 18.0211 12.3699 18.0211H23.6489C25.9666 18.0211 27.8628 19.9173 27.8628 22.2352V27.7501C27.8628 30.068 25.9666 31.9643 23.6489 31.9643Z" fill="#F0F0F0"/>
<path d="M27.8623 22.235V27.7499C27.8623 30.068 25.9658 31.9645 23.6484 31.9645H22.3362C24.6541 31.9645 26.5505 30.068 26.5505 27.7499V22.235C26.5505 19.9175 24.6541 18.0211 22.3362 18.0211H23.6484C25.9658 18.0211 27.8623 19.9175 27.8623 22.235Z" fill="#A0A0A0"/>
<path d="M26.0587 15.5565H10.0097C9.63679 15.5565 9.33423 15.2541 9.33423 14.881V13.6055C9.33423 13.2324 9.63679 12.9301 10.0097 12.9301H26.0587C26.4318 12.9301 26.7341 13.2324 26.7341 13.6055V14.881C26.7341 15.2541 26.4318 15.5565 26.0587 15.5565Z" fill="#C0C0C0"/>
<path d="M26.7333 13.6053V14.881C26.7333 15.2543 26.4308 15.5562 26.0581 15.5562H24.5686C24.9415 15.5562 25.244 15.2543 25.244 14.881V13.6053C25.244 13.2326 24.9415 12.9301 24.5686 12.9301H26.0581C26.4308 12.9301 26.7333 13.2326 26.7333 13.6053Z" fill="#A0A0A0"/>
<path d="M11.9004 15.5566H24.1631V18.0206H11.9004V15.5566Z" fill="#F4F4F4"/>
<path d="M22.3362 15.5566H24.163V18.0206H22.3362V15.5566Z" fill="#D7D7D7"/>
<path d="M18.2845 23.5995C18.2845 25.6634 16.6115 27.3366 14.5474 27.3366C12.4835 27.3366 10.8103 25.6634 10.8103 23.5995C10.8103 21.5356 12.4835 19.8624 14.5474 19.8624C16.6115 19.8624 18.2845 21.5356 18.2845 23.5995Z" fill="#9A9A9A"/>
<path d="M18.2848 23.5992C18.2848 25.6635 16.6116 27.3367 14.5474 27.3367C13.5334 27.3367 12.6132 26.9327 11.9399 26.2763C12.4715 26.5668 13.081 26.7318 13.7292 26.7318C15.7931 26.7318 17.4663 25.0586 17.4663 22.9947C17.4663 21.9446 17.0332 20.9961 16.336 20.3169C17.4971 20.951 18.2848 22.183 18.2848 23.5992Z" fill="#808080"/>
<path d="M17.1047 23.5995C17.1047 25.0115 15.9599 26.156 14.548 26.156C13.136 26.156 11.9915 25.0115 11.9915 23.5995C11.9915 22.1875 13.136 21.0428 14.548 21.0428C15.9599 21.0428 17.1047 22.1875 17.1047 23.5995Z" fill="#E2E2E2"/>
<path d="M17.1036 23.5989C17.1036 25.0111 15.9591 26.1559 14.5469 26.1559C13.7886 26.1559 13.1077 25.8257 12.6399 25.3014C12.9447 25.4299 13.2795 25.5009 13.6311 25.5009C15.043 25.5009 16.188 24.3561 16.188 22.9439C16.188 22.2905 15.9428 21.6941 15.539 21.2421C16.4583 21.6295 17.1036 22.5388 17.1036 23.5989Z" fill="#CACACA"/>
<path d="M25.2545 26.348C25.2545 28.4119 23.5813 30.0851 21.5174 30.0851C19.4535 30.0851 17.7803 28.4119 17.7803 26.348C17.7803 24.2838 19.4535 22.6108 21.5174 22.6108C23.5813 22.6108 25.2545 24.2838 25.2545 26.348Z" fill="#9A9A9A"/>
<path d="M25.2545 26.3474C25.2545 28.4117 23.5813 30.0849 21.5174 30.0849C20.5031 30.0849 19.5829 29.6809 18.9099 29.0245C19.4414 29.315 20.051 29.48 20.6989 29.48C22.7628 29.48 24.436 27.8068 24.436 25.7429C24.436 24.6928 24.003 23.7443 23.306 23.0651C24.4668 23.6992 25.2545 24.9312 25.2545 26.3474Z" fill="#808080"/>
<path d="M24.0745 26.3477C24.0745 27.7597 22.9299 28.9043 21.5179 28.9043C20.106 28.9043 18.9612 27.7597 18.9612 26.3477C18.9612 24.9358 20.106 23.791 21.5179 23.791C22.9299 23.791 24.0745 24.9358 24.0745 26.3477Z" fill="#E2E2E2"/>
<path d="M24.0734 26.3478C24.0734 27.7598 22.9288 28.9048 21.5168 28.9048C20.7586 28.9048 20.0774 28.5745 19.6096 28.0503C19.9144 28.1788 20.2492 28.2496 20.6008 28.2496C22.013 28.2496 23.1578 27.1048 23.1578 25.6928C23.1578 25.0394 22.9125 24.4428 22.5087 23.991C23.4282 24.3784 24.0734 25.2877 24.0734 26.3478Z" fill="#CACACA"/>
<path d="M27.8629 26.6466C28.0958 26.6466 28.2845 26.4578 28.2845 26.2249V22.2351C28.2845 19.9996 26.6941 18.1289 24.5854 17.6945V15.9786H26.0587C26.6636 15.9786 27.1558 15.4864 27.1558 14.8815V13.606C27.1558 13.0011 26.6636 12.5087 26.0587 12.5087H24.7568C24.9517 12.0282 25.0598 11.5034 25.0598 10.9537C25.0598 8.66062 23.1941 6.79492 20.901 6.79492C18.6078 6.79492 16.7421 8.66062 16.7421 10.9537C16.7421 11.5032 16.8497 12.0282 17.0442 12.5087H16.4019C16.169 12.5087 15.9803 12.6977 15.9803 12.9303C15.9803 13.1633 16.169 13.352 16.4019 13.352H26.0587C26.1984 13.352 26.3125 13.466 26.3125 13.606V14.8815C26.3125 15.0215 26.1987 15.1353 26.0587 15.1353H10.0099C9.8699 15.1353 9.75586 15.0215 9.75586 14.8815V13.606C9.75586 13.466 9.86968 13.352 10.0099 13.352H14.4765C14.7092 13.352 14.8981 13.1633 14.8981 12.9303C14.8981 12.6977 14.7092 12.5087 14.4765 12.5087H10.0099C9.40474 12.5087 8.91255 13.0009 8.91255 13.606V14.8815C8.91255 15.4864 9.40474 15.9786 10.0099 15.9786H11.4794V17.6861C9.34805 18.1027 7.73438 19.9836 7.73438 22.2351V27.75C7.73438 30.3063 9.81387 32.3858 12.3702 32.3858H23.6489C24.8008 32.3858 25.9066 31.9565 26.7634 31.1771C27.6137 30.403 28.1457 29.3527 28.261 28.2194C28.2845 27.9876 28.1158 27.7808 27.8842 27.7571C27.6521 27.7335 27.4454 27.9023 27.4219 28.1341C27.3276 29.0603 26.8923 29.9194 26.1958 30.5533C25.4947 31.1912 24.5903 31.5425 23.6489 31.5425H12.3702C10.279 31.5425 8.57769 29.8412 8.57769 27.75V22.2351C8.57769 20.144 10.279 18.4426 12.3702 18.4426H23.6489C25.7401 18.4426 27.4412 20.144 27.4412 22.2351V26.2249C27.4412 26.4578 27.63 26.6466 27.8629 26.6466ZM23.8271 12.5089H19.4396C19.3687 12.4421 19.3017 12.3714 19.2401 12.2956C19.0936 12.1145 18.8281 12.0864 18.6471 12.2329C18.5585 12.3043 18.5071 12.4043 18.4942 12.5089H17.9741C17.7264 12.0448 17.5856 11.5155 17.5856 10.9539C17.5856 9.12578 19.0729 7.63845 20.901 7.63845C22.7292 7.63845 24.2165 9.12578 24.2165 10.9539C24.2165 11.5157 24.075 12.0448 23.8271 12.5089ZM23.7421 17.5993H12.3227V15.9786H23.7421V17.5993Z" fill="black"/>
<path d="M18.6941 23.2975C18.539 21.1448 16.7392 19.4404 14.5474 19.4404C12.2544 19.4404 10.3887 21.3059 10.3887 23.5992C10.3887 25.8922 12.2544 27.7579 14.5474 27.7579C15.6364 27.7579 16.6285 27.3367 17.3707 26.6494C17.5258 28.8021 19.3256 30.5065 21.5174 30.5065C23.8104 30.5065 25.6761 28.641 25.6761 26.3477C25.6761 24.0546 23.8104 22.189 21.5174 22.189C20.4284 22.189 19.4364 22.6102 18.6941 23.2975ZM14.5474 26.9146C12.7193 26.9146 11.232 25.4273 11.232 23.5992C11.232 21.771 12.7193 20.2837 14.5474 20.2837C16.3758 20.2837 17.8631 21.771 17.8631 23.5992C17.8631 25.4273 16.3756 26.9146 14.5474 26.9146ZM24.8328 26.3477C24.8328 28.1758 23.3455 29.6632 21.5174 29.6632C19.689 29.6632 18.2019 28.1758 18.2019 26.3477C18.2019 24.5196 19.689 23.0323 21.5174 23.0323C23.3455 23.0323 24.8328 24.5196 24.8328 26.3477Z" fill="black"/>
<path d="M14.2147 21.3643V21.7718C13.799 21.9191 13.5003 22.3162 13.5003 22.7818C13.5003 23.3704 13.9775 23.8498 14.5654 23.8531C14.7471 23.8543 14.9063 23.9885 14.9267 24.1691C14.951 24.3844 14.7824 24.5675 14.5718 24.5675C14.4211 24.5675 14.2585 24.4739 14.1134 24.3037C13.9997 24.1702 13.8044 24.129 13.6538 24.2189C13.4592 24.3351 13.4218 24.5909 13.5613 24.757C13.7522 24.984 13.9768 25.1423 14.2147 25.2221V25.6278C14.2147 25.8067 14.3417 25.9668 14.5188 25.9923C14.7395 26.024 14.9289 25.8536 14.9289 25.639V25.2203C15.3446 25.0729 15.6433 24.6759 15.6433 24.2103C15.6433 23.6216 15.1661 23.1424 14.5782 23.1389C14.3965 23.1378 14.2373 23.0036 14.2169 22.823C14.1926 22.6077 14.3612 22.4246 14.5718 22.4246C14.6954 22.4246 14.8259 22.4863 14.9496 22.6032C15.0778 22.7242 15.2754 22.7483 15.4171 22.6433C15.5996 22.508 15.611 22.249 15.4549 22.0979C15.2736 21.9225 15.0922 21.8233 14.9289 21.7691V21.3533C14.9289 21.1385 14.7395 20.9681 14.5188 20.9999C14.3417 21.0253 14.2147 21.1854 14.2147 21.3643Z" fill="black"/>
<path d="M22.4332 24.488L22.2061 24.8264C21.7788 24.717 21.3096 24.8803 21.0501 25.2669C20.7221 25.7556 20.8511 26.4195 21.3374 26.75C21.4876 26.8522 21.545 27.0524 21.4613 27.2137C21.3614 27.406 21.1194 27.464 20.9446 27.3467C20.8195 27.2627 20.7367 27.0943 20.7109 26.8722C20.6909 26.6979 20.5518 26.555 20.3767 26.5457C20.1503 26.5337 19.9767 26.7252 20 26.9409C20.0319 27.2358 20.1302 27.4923 20.2833 27.6912L20.0572 28.028C19.9575 28.1766 19.9737 28.3803 20.1065 28.5002C20.2722 28.6495 20.5244 28.6136 20.644 28.4353L20.8773 28.0877C21.3046 28.1971 21.7738 28.0338 22.0333 27.6472C22.3614 27.1585 22.2323 26.4947 21.7461 26.1641C21.5958 26.0619 21.5384 25.8617 21.6222 25.7004C21.722 25.5081 21.964 25.4501 22.1388 25.5674C22.2415 25.6363 22.3155 25.7602 22.353 25.9262C22.392 26.0982 22.5426 26.2283 22.7188 26.22C22.9457 26.2095 23.0996 26.0008 23.0541 25.7883C23.0014 25.5416 22.906 25.3581 22.8006 25.2222L23.0324 24.8769C23.1521 24.6986 23.0898 24.4516 22.8888 24.355C22.7276 24.2773 22.5329 24.3395 22.4332 24.488Z" fill="black"/>
<path d="M19.2979 9.54843L19.5496 9.86887C19.3137 10.2416 19.3241 10.7382 19.6118 11.1044C19.9754 11.5673 20.6467 11.6495 21.1111 11.289C21.2547 11.1776 21.4628 11.1848 21.5904 11.3143C21.7425 11.4686 21.723 11.7167 21.5574 11.8468C21.4389 11.9399 21.2532 11.9667 21.034 11.9226C20.8621 11.8878 20.6831 11.976 20.6202 12.1397C20.5389 12.3514 20.6676 12.5756 20.8799 12.62C21.1703 12.6806 21.4446 12.6664 21.681 12.5822L21.9316 12.9012C22.0421 13.0419 22.2408 13.0893 22.3959 13C22.5891 12.8885 22.6327 12.6375 22.5001 12.4688L22.2415 12.1395C22.4774 11.7668 22.467 11.2702 22.1793 10.904C21.8157 10.4411 21.1445 10.359 20.68 10.7194C20.5364 10.8308 20.3283 10.8236 20.2007 10.6942C20.0486 10.5398 20.0681 10.2917 20.2337 10.1616C20.3309 10.0853 20.4716 10.0532 20.6411 10.0687C20.8167 10.0847 20.987 9.98158 21.0334 9.81145C21.0934 9.59235 20.9424 9.38161 20.7263 9.35923C20.4754 9.33326 20.2714 9.36731 20.1096 9.42559L19.8527 9.09857C19.72 8.92968 19.4659 8.91267 19.3119 9.07406C19.1883 9.20343 19.1873 9.40775 19.2979 9.54843Z" fill="black"/>
<g clip-path="url(#clip2_5_12603)">
<path d="M18 0.597656C8.35016 0.597656 0.527344 8.4136 0.527344 18.0549C0.527344 27.6963 8.35016 35.5119 18 35.5119C27.6498 35.5119 35.4727 27.6963 35.4727 18.0549C35.4727 8.4136 27.6498 0.597656 18 0.597656ZM4.34949 18.0549C4.34949 14.9859 5.36407 12.1542 7.07629 9.87506L26.1867 28.9688C23.906 30.6793 21.0715 31.6934 18 31.6934C10.4609 31.6934 4.34949 25.5872 4.34949 18.0549ZM28.894 26.273L9.77454 7.1705C12.0622 5.44208 14.9109 4.4165 18 4.4165C25.5391 4.4165 31.6505 10.5224 31.6505 18.0549C31.6505 21.1413 30.6238 23.9875 28.894 26.273Z" fill="#8E8E8E"/>
<path d="M18 0.597656C17.6457 0.597656 17.2944 0.609467 16.9453 0.630341C26.1041 1.17526 33.3633 8.76736 33.3633 18.0549C33.3633 27.3422 26.1041 34.9346 16.9453 35.4795C17.2944 35.5001 17.6457 35.5119 18 35.5119C27.6498 35.5119 35.4727 27.6963 35.4727 18.0549C35.4727 8.4136 27.6498 0.597656 18 0.597656Z" fill="#616161"/>
<path d="M21.5438 18.1835C21.3381 17.9778 21.0041 17.9778 20.7981 18.1841C20.5924 18.39 20.5924 18.724 20.7986 18.9298L28.5218 26.6463C28.6209 26.7454 28.7552 26.8004 28.8945 26.8004C28.9066 26.8004 28.9186 26.8001 28.9307 26.7993C29.0829 26.7885 29.223 26.7127 29.315 26.5913C31.1881 24.1164 32.1783 21.1646 32.1783 18.0547C32.1783 14.4935 30.8509 11.0894 28.4399 8.46967C26.0438 5.86591 22.7902 4.25943 19.2779 3.94577C18.9867 3.91941 18.7316 4.13419 18.7055 4.42423C18.6797 4.71427 18.8939 4.97052 19.1839 4.99634C22.4345 5.28638 25.4459 6.77366 27.6637 9.18378C29.8948 11.6085 31.1236 14.7591 31.1236 18.055C31.1236 20.7296 30.3326 23.2776 28.8294 25.4625L21.5438 18.1835Z" fill="black"/>
<path d="M17.2952 4.42391C17.2691 4.13387 17.0123 3.91964 16.7228 3.94545C14.0853 4.18111 11.573 5.15065 9.45674 6.74944C9.33507 6.84145 9.25926 6.98152 9.24855 7.13396C9.23811 7.28612 9.29414 7.43553 9.40208 7.5432L19.0613 17.1939C19.1643 17.2969 19.2991 17.3482 19.434 17.3482C19.5691 17.3482 19.704 17.2966 19.807 17.1936C20.013 16.9876 20.0127 16.6536 19.8067 16.4479L10.5864 7.23558C12.4365 5.96749 14.578 5.19597 16.8168 4.99602C17.1068 4.9702 17.321 4.71395 17.2952 4.42391Z" fill="black"/>
<path d="M7.03882 9.34896C6.88666 9.35995 6.74631 9.43603 6.65457 9.55825C4.80145 12.0247 3.82202 14.9627 3.82202 18.0548C3.82202 25.8658 10.1823 32.2206 17.9999 32.2206C21.0945 32.2206 24.0347 31.242 26.5033 29.3908C26.6255 29.2988 26.7019 29.1584 26.7129 29.006C26.7236 28.8535 26.6675 28.7039 26.5593 28.5956L7.44888 9.50195C7.34094 9.39401 7.19153 9.33853 7.03882 9.34896ZM17.9999 31.1659C10.7637 31.1659 4.87671 25.2844 4.87671 18.0548C4.87671 15.3975 5.65839 12.8629 7.14291 10.6871L25.3736 28.9019C23.1959 30.385 20.6597 31.1659 17.9999 31.1659Z" fill="black"/>
<path d="M30.7279 5.33771C27.3279 1.94101 22.8079 0.0703125 18 0.0703125C13.1921 0.0703125 8.67206 1.94101 5.27206 5.33771C1.87234 8.73468 0 13.2509 0 18.0549C0 22.6382 1.72623 27.0036 4.86035 30.3467C7.97937 33.6739 12.1959 35.68 16.733 35.9956C17.0236 36.0148 17.2755 35.7965 17.2955 35.5059C17.3158 35.2153 17.0966 34.9634 16.8061 34.9434C12.5354 34.6465 8.56631 32.7579 5.62967 29.6255C2.67957 26.4784 1.05469 22.3693 1.05469 18.0549C1.05469 13.533 2.81717 9.28152 6.01776 6.08368C9.21835 2.88611 13.4736 1.125 18 1.125C22.5264 1.125 26.7816 2.88611 29.9822 6.08368C33.1828 9.28152 34.9453 13.533 34.9453 18.0549C34.9453 22.3693 33.3204 26.4784 30.3703 29.6255C27.4337 32.7579 23.4646 34.6465 19.1939 34.9434C18.9034 34.9637 18.6842 35.2156 18.7045 35.5062C18.7237 35.7841 18.9553 35.9967 19.2299 35.9967C19.2423 35.9967 19.2546 35.9964 19.267 35.9956C23.8041 35.68 28.0206 33.6739 31.1396 30.3467C34.2738 27.0036 36 22.6382 36 18.0549C36 13.2509 34.1277 8.73468 30.7279 5.33771Z" fill="black"/>
</g>
</g>
</g>
<defs>
<clipPath id="clip0_5_12603">
<rect width="36" height="36" fill="white"/>
</clipPath>
<clipPath id="clip1_5_12603">
<rect width="36" height="36" fill="white"/>
</clipPath>
<clipPath id="clip2_5_12603">
<rect width="36" height="36" fill="white"/>
</clipPath>
</defs>
</svg>
