<svg width="36" height="36" viewBox="0 0 36 36" fill="none" xmlns="http://www.w3.org/2000/svg">
<path d="M6.58312 24.0843H4.44985C4.20707 24.0843 4.01025 23.8875 4.01025 23.6447V23.0333C4.01025 22.7905 4.20707 22.5937 4.44985 22.5937H6.58318V24.0843H6.58312Z" fill="#828282"/>
<path d="M19.5999 24.0843H21.7332C21.976 24.0843 22.1728 23.8875 22.1728 23.6447V23.0333C22.1728 22.7905 21.976 22.5937 21.7332 22.5937H19.5999V24.0843Z" fill="#828282"/>
<path d="M18.8961 20.7268C18.6353 20.2156 18.1099 19.8939 17.5361 19.8939H13.0918H8.64747C8.07366 19.8939 7.54829 20.2157 7.28746 20.7268L5.57397 24.0848H13.0918H20.6096L18.8961 20.7268Z" fill="#979797"/>
<path d="M20.6101 24.0846H19.6355L17.9221 20.7267C17.6613 20.2154 17.1358 19.894 16.562 19.894H17.5367C18.1105 19.894 18.6356 20.2154 18.8964 20.7267L20.6101 24.0846Z" fill="#474747"/>
<path d="M6.19461 31.9299H4.69813C4.31664 31.9299 4.00732 31.6206 4.00732 31.2391V27.1619H6.88536V31.2391C6.88542 31.6206 6.57615 31.9299 6.19461 31.9299Z" fill="#828282"/>
<path d="M21.4868 31.9299H19.9904C19.6089 31.9299 19.2996 31.6206 19.2996 31.2391V27.1619H22.1776V31.2391C22.1777 31.6206 21.8684 31.9299 21.4868 31.9299Z" fill="#828282"/>
<path d="M6.88492 27.1614V31.2386C6.88492 31.6202 6.57583 31.9293 6.19423 31.9293H5.42529C5.80689 31.9293 6.11598 31.6202 6.11598 31.2386V27.1614H6.88492Z" fill="#686868"/>
<path d="M22.1769 27.1614V31.2386C22.1769 31.6202 21.8678 31.9293 21.4862 31.9293H20.7173C21.0989 31.9293 21.4084 31.6202 21.4084 31.2386V27.1614H22.1769Z" fill="#686868"/>
<path d="M20.6056 24.0847H13.0927H5.57979L5.01414 24.3361C4.40186 24.6082 4.00732 25.2154 4.00732 25.8854V27.2026C4.00732 27.5569 4.14109 27.8983 4.38184 28.1583L6.59392 30.5473C6.80137 30.7713 7.09286 30.8987 7.39818 30.8987H13.0926H18.7871C19.0924 30.8987 19.3839 30.7713 19.5914 30.5473L21.8035 28.1583C22.0442 27.8982 22.178 27.5569 22.178 27.2026V25.8854C22.178 25.2154 21.7834 24.6082 21.1712 24.3361L20.6056 24.0847Z" fill="#D8D8D8"/>
<path d="M21.4591 24.5002C21.9038 24.8138 22.1772 25.3279 22.1772 25.8855V27.2029C22.1772 27.5572 22.0434 27.8983 21.8026 28.1585L19.5905 30.5474C19.3832 30.7717 19.0918 30.8989 18.7865 30.8989H7.39722C7.09195 30.8989 6.80057 30.7717 6.59318 30.5474L6.06128 29.9731C6.22429 30.0636 6.40969 30.1126 6.6001 30.1126H18.4043C18.7138 30.1126 19.0095 29.9835 19.2195 29.7565C19.8567 29.0685 20.4837 28.3912 21.1205 27.7036C21.4088 27.3922 21.4971 27.154 21.4924 26.7069L21.4591 24.5002Z" fill="#5A5A5A"/>
<path d="M13.6347 28.1133H10.1035C9.93143 28.1133 9.81049 28.2826 9.86629 28.4454L10.249 29.5614C10.2837 29.6628 10.379 29.7309 10.4862 29.7309H13.6347H15.6965C15.8037 29.7309 15.8989 29.6628 15.9337 29.5614L16.3164 28.4454C16.3722 28.2826 16.2512 28.1133 16.0792 28.1133H13.6347Z" fill="#828282"/>
<path d="M16.3177 28.446L15.935 29.5622C15.9002 29.6636 15.8047 29.7314 15.6975 29.7314H10.4875C10.38 29.7314 10.2848 29.6636 10.2501 29.5622L10.1013 29.1279C10.1059 29.1287 10.1109 29.1287 10.1159 29.1287H15.1837C15.2881 29.1287 15.3807 29.0623 15.4146 28.9637L15.706 28.1138H16.0802C16.2525 28.1138 16.3732 28.2834 16.3177 28.446Z" fill="#686868"/>
<path d="M7.21773 27.8876C7.85641 27.8876 8.37417 27.3699 8.37417 26.7312C8.37417 26.0925 7.85641 25.5747 7.21773 25.5747C6.57904 25.5747 6.06128 26.0925 6.06128 26.7312C6.06128 27.3699 6.57904 27.8876 7.21773 27.8876Z" fill="#EBEBEB"/>
<path d="M18.9662 27.8876C19.6049 27.8876 20.1227 27.3699 20.1227 26.7312C20.1227 26.0925 19.6049 25.5747 18.9662 25.5747C18.3276 25.5747 17.8098 26.0925 17.8098 26.7312C17.8098 27.3699 18.3276 27.8876 18.9662 27.8876Z" fill="#EBEBEB"/>
<path d="M24.4152 29.8338H28.4119C28.6616 29.8338 28.864 30.0362 28.864 30.2859V31.9708H23.9631V30.2859C23.9631 30.0362 24.1655 29.8338 24.4152 29.8338Z" fill="#828282"/>
<path d="M25.6101 16.7239H27.2145V29.8336H25.6101V16.7239Z" fill="#ACACAC"/>
<path d="M26.4136 16.7239H27.2157V29.8336H26.4136V16.7239Z" fill="#9C9C9C"/>
<path d="M27.8899 16.7239H24.9358C24.6511 16.7239 24.4204 16.4931 24.4204 16.2085V14.2875H28.4053V16.2085C28.4053 16.4931 28.1745 16.7239 27.8899 16.7239Z" fill="#828282"/>
<path d="M31.9645 9.55874C31.9645 12.6245 29.4792 15.1098 26.4134 15.1098C23.3476 15.1098 20.8623 12.6245 20.8623 9.55874C20.8623 6.49295 23.3476 4.00766 26.4134 4.00766C29.4792 4.00766 31.9645 6.49295 31.9645 9.55874Z" fill="white"/>
<path d="M16.0806 27.6929H10.105C9.88856 27.6929 9.68431 27.7979 9.55854 27.974C9.43276 28.1501 9.39958 28.3774 9.46978 28.5821L9.85239 29.698C9.94537 29.9694 10.2006 30.1518 10.4876 30.1518H15.6979C15.9848 30.1518 16.24 29.9694 16.333 29.6981L16.7157 28.5821C16.7858 28.3774 16.7526 28.1501 16.6269 27.974C16.5012 27.798 16.2969 27.6929 16.0806 27.6929ZM15.5766 29.3105H10.6089L10.3427 28.5341H15.8428L15.5766 29.3105Z" fill="black"/>
<path d="M7.21721 25.1544C6.34759 25.1544 5.64014 25.8619 5.64014 26.7315C5.64014 27.6011 6.34759 28.3086 7.21721 28.3086C8.08678 28.3086 8.79424 27.6011 8.79424 26.7315C8.79429 25.8619 8.08678 25.1544 7.21721 25.1544ZM7.21721 27.4673C6.81148 27.4673 6.48135 27.1372 6.48135 26.7315C6.48135 26.3258 6.81143 25.9956 7.21721 25.9956C7.623 25.9956 7.95302 26.3257 7.95302 26.7315C7.95302 27.1372 7.62294 27.4673 7.21721 27.4673Z" fill="black"/>
<path d="M18.9672 25.1544C18.0976 25.1544 17.3901 25.8619 17.3901 26.7315C17.3901 27.6011 18.0976 28.3086 18.9672 28.3086C19.8368 28.3086 20.5442 27.6011 20.5442 26.7315C20.5442 25.8619 19.8368 25.1544 18.9672 25.1544ZM18.9672 27.4673C18.5615 27.4673 18.2314 27.1372 18.2314 26.7315C18.2314 26.3258 18.5615 25.9956 18.9672 25.9956C19.3729 25.9956 19.703 26.3257 19.703 26.7315C19.703 27.1372 19.3729 27.4673 18.9672 27.4673Z" fill="black"/>
<path d="M22.5942 23.6452V23.0337C22.5942 22.5594 22.2083 22.1735 21.734 22.1735H20.1067L19.2708 20.5356C18.9365 19.8802 18.2718 19.4732 17.5361 19.4732H16.3406L15.75 19.4998C15 19.5 13.8665 19.5 13.5 19.5L11.3896 19.4732C11.0231 19.4732 11.25 19.4998 10.5 19.4998L9.76995 19.4732H8.64759C7.91195 19.4732 7.2473 19.8802 6.9129 20.5355L6.07708 22.1735H4.44977C3.97547 22.1735 3.58954 22.5594 3.58954 23.0337V23.6452C3.58954 24.0137 3.82286 24.3278 4.14917 24.4501C3.79462 24.8341 3.58594 25.3432 3.58594 25.8854V31.239C3.58594 31.8519 4.08454 32.3505 4.69732 32.3505H6.1938C6.78071 32.3505 7.26153 31.8929 7.30136 31.3159C7.33331 31.318 7.36526 31.3194 7.39743 31.3194H18.7864C18.8185 31.3194 18.8505 31.318 18.8824 31.3159C18.9222 31.8929 19.4031 32.3505 19.99 32.3505H21.4865C22.0993 32.3505 22.5979 31.8519 22.5979 31.239V30.9384C22.5979 30.7061 22.4095 30.5178 22.1772 30.5178C21.9449 30.5178 21.7566 30.7061 21.7566 30.9384V31.239C21.7566 31.388 21.6354 31.5092 21.4865 31.5092H19.99C19.841 31.5092 19.7198 31.388 19.7198 31.239V30.9977C19.7836 30.948 19.8438 30.8932 19.8993 30.8331L21.7566 28.8273V28.989C21.7566 29.2214 21.9449 29.4097 22.1773 29.4097C22.4096 29.4097 22.5979 29.2214 22.5979 28.989V25.8854C22.5979 25.3432 22.3892 24.8341 22.0347 24.4501C22.3609 24.3278 22.5942 24.0136 22.5942 23.6452ZM21.734 23.0147C21.7445 23.0147 21.753 23.0232 21.753 23.0337V23.6451C21.753 23.6556 21.7445 23.6641 21.734 23.6641H20.8673L20.536 23.0147H21.734ZM12 19.4998C11.25 19.5003 11.3454 19.4732 11.3896 19.4732H14.9292C14.9734 19.4732 14.3208 19.7802 15 19.4998L15.4084 19.4732H10.7022L12 19.4998ZM7.66226 20.9179C7.85216 20.5457 8.22971 20.3144 8.64759 20.3144H10.0326H17.5362C17.9541 20.3144 18.3317 20.5457 18.5216 20.9179L19.9229 23.6641H6.2609L7.66226 20.9179ZM4.43081 23.0337C4.43081 23.0232 4.43931 23.0147 4.44977 23.0147H5.64784L5.31647 23.6641H4.44977C4.43931 23.6641 4.43081 23.6556 4.43081 23.6451V23.0337ZM6.46397 31.239C6.46397 31.388 6.34275 31.5092 6.1938 31.5092H4.69732C4.54837 31.5092 4.42721 31.388 4.42721 31.239V28.8272L6.28453 30.8331C6.34005 30.8931 6.40024 30.9479 6.46402 30.9977L6.46397 31.239ZM21.7566 27.2026C21.7566 27.4517 21.6634 27.6897 21.4941 27.8725L19.282 30.2615C19.1546 30.3992 18.974 30.4781 18.7864 30.4781H7.39743C7.20984 30.4781 7.02928 30.3992 6.90182 30.2615L4.68973 27.8725C4.52042 27.6897 4.42721 27.4518 4.42721 27.2026V25.8854C4.42721 25.3822 4.72432 24.9249 5.18422 24.7206L5.66825 24.5054H20.5155L20.9996 24.7206C21.4594 24.925 21.7565 25.3822 21.7565 25.8854L21.7566 27.2026Z" fill="black"/>
<path d="M10.002 27.4307C10.235 27.4307 10.4238 27.2419 10.4238 27.0089V26.2319C10.4238 25.9988 10.235 25.81 10.002 25.81C9.76891 25.81 9.58008 25.9988 9.58008 26.2319V27.0089C9.58008 27.2419 9.76891 27.4307 10.002 27.4307Z" fill="black"/>
<path d="M11.5474 27.4307C11.7804 27.4307 11.9692 27.2419 11.9692 27.0089V26.2319C11.9692 25.9988 11.7804 25.81 11.5474 25.81C11.3143 25.81 11.1255 25.9988 11.1255 26.2319V27.0089C11.1255 27.2419 11.3143 27.4307 11.5474 27.4307Z" fill="black"/>
<path d="M13.0916 27.4307C13.3246 27.4307 13.5134 27.2419 13.5134 27.0089V26.2319C13.5134 25.9988 13.3246 25.81 13.0916 25.81C12.8585 25.81 12.6697 25.9988 12.6697 26.2319V27.0089C12.6697 27.2419 12.8585 27.4307 13.0916 27.4307Z" fill="black"/>
<path d="M14.6372 27.4307C14.8703 27.4307 15.0591 27.2419 15.0591 27.0089V26.2319C15.0591 25.9988 14.8703 25.81 14.6372 25.81C14.4042 25.81 14.2153 25.9988 14.2153 26.2319V27.0089C14.2153 27.2419 14.4042 27.4307 14.6372 27.4307Z" fill="black"/>
<path d="M16.1816 27.4307C16.4147 27.4307 16.6035 27.2419 16.6035 27.0089V26.2319C16.6035 25.9988 16.4147 25.81 16.1816 25.81C15.9486 25.81 15.7598 25.9988 15.7598 26.2319V27.0089C15.7598 27.2419 15.9487 27.4307 16.1816 27.4307Z" fill="black"/>
<path d="M30.3754 9.56263C30.3754 11.8429 28.5269 13.6914 26.2467 13.6914C23.9664 13.6914 22.1179 11.8429 22.1179 9.56263C22.1179 7.28239 23.9664 5.43388 26.2467 5.43388C28.5269 5.43388 30.3754 7.28239 30.3754 9.56263Z" fill="#505050"/>
<path d="M25.9833 11.5312V10.4502C26.1773 10.4492 26.3857 10.4484 26.5064 10.4484C27.33 10.4484 28 9.78721 28 8.97447C28 8.16177 27.33 7.50061 26.5064 7.50061C26.5064 7.50061 25.4837 7.49906 25.4684 7.50061C25.2516 7.52196 25.0698 7.70821 25.0483 7.92386C25.0475 7.93164 25.046 11.5312 25.046 11.5312C25.046 11.7897 25.2562 11.9999 25.5147 11.9999C25.7731 11.9999 25.9833 11.7896 25.9833 11.5312ZM26.5064 8.43803C26.8079 8.43803 27.0626 8.68368 27.0626 8.97447C27.0626 9.26525 26.8079 9.51095 26.5064 9.51095C26.405 9.51095 26.2278 9.51158 25.9877 9.5128C25.9867 9.3206 25.9859 9.10186 25.9859 8.97451C25.9859 8.86851 25.9854 8.64663 25.9848 8.43807L26.5064 8.43803Z" fill="white"/>
<path d="M27.8892 17.1459C28.406 17.1459 28.8265 16.7254 28.8265 16.2086V15.0216C30.9207 14.0924 32.3852 11.9936 32.3852 9.5589C32.3852 6.2654 29.7057 3.58594 26.4122 3.58594C25.5217 3.58594 24.6649 3.7773 23.8654 4.15468C23.6547 4.25413 23.5645 4.50557 23.664 4.71622C23.7635 4.92705 24.0149 5.01711 24.2255 4.91766C24.9115 4.59388 25.6472 4.42969 26.4122 4.42969C29.2404 4.42969 31.5414 6.73065 31.5414 9.55895C31.5414 12.3873 29.2405 14.6882 26.4122 14.6882C23.5839 14.6882 21.283 12.3873 21.283 9.55895C21.283 8.20541 21.8055 6.92837 22.7542 5.96329C22.9175 5.79712 22.9153 5.53005 22.7491 5.3667C22.583 5.20335 22.3158 5.2056 22.1525 5.37182C21.0477 6.49569 20.4392 7.98277 20.4392 9.55895C20.4392 11.9937 21.9037 14.0925 23.9979 15.0216V16.2087C23.9979 16.7255 24.4183 17.1459 24.9352 17.1459H25.1881V29.412H24.4138C23.9319 29.412 23.5398 29.8041 23.5398 30.286V31.9709C23.5398 32.2039 23.7287 32.3928 23.9617 32.3928H28.8626C29.0956 32.3928 29.2845 32.2039 29.2845 31.9709V30.286C29.2845 29.8041 28.8924 29.412 28.4105 29.412H27.6362V17.1459H27.8892ZM28.4105 30.2557C28.4272 30.2557 28.4407 30.2692 28.4407 30.2859V31.549H24.3836V30.2859C24.3836 30.2692 24.3971 30.2557 24.4138 30.2557H28.4105ZM26.0319 29.4119V17.1459H26.7924V29.4119H26.0319ZM27.2143 16.3021H25.61H24.9352C24.8836 16.3021 24.8417 16.2602 24.8417 16.2086V15.3219C25.3424 15.4585 25.8688 15.5319 26.4122 15.5319C26.9556 15.5319 27.4822 15.4585 27.9828 15.3219V16.2086C27.9828 16.2602 27.9409 16.3021 27.8892 16.3021H27.2143Z" fill="black"/>
</svg>
