<svg width="36" height="36" viewBox="0 0 36 36" fill="none" xmlns="http://www.w3.org/2000/svg">
<path d="M25.5817 12.1412H22.2612C21.7962 12.1412 21.4192 12.5182 21.4192 12.9832V13.9994C21.4192 14.4643 21.7962 14.8414 22.2612 14.8414H25.5817C26.0466 14.8414 26.4237 14.4643 26.4237 13.9994V12.9832C26.4237 12.5182 26.0466 12.1412 25.5817 12.1412Z" fill="#FFC15A"/>
<path d="M19.6173 13.0414H21.4191V14.8414H19.6173C19.1203 14.8414 18.7173 14.4386 18.7173 13.9414C18.7173 13.4444 19.1203 13.0414 19.6173 13.0414Z" fill="#AAC0C1"/>
<path d="M30.5863 28.6212C30.5863 30.1122 29.3774 31.3212 27.8863 31.3212C26.3952 31.3212 25.1863 30.1122 25.1863 28.6212C25.1863 27.1299 26.3952 25.9211 27.8863 25.9211C29.3774 25.9211 30.5863 27.1299 30.5863 28.6212Z" fill="#AAC0C1"/>
<path d="M31.8305 26.8189H23.8586C23.4666 27.515 22.7299 27.9457 21.9312 27.9457H4.15552V27.5205C4.15552 23.0965 7.74189 19.5101 12.1659 19.5101H16.1559C16.7821 19.5101 17.2897 20.0177 17.2897 20.6439V25.6957H20.283C21.2992 25.6957 22.2355 25.1433 22.727 24.2536C22.9549 23.8412 23.0749 23.3775 23.0753 22.9062L23.0834 14.8412H25.0803L26.6364 21.8715H26.8829C29.6155 21.8715 31.8305 24.0866 31.8305 26.8189Z" fill="#FFC15A"/>
<path d="M13.2616 28.6212C13.2616 30.1122 12.0526 31.3212 10.5616 31.3212C9.07051 31.3212 7.86157 30.1122 7.86157 28.6212C7.86157 27.1299 9.07051 25.9211 10.5616 25.9211C12.0526 25.9211 13.2616 27.1299 13.2616 28.6212Z" fill="#AAC0C1"/>
<path d="M14.7248 27.9459C14.7248 25.646 12.8606 23.7816 10.5608 23.7816C9.59133 23.7816 8.69924 24.113 7.9915 24.6687C7.99128 24.6689 7.99106 24.6691 7.99084 24.6691C7.02009 25.4316 6.39673 26.6159 6.39673 27.9459H14.7248Z" fill="#FFE6C0"/>
<path d="M28.6741 14.5955H27.5491C26.9277 14.5955 26.4241 14.0919 26.4241 13.4705C26.4241 12.8491 26.9277 12.3455 27.5491 12.3455H28.6741V14.5955Z" fill="#EFF3F3"/>
<path d="M16.8043 19.5094H5.46069C4.83953 19.5094 4.33569 19.0056 4.33569 18.3844C4.33569 17.763 4.83953 17.2594 5.46069 17.2594H16.8043C17.4257 17.2594 17.9293 17.763 17.9293 18.3844C17.9293 19.0056 17.4257 19.5094 16.8043 19.5094Z" fill="#AAC0C1"/>
<path d="M15.8787 30.7564C15.7306 30.7564 15.5855 30.8166 15.481 30.9212C15.3764 31.0258 15.3162 31.171 15.3162 31.3189C15.3162 31.4668 15.3764 31.612 15.481 31.7166C15.5855 31.8212 15.7306 31.8814 15.8787 31.8814C16.0265 31.8814 16.1716 31.8212 16.2764 31.7166C16.381 31.612 16.4412 31.4675 16.4412 31.3189C16.4412 31.171 16.381 31.0258 16.2764 30.9212C16.1716 30.8166 16.0265 30.7564 15.8787 30.7564Z" fill="black"/>
<path d="M27.0823 21.313L25.7714 15.3907C26.1251 15.3428 26.4372 15.1628 26.6567 14.9022C26.9157 15.0642 27.2214 15.1582 27.5488 15.1582H28.6738C28.9845 15.1582 29.2363 14.9064 29.2363 14.5957V12.3457C29.2363 12.035 28.9845 11.7832 28.6738 11.7832H27.5488C27.2117 11.7832 26.8975 11.883 26.6336 12.0541C26.3761 11.763 26.0001 11.5789 25.5818 11.5789H22.2613C21.6647 11.5789 21.1541 11.9531 20.9508 12.4789H19.6175C18.8111 12.4789 18.155 13.135 18.155 13.9414C18.155 14.7478 18.8111 15.4039 19.6175 15.4039H22.5128V16.5374C22.5128 16.8481 22.7647 17.0999 23.0753 17.0999C23.386 17.0999 23.6378 16.8481 23.6378 16.5374V15.4039H24.6222L26.0342 21.7836L23.3619 26.5433C23.0698 27.0615 22.5192 27.3834 21.9244 27.3834H15.2533C14.974 25.0413 12.9772 23.2191 10.5613 23.2191C9.4923 23.2191 8.48375 23.5674 7.64462 24.2261L7.64132 24.2287C6.64222 25.0145 6.01425 26.1421 5.86791 27.3834H4.71258C4.78597 23.3395 8.09835 20.0726 12.1591 20.0726H16.1493C16.4642 20.0726 16.7206 20.329 16.7206 20.6441V25.6959C16.7206 26.0065 16.9724 26.2584 17.2831 26.2584H20.2762C21.4973 26.2584 22.6225 25.5943 23.2127 24.5258C23.4858 24.0314 23.6306 23.4716 23.631 22.9071L23.6339 21.0383C23.6343 20.7276 23.3827 20.4754 23.072 20.4749C22.7618 20.4749 22.5093 20.7263 22.5089 21.0365L22.506 22.9058C22.5058 23.2811 22.4096 23.6533 22.2281 23.9818C21.8356 24.6919 21.0877 25.1331 20.2762 25.1331H17.8456V20.6439C17.8456 20.3558 17.7731 20.0843 17.6459 19.8463C18.1513 19.5543 18.4923 19.0085 18.4923 18.3842C18.4923 17.4537 17.7351 16.6967 16.8048 16.6967H4.14859C3.95127 16.6967 3.76209 16.731 3.58609 16.7934L3.58607 17.7649C3.58607 16.8344 3.58608 17.0911 3.62692 14.8018L3.75 16.4993C3.73308 16.5529 3.62648 14.7326 3.62648 14.7917C3.58975 17.0793 3.58915 17.1671 3.62692 14.8018C3.60011 15.0171 3.58607 17.5428 3.58607 17.7649L3.58594 17.3313L3.58627 18.3844C3.58627 19.2293 4.21051 19.9311 5.02196 20.0531L6.26759 21.2987C4.61722 22.8623 3.58627 25.0731 3.58627 27.5207V27.9459C3.58627 28.2565 3.83807 28.5084 4.14877 28.5084H7.30997C7.30272 28.5446 7.29877 28.5824 7.29877 28.6208C7.29877 29.4371 7.60089 30.184 8.09835 30.7566H4.14877C3.83807 30.7566 3.58627 31.0086 3.58627 31.3191C3.58627 31.6298 3.83807 31.8816 4.14877 31.8816H10.4962C10.518 31.8823 10.5395 31.8834 10.5613 31.8834C12.3602 31.8834 13.8238 30.4198 13.8238 28.6208C13.8238 28.5824 13.8198 28.5446 13.8126 28.5084H21.9244C22.8101 28.5084 23.6378 28.0838 24.1566 27.3816H24.869C24.7088 27.7714 24.6238 28.1915 24.6238 28.6208C24.6238 29.4371 24.9259 30.184 25.4233 30.7566H18.1286C17.8179 30.7566 17.5661 31.0086 17.5661 31.3191C17.5661 31.6298 17.8179 31.8816 18.1286 31.8816H27.8212C27.843 31.8823 27.8645 31.8834 27.8863 31.8834C29.6852 31.8834 31.1488 30.4198 31.1488 28.6208C31.1488 28.1915 31.0638 27.7714 30.9036 27.3816H31.8238C32.1345 27.3816 32.3863 27.1298 32.3863 26.8191C32.3863 23.8499 30.0253 21.4217 27.0823 21.313ZM5.25017 17.8219H16.8048C17.1148 17.8219 17.3673 18.0742 17.3673 18.3844C17.3673 18.6945 17.1148 18.9469 16.8048 18.9469H5.25017C4.93991 18.9469 4.68767 18.6945 4.68767 18.3844C4.68767 18.0742 4.93991 17.8219 5.25017 17.8219ZM6.6319 20.0719H7.91906C7.64879 20.2262 7.38798 20.3952 7.13705 20.5771L6.6319 20.0719ZM12.6988 28.6208C12.6988 29.7922 11.7515 30.746 10.583 30.7577C10.5758 30.7575 10.5685 30.7566 10.5613 30.7566H10.4964C9.34772 30.7221 8.42377 29.7777 8.42377 28.6208C8.42377 28.5824 8.41981 28.5446 8.41256 28.5084H12.71C12.7027 28.5446 12.6988 28.5824 12.6988 28.6208ZM7.00301 27.3834C7.14232 26.4897 7.61166 25.6824 8.33654 25.1131L8.34159 25.1094C8.98012 24.6089 9.74762 24.3441 10.5613 24.3441C12.356 24.3441 13.8482 25.6636 14.1191 27.3834H7.00301ZM27.5488 12.9082H28.1113V14.0332H27.5488C27.2385 14.0332 26.9863 13.781 26.9863 13.4707C26.9863 13.1607 27.2385 12.9082 27.5488 12.9082ZM19.28 13.9414C19.28 13.7552 19.4314 13.6039 19.6175 13.6039H20.8568V13.9994C20.8568 14.0952 20.8664 14.1885 20.8847 14.2789H19.6175C19.4314 14.2789 19.28 14.1275 19.28 13.9414ZM23.0753 14.2789H22.2613C22.1072 14.2789 21.9818 14.1536 21.9818 13.9994V12.9833C21.9818 12.8293 22.1072 12.7039 22.2613 12.7039H25.5818C25.7358 12.7039 25.8613 12.8293 25.8613 12.9833V13.9994C25.8613 14.1536 25.7358 14.2789 25.5818 14.2789H23.0753ZM30.0238 28.6208C30.0238 29.7922 29.0765 30.746 27.908 30.7577C27.9008 30.7575 27.8935 30.7566 27.8863 30.7566H27.8215C26.6727 30.7221 25.7488 29.7777 25.7488 28.6208C25.7488 28.1739 25.8881 27.7419 26.1447 27.3816H29.6278C29.8845 27.7419 30.0238 28.1739 30.0238 28.6208ZM24.8129 26.2566L26.9579 22.4362C29.1484 22.4764 30.9519 24.1299 31.2253 26.2566H24.8129Z" fill="black"/>
<path d="M23.0758 19.3501C23.3865 19.3501 23.6383 19.0983 23.6383 18.7876C23.6383 18.4769 23.3865 18.2251 23.0758 18.2251H23.0738C22.7631 18.2251 22.5122 18.4769 22.5122 18.7876C22.5122 19.0983 22.7651 19.3501 23.0758 19.3501Z" fill="black"/>
<path d="M5.96873 4.5H3.5637C3.25242 4.5 3 4.75235 3 5.0637V9.87372C3 10.185 3.25235 10.4374 3.5637 10.4374C3.87504 10.4374 4.12739 10.1851 4.12739 9.87372V8.03237H5.36749C5.67877 8.03237 5.93119 7.78002 5.93119 7.46867C5.93119 7.15733 5.67884 6.90498 5.36749 6.90498H4.12739V5.62739H5.96873C6.28001 5.62739 6.53243 5.37504 6.53243 5.0637C6.53236 4.75242 6.28001 4.5 5.96873 4.5Z" fill="black"/>
<path d="M10.4044 8.29668C10.9685 7.92718 11.3422 7.29001 11.3422 6.56684C11.3422 5.42714 10.415 4.5 9.27533 4.5H7.77219C7.46092 4.5 7.2085 4.75235 7.2085 5.0637V9.87372C7.2085 10.185 7.46085 10.4374 7.77219 10.4374C8.08354 10.4374 8.33589 10.1851 8.33589 9.87372V8.63362H9.27428L10.3094 10.1863C10.4181 10.3492 10.5967 10.4374 10.7789 10.4374C10.8864 10.4374 10.995 10.4068 11.091 10.3426C11.3501 10.17 11.4201 9.82 11.2473 9.56104L10.4044 8.29668ZM9.27533 7.50629H8.33589V5.62739H9.27533C9.7934 5.62739 10.2148 6.04878 10.2148 6.56684C10.2148 7.08491 9.7934 7.50629 9.27533 7.50629Z" fill="black"/>
<path d="M14.9863 9.3101H13.145V8.03054C13.1574 8.03139 13.1699 8.03244 13.1825 8.03244H14.385C14.6963 8.03244 14.9487 7.78009 14.9487 7.46875C14.9487 7.1574 14.6963 6.90505 14.385 6.90505H13.1825C13.1698 6.90505 13.1574 6.9061 13.145 6.90695V5.62739H14.9863C15.2976 5.62739 15.55 5.37504 15.55 5.0637C15.55 4.75242 15.2976 4.5 14.9863 4.5H12.5813C12.27 4.5 12.0176 4.75235 12.0176 5.0637V9.87372C12.0176 10.185 12.2699 10.4374 12.5813 10.4374H14.9863C15.2976 10.4374 15.55 10.1851 15.55 9.87372C15.55 9.56238 15.2976 9.3101 14.9863 9.3101Z" fill="black"/>
<path d="M19.1963 9.3101H17.3549V8.03244H17.9938C18.3051 8.03244 18.5575 7.78009 18.5575 7.46875C18.5575 7.1574 18.3051 6.90505 17.9938 6.90505H17.3549V5.62739H19.1963C19.5075 5.62739 19.76 5.37504 19.76 5.0637C19.76 4.75242 19.5076 4.5 19.1963 4.5H16.7912C16.48 4.5 16.2275 4.75235 16.2275 5.0637V9.87372C16.2275 10.185 16.4799 10.4374 16.7912 10.4374H19.1963C19.5075 10.4374 19.76 10.1851 19.76 9.87372C19.76 9.56238 19.5075 9.3101 19.1963 9.3101Z" fill="black"/>
</svg>
