<svg width="36" height="36" viewBox="0 0 36 36" fill="none" xmlns="http://www.w3.org/2000/svg">
<path d="M24.6381 10.9542C24.6381 13.018 22.9648 14.6913 20.9009 14.6913C18.8368 14.6913 17.1638 13.018 17.1638 10.9542C17.1638 8.89004 18.8368 7.21704 20.9009 7.21704C22.9648 7.21704 24.6381 8.89004 24.6381 10.9542Z" fill="#FFAA00"/>
<path d="M24.6385 10.9536C24.6385 13.0179 22.9653 14.6911 20.9014 14.6911C19.8872 14.6911 18.967 14.2871 18.2939 13.6307C18.8255 13.9212 19.435 14.0862 20.083 14.0862C22.1469 14.0862 23.8201 12.413 23.8201 10.3491C23.8201 9.29904 23.3872 8.35047 22.69 7.6713C23.851 8.30543 24.6385 9.53744 24.6385 10.9536Z" fill="#FF9500"/>
<path d="M23.458 10.9539C23.458 12.3659 22.3134 13.5104 20.9015 13.5104C19.4895 13.5104 18.3447 12.3659 18.3447 10.9539C18.3447 9.54195 19.4895 8.39717 20.9015 8.39717C22.3134 8.39717 23.458 9.54195 23.458 10.9539Z" fill="#FFCD6B"/>
<path d="M23.4569 10.9541C23.4569 12.366 22.3124 13.511 20.9004 13.511C20.1421 13.511 19.461 13.1808 18.9932 12.6565C19.2979 12.785 19.6328 12.8558 19.9844 12.8558C21.3965 12.8558 22.5413 11.711 22.5413 10.299C22.5413 9.64558 22.2961 9.04924 21.8922 8.59726C22.8118 8.98464 23.4569 9.89387 23.4569 10.9541Z" fill="#FFC143"/>
<path d="M23.6489 31.9645H12.3699C10.0522 31.9645 8.15601 30.0683 8.15601 27.7504V22.2355C8.15601 19.9178 10.0522 18.0213 12.3699 18.0213H23.6489C25.9666 18.0213 27.8628 19.9176 27.8628 22.2355V27.7504C27.8628 30.0683 25.9666 31.9645 23.6489 31.9645Z" fill="#E6F2EC"/>
<path d="M27.8623 22.2352V27.7502C27.8623 30.0683 25.9658 31.9647 23.6484 31.9647H22.3362C24.6541 31.9647 26.5505 30.0683 26.5505 27.7502V22.2352C26.5505 19.9178 24.6541 18.0213 22.3362 18.0213H23.6484C25.9658 18.0213 27.8623 19.9178 27.8623 22.2352Z" fill="#D5E2DB"/>
<path d="M26.0587 15.5567H10.0097C9.63679 15.5567 9.33423 15.2544 9.33423 14.8813V13.6058C9.33423 13.2327 9.63679 12.9303 10.0097 12.9303H26.0587C26.4318 12.9303 26.7341 13.2327 26.7341 13.6058V14.8813C26.7341 15.2544 26.4318 15.5567 26.0587 15.5567Z" fill="#E6F2EC"/>
<path d="M26.7333 13.6055V14.8813C26.7333 15.2546 26.4308 15.5565 26.0581 15.5565H24.5686C24.9415 15.5565 25.244 15.2546 25.244 14.8813V13.6055C25.244 13.2329 24.9415 12.9303 24.5686 12.9303H26.0581C26.4308 12.9303 26.7333 13.2329 26.7333 13.6055Z" fill="#D5E2DB"/>
<path d="M11.9004 15.5568H24.1631V18.0208H11.9004V15.5568Z" fill="#BECECC"/>
<path d="M22.3362 15.5568H24.163V18.0208H22.3362V15.5568Z" fill="#AAC1BE"/>
<path d="M18.2845 23.5998C18.2845 25.6637 16.6115 27.3369 14.5474 27.3369C12.4835 27.3369 10.8103 25.6637 10.8103 23.5998C10.8103 21.5359 12.4835 19.8626 14.5474 19.8626C16.6115 19.8626 18.2845 21.5359 18.2845 23.5998Z" fill="#FFAA00"/>
<path d="M18.2848 23.5994C18.2848 25.6638 16.6116 27.337 14.5474 27.337C13.5334 27.337 12.6132 26.9329 11.9399 26.2766C12.4715 26.5671 13.081 26.7321 13.7292 26.7321C15.7931 26.7321 17.4663 25.0588 17.4663 22.995C17.4663 21.9449 17.0332 20.9963 16.336 20.3171C17.4971 20.9513 18.2848 22.1833 18.2848 23.5994Z" fill="#FF9500"/>
<path d="M17.1047 23.5998C17.1047 25.0117 15.9599 26.1563 14.548 26.1563C13.136 26.1563 11.9915 25.0117 11.9915 23.5998C11.9915 22.1878 13.136 21.043 14.548 21.043C15.9599 21.043 17.1047 22.1878 17.1047 23.5998Z" fill="#FFCD6B"/>
<path d="M17.1036 23.5992C17.1036 25.0114 15.9591 26.1561 14.5469 26.1561C13.7886 26.1561 13.1077 25.8259 12.6399 25.3016C12.9447 25.4302 13.2795 25.5011 13.6311 25.5011C15.043 25.5011 16.188 24.3564 16.188 22.9442C16.188 22.2907 15.9428 21.6944 15.539 21.2424C16.4583 21.6298 17.1036 22.539 17.1036 23.5992Z" fill="#FFC143"/>
<path d="M25.2545 26.3482C25.2545 28.4121 23.5813 30.0853 21.5174 30.0853C19.4535 30.0853 17.7803 28.4121 17.7803 26.3482C17.7803 24.2841 19.4535 22.6111 21.5174 22.6111C23.5813 22.6111 25.2545 24.2841 25.2545 26.3482Z" fill="#FFAA00"/>
<path d="M25.2545 26.3476C25.2545 28.412 23.5813 30.0852 21.5174 30.0852C20.5031 30.0852 19.5829 29.6811 18.9099 29.0248C19.4414 29.3153 20.051 29.4803 20.6989 29.4803C22.7628 29.4803 24.436 27.8071 24.436 25.7432C24.436 24.6931 24.003 23.7445 23.306 23.0654C24.4668 23.6995 25.2545 24.9315 25.2545 26.3476Z" fill="#FF9500"/>
<path d="M24.0745 26.348C24.0745 27.7599 22.9299 28.9045 21.5179 28.9045C20.106 28.9045 18.9612 27.7599 18.9612 26.348C18.9612 24.936 20.106 23.7912 21.5179 23.7912C22.9299 23.7912 24.0745 24.936 24.0745 26.348Z" fill="#FFCD6B"/>
<path d="M24.0734 26.3481C24.0734 27.76 22.9288 28.905 21.5168 28.905C20.7586 28.905 20.0774 28.5748 19.6096 28.0505C19.9144 28.1791 20.2492 28.2498 20.6008 28.2498C22.013 28.2498 23.1578 27.105 23.1578 25.6931C23.1578 25.0396 22.9125 24.443 22.5087 23.9913C23.4282 24.3787 24.0734 25.2879 24.0734 26.3481Z" fill="#FFC143"/>
<path d="M27.8629 26.6468C28.0958 26.6468 28.2845 26.4581 28.2845 26.2251V22.2354C28.2845 19.9999 26.6941 18.1291 24.5854 17.6947V15.9789H26.0587C26.6636 15.9789 27.1558 15.4867 27.1558 14.8818V13.6063C27.1558 13.0013 26.6636 12.5089 26.0587 12.5089H24.7568C24.9517 12.0284 25.0598 11.5037 25.0598 10.9539C25.0598 8.66086 23.1941 6.79517 20.901 6.79517C18.6078 6.79517 16.7421 8.66086 16.7421 10.9539C16.7421 11.5035 16.8497 12.0284 17.0442 12.5089H16.4019C16.169 12.5089 15.9803 12.6979 15.9803 12.9306C15.9803 13.1635 16.169 13.3522 16.4019 13.3522H26.0587C26.1984 13.3522 26.3125 13.4663 26.3125 13.6063V14.8818C26.3125 15.0217 26.1987 15.1355 26.0587 15.1355H10.0099C9.8699 15.1355 9.75586 15.0217 9.75586 14.8818V13.6063C9.75586 13.4663 9.86968 13.3522 10.0099 13.3522H14.4765C14.7092 13.3522 14.8981 13.1635 14.8981 12.9306C14.8981 12.6979 14.7092 12.5089 14.4765 12.5089H10.0099C9.40474 12.5089 8.91255 13.0011 8.91255 13.6063V14.8818C8.91255 15.4867 9.40474 15.9789 10.0099 15.9789H11.4794V17.6864C9.34805 18.103 7.73438 19.9838 7.73438 22.2354V27.7503C7.73438 30.3066 9.81387 32.3861 12.3702 32.3861H23.6489C24.8008 32.3861 25.9066 31.9567 26.7634 31.1773C27.6137 30.4032 28.1457 29.353 28.261 28.2196C28.2845 27.9878 28.1158 27.781 27.8842 27.7573C27.6521 27.7338 27.4454 27.9025 27.4219 28.1344C27.3276 29.0605 26.8923 29.9196 26.1958 30.5535C25.4947 31.1914 24.5903 31.5428 23.6489 31.5428H12.3702C10.279 31.5428 8.57769 29.8414 8.57769 27.7503V22.2354C8.57769 20.1442 10.279 18.4429 12.3702 18.4429H23.6489C25.7401 18.4429 27.4412 20.1442 27.4412 22.2354V26.2251C27.4412 26.4581 27.63 26.6468 27.8629 26.6468ZM23.8271 12.5092H19.4396C19.3687 12.4424 19.3017 12.3716 19.2401 12.2958C19.0936 12.1147 18.8281 12.0866 18.6471 12.2332C18.5585 12.3046 18.5071 12.4046 18.4942 12.5092H17.9741C17.7264 12.0451 17.5856 11.5158 17.5856 10.9542C17.5856 9.12603 19.0729 7.6387 20.901 7.6387C22.7292 7.6387 24.2165 9.12603 24.2165 10.9542C24.2165 11.516 24.075 12.0451 23.8271 12.5092ZM23.7421 17.5996H12.3227V15.9789H23.7421V17.5996Z" fill="black"/>
<path d="M18.6941 23.2977C18.539 21.1451 16.7392 19.4406 14.5474 19.4406C12.2544 19.4406 10.3887 21.3061 10.3887 23.5994C10.3887 25.8925 12.2544 27.7582 14.5474 27.7582C15.6364 27.7582 16.6285 27.3369 17.3707 26.6496C17.5258 28.8023 19.3256 30.5067 21.5174 30.5067C23.8104 30.5067 25.6761 28.6412 25.6761 26.348C25.6761 24.0549 23.8104 22.1892 21.5174 22.1892C20.4284 22.1892 19.4364 22.6104 18.6941 23.2977ZM14.5474 26.9149C12.7193 26.9149 11.232 25.4275 11.232 23.5994C11.232 21.7713 12.7193 20.2839 14.5474 20.2839C16.3758 20.2839 17.8631 21.7713 17.8631 23.5994C17.8631 25.4275 16.3756 26.9149 14.5474 26.9149ZM24.8328 26.348C24.8328 28.1761 23.3455 29.6634 21.5174 29.6634C19.689 29.6634 18.2019 28.1761 18.2019 26.348C18.2019 24.5198 19.689 23.0325 21.5174 23.0325C23.3455 23.0325 24.8328 24.5198 24.8328 26.348Z" fill="black"/>
<path d="M14.2147 21.3645V21.772C13.799 21.9194 13.5003 22.3164 13.5003 22.7821C13.5003 23.3707 13.9775 23.85 14.5654 23.8534C14.7471 23.8545 14.9063 23.9888 14.9267 24.1693C14.951 24.3847 14.7824 24.5677 14.5718 24.5677C14.4211 24.5677 14.2585 24.4741 14.1134 24.304C13.9997 24.1704 13.8044 24.1293 13.6538 24.2191C13.4592 24.3354 13.4218 24.5912 13.5613 24.7572C13.7522 24.9843 13.9768 25.1425 14.2147 25.2224V25.628C14.2147 25.8069 14.3417 25.967 14.5188 25.9925C14.7395 26.0242 14.9289 25.8538 14.9289 25.6392V25.2205C15.3446 25.0732 15.6433 24.6762 15.6433 24.2105C15.6433 23.6219 15.1661 23.1427 14.5782 23.1392C14.3965 23.1381 14.2373 23.0038 14.2169 22.8232C14.1926 22.6079 14.3612 22.4248 14.5718 22.4248C14.6954 22.4248 14.8259 22.4865 14.9496 22.6035C15.0778 22.7244 15.2754 22.7486 15.4171 22.6435C15.5996 22.5083 15.611 22.2493 15.4549 22.0981C15.2736 21.9227 15.0922 21.8235 14.9289 21.7694V21.3535C14.9289 21.1387 14.7395 20.9684 14.5188 21.0002C14.3417 21.0256 14.2147 21.1856 14.2147 21.3645Z" fill="black"/>
<path d="M22.4332 24.4883L22.2061 24.8266C21.7788 24.7173 21.3096 24.8805 21.0501 25.2672C20.7221 25.7559 20.8511 26.4198 21.3374 26.7502C21.4876 26.8524 21.545 27.0526 21.4613 27.2139C21.3614 27.4062 21.1194 27.4643 20.9446 27.3469C20.8195 27.2629 20.7367 27.0946 20.7109 26.8725C20.6909 26.6982 20.5518 26.5552 20.3767 26.5459C20.1503 26.5339 19.9767 26.7255 20 26.9411C20.0319 27.2361 20.1302 27.4926 20.2833 27.6915L20.0572 28.0283C19.9575 28.1768 19.9737 28.3805 20.1065 28.5004C20.2722 28.6497 20.5244 28.6138 20.644 28.4356L20.8773 28.088C21.3046 28.1973 21.7738 28.0341 22.0333 27.6474C22.3614 27.1587 22.2323 26.4949 21.7461 26.1644C21.5958 26.0622 21.5384 25.862 21.6222 25.7007C21.722 25.5084 21.964 25.4503 22.1388 25.5677C22.2415 25.6366 22.3155 25.7605 22.353 25.9265C22.392 26.0984 22.5426 26.2286 22.7188 26.2203C22.9457 26.2097 23.0996 26.0011 23.0541 25.7885C23.0014 25.5419 22.906 25.3584 22.8006 25.2224L23.0324 24.8771C23.1521 24.6988 23.0898 24.4518 22.8888 24.3552C22.7276 24.2776 22.5329 24.3397 22.4332 24.4883Z" fill="black"/>
<path d="M19.2979 9.54868L19.5496 9.86911C19.3137 10.2418 19.3241 10.7385 19.6118 11.1047C19.9754 11.5676 20.6467 11.6498 21.1111 11.2892C21.2547 11.1779 21.4628 11.1851 21.5904 11.3145C21.7425 11.4688 21.723 11.7169 21.5574 11.847C21.4389 11.9401 21.2532 11.9669 21.034 11.9228C20.8621 11.888 20.6831 11.9763 20.6202 12.14C20.5389 12.3516 20.6676 12.5759 20.8799 12.6203C21.1703 12.6809 21.4446 12.6666 21.681 12.5824L21.9316 12.9014C22.0421 13.0421 22.2408 13.0895 22.3959 13.0002C22.5891 12.8887 22.6327 12.6378 22.5001 12.469L22.2415 12.1398C22.4774 11.7671 22.467 11.2704 22.1793 10.9042C21.8157 10.4413 21.1445 10.3592 20.68 10.7197C20.5364 10.831 20.3283 10.8238 20.2007 10.6944C20.0486 10.5401 20.0681 10.292 20.2337 10.1619C20.3309 10.0855 20.4716 10.0534 20.6411 10.069C20.8167 10.0849 20.987 9.98182 21.0334 9.81169C21.0934 9.5926 20.9424 9.38185 20.7263 9.35947C20.4754 9.33351 20.2714 9.36755 20.1096 9.42583L19.8527 9.09881C19.72 8.92992 19.4659 8.91291 19.3119 9.07431C19.1883 9.20367 19.1873 9.40799 19.2979 9.54868Z" fill="black"/>
</svg>
