<svg width="36" height="36" viewBox="0 0 36 36" fill="none" xmlns="http://www.w3.org/2000/svg">
<path d="M4.75 10.5C4.75 10.0858 5.08578 9.75 5.5 9.75H31.3C31.7142 9.75 32.05 10.0858 32.05 10.5V26.4C32.05 26.8142 31.7142 27.15 31.3 27.15H5.5C5.08579 27.15 4.75 26.8142 4.75 26.4V10.5Z" fill="black" stroke="black" stroke-width="1.5" stroke-linejoin="bevel"/>
<path fill-rule="evenodd" clip-rule="evenodd" d="M5.34961 11.3501C5.34961 10.7978 5.79732 10.3501 6.34961 10.3501H30.45C31.0023 10.3501 31.45 10.7978 31.45 11.3501V25.5501C31.45 26.1024 31.0023 26.5501 30.45 26.5501H6.34961C5.79732 26.5501 5.34961 26.1024 5.34961 25.5501V11.3501Z" fill="white"/>
<g filter="url(#filter0_d_5_12536)">
<path d="M20.9253 24.2971C20.4577 25.1574 19.2952 25.3346 18.5758 24.6551L10.3602 16.8947C9.43871 16.0243 9.92883 14.488 11.1794 14.327L24.548 12.6053C25.7667 12.4483 26.6619 13.7411 26.0782 14.8151L20.9253 24.2971Z" fill="url(#paint0_linear_5_12536)"/>
</g>
<path d="M24.8381 16.7534C25.8202 17.3196 25.8568 18.7195 24.905 19.3187L15.6668 25.1353C14.6985 25.745 13.4215 25.081 13.3584 23.9349L12.7239 12.4269C12.6586 11.2421 13.9324 10.4665 14.9655 11.062L24.8381 16.7534Z" fill="url(#paint1_linear_5_12536)" fill-opacity="0.8"/>
<g filter="url(#filter1_d_5_12536)">
<path d="M15.1646 16.3992C15.1371 16.4306 15.0891 16.4551 15.0205 16.4726C14.9534 16.4902 14.8803 16.4989 14.801 16.4989C14.801 16.4989 14.8162 16.4893 14.7507 16.4726C14.6851 16.456 14.7012 16.4306 14.6723 16.3992C14.4436 16.1435 14.231 15.8923 14.0343 15.6458C14.0114 15.6162 14 15.5936 14 15.5779C14 15.528 14.0373 15.5031 14.112 15.5031L14.5426 15.5031C14.599 15.5031 14.6417 15.5091 14.6707 15.5211C14.7012 15.5331 14.7278 15.5571 14.7507 15.5931L14.9725 15.9366C14.9817 15.9514 14.9984 15.9588 15.0228 15.9588C15.0472 15.9588 15.0655 15.9514 15.0777 15.9366L15.3772 15.5433C15.3971 15.5183 15.4184 15.5045 15.4413 15.5017C15.4504 15.5008 15.4664 15.5003 15.4893 15.5003L15.7523 15.5031C15.7812 15.5031 15.8018 15.5114 15.814 15.528C15.8186 15.5345 15.8209 15.5423 15.8209 15.5516C15.8209 15.5608 15.8033 15.5862 15.7683 15.6278C15.7347 15.6693 15.6455 15.7847 15.5007 15.974C15.3574 16.1633 15.2454 16.305 15.1646 16.3992Z" fill="white"/>
<path d="M15.8201 15.5005L15.9056 15.5001C15.9697 15.5001 16.0116 15.5098 16.0314 15.5292C16.0527 15.5486 16.0665 15.5887 16.0726 15.6497C16.0802 15.7097 16.084 15.827 16.084 16.0015C16.084 16.1751 16.0779 16.3025 16.0657 16.3837C16.0611 16.405 16.0451 16.4239 16.0177 16.4405C15.9918 16.4572 15.9567 16.4664 15.9125 16.4682C15.8256 16.4719 16.1457 16.4738 16.0314 16.4738C15.9171 16.4738 15.9154 16.4723 15.8132 16.4687C15.769 16.4668 15.7332 16.4576 15.7058 16.4409C15.6798 16.4243 15.6646 16.4054 15.66 16.3842C15.6478 16.3029 15.6417 16.1755 15.6417 16.0019C15.6417 15.8274 15.6448 15.7101 15.6509 15.6501C15.6585 15.5891 15.6722 15.549 15.692 15.5296C15.7134 15.5102 15.7561 15.5005 15.8201 15.5005Z" fill="white"/>
<path d="M19.6489 16.4949C19.6062 16.4949 19.5696 16.4866 19.5391 16.47C19.5102 16.4524 19.4911 16.4243 19.482 16.3855C19.4743 16.3458 19.4705 16.2281 19.4705 16.0323C19.4705 15.8356 19.4759 15.7073 19.4865 15.6473C19.4987 15.5697 19.5528 15.53 19.6489 15.5281C19.7586 15.5263 19.6286 15.5277 20.4289 15.5277C20.5188 15.5277 20.5638 15.5624 20.5638 15.6316C20.5638 15.6861 20.5242 15.7133 20.4449 15.7133H19.9418C19.9098 15.7133 19.8839 15.7198 19.8641 15.7327C19.8458 15.7456 19.8367 15.7623 19.8367 15.7826V15.8823C19.8367 15.91 19.8572 15.9239 19.8984 15.9239H20.3146C20.339 15.9239 20.3573 15.9252 20.3695 15.928C20.3832 15.9308 20.3954 15.9391 20.406 15.9529C20.4167 15.9659 20.422 15.9876 20.422 16.018C20.422 16.0485 20.4129 16.0688 20.3946 16.079C20.3778 16.0891 20.3496 16.0942 20.31 16.0942H19.9373C19.8992 16.0942 19.8725 16.1002 19.8572 16.1122C19.8435 16.1233 19.8367 16.1408 19.8367 16.1649V16.2327C19.8367 16.2724 19.8679 16.2923 19.9304 16.2923L20.985 16.2949C21.0125 16.2949 21.0369 16.2999 21.0582 16.3101C21.0796 16.3193 21.0902 16.3406 21.0902 16.3738C21.0902 16.4061 21.0773 16.4352 21.0514 16.4611C21.0254 16.4869 20.995 16.4998 20.9599 16.4998L19.6489 16.4949Z" fill="white"/>
<path d="M21.2753 15.8599L21.273 16.137C21.273 16.1776 21.2829 16.2081 21.3027 16.2284C21.3241 16.2478 21.3675 16.2575 21.433 16.2575H22.0116C22.0817 16.2584 22.1168 16.2907 22.1168 16.3544C22.1168 16.4033 22.1069 16.4389 22.087 16.4611C22.0672 16.4832 22.0268 16.4948 21.9658 16.4957C21.7509 16.4994 21.5382 16.5012 21.3279 16.5012C21.1175 16.5012 21.2546 16.502 20.9283 16.5002C20.8735 16.5002 20.8285 16.4923 20.7934 16.4766C20.7599 16.46 20.7408 16.4374 20.7363 16.4088C20.7241 16.3284 20.718 16.2019 20.718 16.0293C20.718 15.8557 20.721 15.7389 20.7271 15.6788C20.7347 15.6179 20.7492 15.5777 20.7706 15.5583C20.7919 15.538 20.8338 15.5279 20.8963 15.5279L21.1038 15.5262C21.1678 15.5262 21.2097 15.5363 21.2295 15.5566C21.2509 15.5769 21.2638 15.6097 21.2684 15.655C21.273 15.7002 21.2753 15.7685 21.2753 15.8599Z" fill="white"/>
<path d="M18.0949 16.3906C18.0933 16.4109 18.0789 16.4298 18.0514 16.4474C18.024 16.464 17.9874 16.4732 17.9417 16.4751C17.8548 16.4788 18.0225 16.477 17.9006 16.477C17.7786 16.477 18.0027 16.4807 17.9006 16.477C17.8548 16.4752 17.8183 16.466 17.7908 16.4493C17.7634 16.4318 17.7489 16.4129 17.7474 16.3925C17.7428 16.2522 17.7474 16.0801 17.7474 15.9813C17.7474 15.8815 17.7481 15.8086 17.7497 15.7624C17.7497 15.7273 17.7237 15.7098 17.6719 15.7098H17.4661C17.4341 15.7098 17.4082 15.7052 17.3884 15.6959C17.3685 15.6867 17.3571 15.6706 17.3541 15.6475C17.3525 15.6244 17.3518 15.6004 17.3518 15.5754C17.3518 15.5505 17.3568 15.6183 17.3584 15.6008C17.3614 15.5823 17.3736 15.5685 17.3949 15.5592C17.4178 15.5491 17.4422 15.544 17.4681 15.544C17.6663 15.5421 17.3263 15.5393 17.6647 15.5393C18.0031 15.5393 18.2455 15.5402 18.3919 15.542C18.4178 15.543 18.4414 15.548 18.4627 15.5573C18.4856 15.5665 18.4978 15.5804 18.4993 15.5988C18.5024 15.6164 18.4996 15.5481 18.4996 15.5721C18.4996 15.5961 18.4989 15.6192 18.4973 15.6414C18.4928 15.6829 18.4554 15.7037 18.3853 15.7037H18.1795C18.1276 15.7037 18.1017 15.7198 18.1017 15.7522C18.1063 15.8685 18.1086 15.9738 18.1086 16.068C18.1086 16.1621 18.0994 16.3047 18.0949 16.3906Z" fill="white"/>
<path d="M16.4025 16.502C16.3599 16.502 16.3233 16.4937 16.2928 16.477C16.2638 16.4595 16.2448 16.4313 16.2356 16.3925C16.228 16.3528 16.2242 16.2351 16.2242 16.0394C16.2242 15.8427 16.2295 15.7143 16.2402 15.6543C16.2524 15.5768 16.3065 15.5371 16.4025 15.5352C16.5123 15.5334 16.8179 15.5325 17.6182 15.5325C17.7082 15.5325 17.7531 15.5672 17.7531 15.6364C17.7531 15.6909 17.7135 15.7181 17.6342 15.7181L16.6955 15.7204C16.6635 15.7204 16.6376 15.7269 16.6178 15.7398C16.5995 15.7527 16.5903 15.7693 16.5903 15.7896V15.8894C16.5903 15.9171 16.6109 15.9309 16.6521 15.9309H17.0682C17.0926 15.9309 17.1109 15.9323 17.1231 15.9351C17.1368 15.9378 17.149 15.9462 17.1597 15.96C17.1704 15.9729 17.1757 15.9946 17.1757 16.0251C17.1757 16.0556 17.1666 16.0759 17.1483 16.086C17.1315 16.0962 17.1033 16.1013 17.0637 16.1013H16.6909C16.6528 16.1013 16.6261 16.1073 16.6109 16.1193C16.5972 16.1304 16.5903 16.1479 16.5903 16.1719V16.2398C16.5903 16.2795 16.6216 16.2993 16.6841 16.2993H17.3175C17.3449 16.2993 17.3693 16.3044 17.3907 16.3146C17.412 16.3238 17.4227 16.345 17.4227 16.3783C17.4227 16.4106 17.4097 16.4397 17.3838 16.4655C17.3579 16.4914 17.3274 16.5043 17.2923 16.5043L16.4025 16.502Z" fill="white"/>
<path d="M19.1027 16.393C19.1011 16.4133 19.0867 16.4322 19.0592 16.4498C19.0318 16.4664 18.9952 16.4756 18.9495 16.4775C18.8626 16.4812 19.0303 16.4794 18.9084 16.4794C18.7864 16.4794 19.0105 16.4831 18.9084 16.4794C18.8626 16.4776 18.826 16.4684 18.7986 16.4517C18.7712 16.4342 18.7567 16.4153 18.7552 16.3949C18.7506 16.2546 18.7552 16.0825 18.7552 15.9837C18.7552 15.8839 18.7559 15.811 18.7574 15.7648C18.7574 15.7297 18.7315 15.7122 18.6797 15.7122H18.4739C18.4419 15.7122 18.416 15.7076 18.3961 15.6983C18.3763 15.6891 18.3649 15.6729 18.3618 15.6499C18.3603 15.6268 18.3596 15.6028 18.3596 15.5778C18.3596 15.5529 18.3646 15.6207 18.3661 15.6032C18.3692 15.5847 18.3814 15.5709 18.4027 15.5616C18.4256 15.5515 18.45 15.5464 18.4759 15.5464C18.6741 15.5445 18.3341 15.5417 18.6725 15.5417C19.0109 15.5417 19.5007 15.5402 19.6471 15.542C19.673 15.543 19.6966 15.548 19.718 15.5573C19.7408 15.5665 19.753 15.5804 19.7546 15.5988C19.7576 15.6164 19.7548 15.5481 19.7548 15.5721C19.7548 15.5961 19.7541 15.6192 19.7526 15.6414C19.748 15.6829 19.7106 15.7037 19.6405 15.7037L19.1873 15.7061C19.1354 15.7061 19.1095 15.7222 19.1095 15.7546C19.1141 15.8709 19.1164 15.9762 19.1164 16.0703C19.1164 16.1645 19.1072 16.3071 19.1027 16.393Z" fill="white"/>
</g>
<g filter="url(#filter2_d_5_12536)">
<path d="M14.9199 20.2902C14.9199 20.406 14.826 20.4999 14.7102 20.4999C14.5944 20.4999 14.5005 20.406 14.5005 20.2902V17.5193C14.5005 17.406 14.5924 17.3141 14.7057 17.3141C14.8191 17.3141 14.911 17.406 14.911 17.5193V17.6443H14.9244C14.9928 17.5312 15.0924 17.439 15.2233 17.3676C15.3572 17.2932 15.5119 17.2561 15.6874 17.2561C15.845 17.2561 15.9878 17.2843 16.1157 17.3408C16.2466 17.3974 16.3581 17.4762 16.4504 17.5773C16.5455 17.6785 16.6184 17.7974 16.669 17.9343C16.7196 18.0681 16.7448 18.2124 16.7448 18.3671C16.7448 18.5218 16.7196 18.6675 16.669 18.8044C16.6184 18.9412 16.547 19.0602 16.4548 19.1613C16.3626 19.2624 16.2511 19.3428 16.1202 19.4023C15.9893 19.4588 15.842 19.487 15.6784 19.487C15.5267 19.487 15.384 19.4543 15.2501 19.3889C15.1162 19.3234 15.0106 19.2312 14.9333 19.1122H14.9199V20.2902ZM16.312 18.3671C16.312 18.2689 16.2972 18.1737 16.2674 18.0815C16.2377 17.9893 16.193 17.9075 16.1336 17.8361C16.0741 17.7647 15.9997 17.7082 15.9105 17.6666C15.8242 17.6249 15.7231 17.6041 15.607 17.6041C15.5 17.6041 15.4018 17.6249 15.3126 17.6666C15.2263 17.7082 15.1519 17.7647 15.0895 17.8361C15.027 17.9075 14.9779 17.9893 14.9422 18.0815C14.9095 18.1737 14.8931 18.2704 14.8931 18.3715C14.8931 18.4727 14.9095 18.5694 14.9422 18.6616C14.9779 18.7538 15.027 18.8356 15.0895 18.907C15.1519 18.9754 15.2263 19.0304 15.3126 19.0721C15.4018 19.1137 15.5 19.1345 15.607 19.1345C15.7231 19.1345 15.8242 19.1137 15.9105 19.0721C15.9997 19.0275 16.0741 18.9694 16.1336 18.8981C16.193 18.8267 16.2377 18.7449 16.2674 18.6526C16.2972 18.5604 16.312 18.4652 16.312 18.3671Z" fill="white"/>
<path d="M17.0205 18.4269C17.0205 18.2544 17.0473 18.0938 17.1009 17.945C17.1544 17.7933 17.2288 17.6624 17.3239 17.5524C17.4221 17.4423 17.5381 17.3561 17.672 17.2936C17.8088 17.2311 17.9575 17.1999 18.1182 17.1999C18.252 17.1999 18.3725 17.2237 18.4796 17.2713C18.5896 17.3159 18.6848 17.3724 18.7652 17.4408V17.4364C18.7652 17.3353 18.8471 17.2534 18.9481 17.2534C19.0491 17.2534 19.131 17.3353 19.131 17.4364V19.0114C19.131 19.1245 19.131 18.4695 19.131 19.2702C19.131 19.3081 19.131 19.3662 19.131 19.4264C19.131 19.5373 19.0411 19.6272 18.9302 19.6272C18.8194 19.6272 18.7322 19.5373 18.732 19.4264C18.7319 19.3874 18.7312 19.3419 18.7295 19.2867C18.6938 19.3343 18.7146 19.3431 18.667 19.3907C18.6224 19.4353 18.5703 19.4755 18.5108 19.5112C18.4513 19.5469 18.3844 19.5751 18.31 19.5959C18.2357 19.6168 18.1539 19.6272 18.0646 19.6272C17.9189 19.6272 17.782 19.5989 17.6541 19.5424C17.5292 19.4859 17.4191 19.4056 17.3239 19.3015C17.2317 19.1973 17.1574 19.0724 17.1009 18.9267C17.0473 18.7779 17.0205 18.6113 17.0205 18.4269ZM18.1539 19.2702C18.2669 19.2702 18.374 19.2435 18.4751 19.1899C18.5763 19.1364 18.661 19.0665 18.7295 18.9802V17.7353C18.6491 17.6788 18.5599 17.6342 18.4617 17.6015C18.3666 17.5658 18.2654 17.5479 18.1583 17.5479C18.0512 17.5479 17.9531 17.5687 17.8638 17.6104C17.7746 17.652 17.6973 17.7115 17.6318 17.7889C17.5694 17.8632 17.5203 17.954 17.4846 18.061C17.4489 18.1681 17.431 18.2856 17.431 18.4135C17.431 18.5385 17.4489 18.6545 17.4846 18.7616C17.5203 18.8657 17.5708 18.9564 17.6363 19.0337C17.7017 19.1081 17.7776 19.1661 17.8638 19.2078C17.9531 19.2494 18.0498 19.2702 18.1539 19.2702Z" fill="white"/>
<path d="M20.6656 18.9311H20.6745L21.2108 17.4083C21.2397 17.3262 21.3173 17.2713 21.4043 17.2713C21.5489 17.2713 21.6481 17.4168 21.5953 17.5514L20.679 19.886C20.6433 19.9752 20.6046 20.054 20.563 20.1225C20.5214 20.1938 20.4723 20.2533 20.4158 20.3009C20.3592 20.3515 20.2923 20.3902 20.215 20.4169C20.1406 20.4437 20.0514 20.4571 19.9473 20.4571C19.9026 20.4571 19.8565 20.4541 19.8089 20.4482C19.7287 20.4428 19.6771 20.3663 19.6857 20.2864L19.6877 20.2679C19.6996 20.1587 19.8106 20.0912 19.9205 20.0912C20.0305 20.0912 20.1123 20.06 20.1659 19.9975C20.2194 19.938 20.2685 19.8518 20.3131 19.7387L20.447 19.3862L19.6685 17.5686C19.6083 17.4278 19.7115 17.2713 19.8646 17.2713C19.9522 17.2713 20.0309 17.3248 20.063 17.4062L20.6656 18.9311Z" fill="white"/>
</g>
<defs>
<filter id="filter0_d_5_12536" x="9.3833" y="12.5923" width="17.3779" height="13.9786" filterUnits="userSpaceOnUse" color-interpolation-filters="sRGB">
<feFlood flood-opacity="0" result="BackgroundImageFix"/>
<feColorMatrix in="SourceAlpha" type="matrix" values="0 0 0 0 0 0 0 0 0 0 0 0 0 0 0 0 0 0 127 0" result="hardAlpha"/>
<feOffset dy="1"/>
<feGaussianBlur stdDeviation="0.25"/>
<feColorMatrix type="matrix" values="0 0 0 0 0 0 0 0 0 0 0 0 0 0 0 0 0 0 0.25 0"/>
<feBlend mode="normal" in2="BackgroundImageFix" result="effect1_dropShadow_5_12536"/>
<feBlend mode="normal" in="SourceGraphic" in2="effect1_dropShadow_5_12536" result="shape"/>
</filter>
<filter id="filter1_d_5_12536" x="13.9" y="15.5001" width="8.3167" height="1.20424" filterUnits="userSpaceOnUse" color-interpolation-filters="sRGB">
<feFlood flood-opacity="0" result="BackgroundImageFix"/>
<feColorMatrix in="SourceAlpha" type="matrix" values="0 0 0 0 0 0 0 0 0 0 0 0 0 0 0 0 0 0 127 0" result="hardAlpha"/>
<feOffset dy="0.1"/>
<feGaussianBlur stdDeviation="0.05"/>
<feColorMatrix type="matrix" values="0 0 0 0 0 0 0 0 0 0.533333 0 0 0 0 0.568627 0 0 0 1 0"/>
<feBlend mode="normal" in2="BackgroundImageFix" result="effect1_dropShadow_5_12536"/>
<feBlend mode="normal" in="SourceGraphic" in2="effect1_dropShadow_5_12536" result="shape"/>
</filter>
<filter id="filter2_d_5_12536" x="14.4005" y="17.1999" width="7.30913" height="3.49999" filterUnits="userSpaceOnUse" color-interpolation-filters="sRGB">
<feFlood flood-opacity="0" result="BackgroundImageFix"/>
<feColorMatrix in="SourceAlpha" type="matrix" values="0 0 0 0 0 0 0 0 0 0 0 0 0 0 0 0 0 0 127 0" result="hardAlpha"/>
<feOffset dy="0.1"/>
<feGaussianBlur stdDeviation="0.05"/>
<feColorMatrix type="matrix" values="0 0 0 0 0.00392157 0 0 0 0 0.533333 0 0 0 0 0.568627 0 0 0 1 0"/>
<feBlend mode="normal" in2="BackgroundImageFix" result="effect1_dropShadow_5_12536"/>
<feBlend mode="normal" in="SourceGraphic" in2="effect1_dropShadow_5_12536" result="shape"/>
</filter>
<linearGradient id="paint0_linear_5_12536" x1="26.8444" y1="21.9999" x2="13.6637" y2="12.4894" gradientUnits="userSpaceOnUse">
<stop stop-color="#949494"/>
<stop offset="1" stop-color="#D8D8D8"/>
</linearGradient>
<linearGradient id="paint1_linear_5_12536" x1="13.816" y1="11.9997" x2="15.2569" y2="24.5138" gradientUnits="userSpaceOnUse">
<stop stop-color="#AEAEAE"/>
<stop offset="1" stop-color="#737373"/>
</linearGradient>
</defs>
</svg>
