<svg width="36" height="36" viewBox="0 0 36 36" fill="none" xmlns="http://www.w3.org/2000/svg">
<rect width="36" height="36" transform="matrix(-1 0 0 1 36 0)" fill="white"/>
<path d="M10.2042 22.8955C10.412 22.8956 10.6194 22.9078 10.8257 22.9319C11.3856 21.1618 13.0676 19.9522 14.9749 19.9484C15.4496 19.9479 15.921 20.0245 16.3697 20.1745C17.4804 17.8429 20.1126 16.5758 22.6964 17.1288C25.2806 17.6819 27.1199 19.9057 27.118 22.4744C27.1178 22.9183 27.0608 23.3605 26.9491 23.7906C29.411 24.1555 31.17 26.2975 30.9869 28.7087C30.8042 31.1201 28.7411 32.9893 26.2507 33H10.2042C7.32994 33 5 30.738 5 27.9476C5 25.1573 7.32994 22.8955 10.2042 22.8955ZM10.2042 32.1579H26.2507C28.3888 32.1669 30.1359 30.5031 30.1678 28.4277C30.1995 26.3522 28.5045 24.6388 26.3669 24.5859C26.2282 24.5822 26.0998 24.5141 26.0214 24.403C25.9427 24.2917 25.9239 24.1509 25.9705 24.0239C26.8313 21.6325 25.5509 19.0136 23.0979 18.1489C20.6452 17.2842 17.9321 18.4957 17.0119 20.8663C16.9698 20.9763 16.8826 21.064 16.771 21.1088C16.6592 21.1536 16.5335 21.1511 16.4239 21.1021C15.9699 20.897 15.4754 20.7908 14.9749 20.7903C13.3248 20.7933 11.9038 21.9216 11.5743 23.4912C11.5271 23.7195 11.2981 23.867 11.0633 23.8209C10.7806 23.7659 10.4929 23.7379 10.2042 23.7376C7.80896 23.7376 5.86728 25.6227 5.86728 27.9476C5.86728 30.2729 7.80896 32.1579 10.2042 32.1579Z" fill="#2D83F0"/>
<path d="M8.5 25.0002V22.0002V17.5002C14.5 16.0002 28.0587 14.0385 27.5 16.0001C27 17.7556 25.1667 19.9998 24.5 20.4998L8.5 25.0002Z" fill="white"/>
<path fill-rule="evenodd" clip-rule="evenodd" d="M14.6235 12.7801H13.7773C11.2581 12.7801 9.21582 14.8224 9.21582 17.3416V25.8485C9.21582 27.4484 10.5128 28.7454 12.1128 28.7454C13.7127 28.7454 15.0097 27.4484 15.0097 25.8485V14.229C15.0185 13.0701 15.5268 12.7791 15.7821 12.7791H14.6233C14.6234 12.7794 14.6234 12.7798 14.6235 12.7801Z" fill="#2D83F0"/>
<path d="M17.0699 17.2857C16.6064 17.2342 16.1901 16.8351 16.0398 16.6419C16.0399 19.0239 16.0397 20.3114 16.0398 22.7577C21.8981 23.8521 24.9238 19.0239 25.2457 18.5089C25.5676 17.9938 26.7263 15.4832 25.9538 16.3844C25.3358 17.1055 24.4517 17.2857 24.0869 17.2857C21.941 17.3072 17.5334 17.3372 17.0699 17.2857Z" fill="#2D83F0"/>
<path d="M11.1472 11.6206C10.7867 11.6206 9.88111 12.3073 9.47339 12.6506C10.3103 8.01548 15.0741 5.76232 17.0699 6.01983C18.6664 6.22583 19.2801 7.56486 19.3874 8.20862C19.4088 9.68928 19.4389 12.5605 19.3874 12.2C19.3359 11.8395 18.4646 11.6635 18.0354 11.6206H11.1472Z" fill="#2D83F0"/>
<path d="M20.6105 8.20862C20.6105 7.43612 19.9667 6.55629 19.6449 6.21293C24.4731 7.1142 26.2113 11.9424 26.2113 13.6806C26.2113 15.0711 24.795 15.8909 24.0869 16.1269C22.6491 16.1484 19.8251 16.1784 20.0311 16.1269C20.2371 16.0754 20.5032 15.4188 20.6105 15.0969V8.20862Z" fill="#2D83F0"/>
</svg>
