<svg width="36" height="36" viewBox="0 0 36 36" fill="none" xmlns="http://www.w3.org/2000/svg">
<rect x="7.32617" y="2.63037" width="11.8" height="29.8" rx="2.5" fill="#A8A8A8" stroke="black"/>
<path d="M9 6C9 4.89543 9.89543 4 11 4H16C17.1046 4 18 4.89543 18 6V28.5C18 29.6046 17.1046 30.5 16 30.5H11C9.89543 30.5 9 29.6046 9 28.5V6Z" fill="#E0E0E0"/>
<path d="M18 10.5L9 6V10L18 14V10.5Z" fill="white" fill-opacity="0.5"/>
<path d="M18 19L9 15V17.5L18 21.1875V19Z" fill="white" fill-opacity="0.5"/>
<path d="M16.3854 12.6436C17.1072 12.6844 17.8694 12.8131 18.5381 12.9668C19.3614 13.1561 19.9892 13.3706 20.2028 13.4774C21.4146 14.0833 23.0555 14.5526 24.5262 14.6374C25.2617 14.6798 25.9847 14.6279 26.6011 14.4274C27.2216 14.2256 27.7709 13.8591 28.0736 13.2538C28.3197 12.7616 28.4553 12.3065 28.4901 11.9063C28.5244 11.5123 28.463 11.1338 28.2674 10.8403C28.0585 10.527 27.7199 10.3526 27.3376 10.3799C26.9812 10.4053 26.6498 10.5996 26.3728 10.8766C26.3449 10.9045 26.2678 10.9574 26.0964 11.0052C25.9301 11.0515 25.71 11.0834 25.437 11.0964C24.8909 11.1224 24.1946 11.0706 23.4221 10.9602C21.88 10.7399 20.1093 10.2974 18.7845 9.85583C16.5602 9.11442 14.1641 8.93018 13.2264 8.93018C11.4591 8.93018 10.0264 10.3629 10.0264 12.1302C10.0264 13.8975 11.4591 15.3302 13.2264 15.3302C14.8189 15.3302 16.1397 14.1669 16.3854 12.6436Z" fill="#E0E0E0" stroke="#030303"/>
<path fill-rule="evenodd" clip-rule="evenodd" d="M14.0977 24.5055C14.6512 24.1984 15.0258 23.6081 15.0258 22.9304C15.0258 21.9363 14.2199 21.1304 13.2258 21.1304C12.2317 21.1304 11.4258 21.9363 11.4258 22.9304C11.4258 23.6084 11.8006 24.1988 12.3544 24.5057C12.3359 24.5776 12.3261 24.6528 12.3261 24.7304V27.4304C12.3261 27.9275 12.729 28.3304 13.2261 28.3304C13.7231 28.3304 14.1261 27.9275 14.1261 27.4304V24.7304C14.1261 24.6527 14.1162 24.5774 14.0977 24.5055Z" fill="#404040"/>
</svg>
