<svg width="64" height="43" viewBox="0 0 64 43" fill="none" xmlns="http://www.w3.org/2000/svg">
<path d="M18.0577 10.4219C10.7978 10.4219 4.92163 16.3154 4.92163 23.5579C4.92163 26.4063 5.28984 29.1741 6.88987 31.4393C7.17546 31.8436 7.63766 32.0867 8.13266 32.0867L27.9828 32.0866C28.4778 32.0866 28.94 31.8436 29.2256 31.4392C30.8256 29.1741 31.1938 26.4062 31.1938 23.5579C31.1938 16.2972 25.3006 10.4219 18.0577 10.4219Z" fill="#A8A8A8"/>
<path d="M13.9892 22.8843C13.9892 17.4532 17.4638 12.8344 22.311 11.1273C20.9764 10.6703 19.5456 10.4219 18.0577 10.4219C10.7978 10.4219 4.92163 16.3154 4.92163 23.5579C4.92163 26.4063 5.28984 29.1741 6.88987 31.4393C7.17546 31.8436 7.63766 32.0867 8.13266 32.0867H18.048C15.554 29.8078 13.9892 26.5289 13.9892 22.8843Z" fill="#595959"/>
<path d="M22.1297 34.2902C21.3786 33.347 20.3129 32.6692 19.0948 32.4206C18.7597 32.3523 18.4131 32.3164 18.0584 32.3164C16.4139 32.3164 14.9448 33.0877 13.9871 34.2902C13.2684 35.1926 12.8376 36.3379 12.8376 37.5829V38.3791H18.0584H23.2792V37.5829C23.2792 37.1761 23.2332 36.7801 23.1462 36.3996C22.967 35.6155 22.6136 34.8978 22.1297 34.2902Z" fill="#C2C2C2"/>
<path d="M19.0957 32.4197C18.7606 32.3513 18.4141 32.3154 18.0593 32.3154C16.4148 32.3154 14.9457 33.0867 13.988 34.2892C13.5041 34.8969 13.1508 35.6145 12.9715 36.3987C12.8846 36.7791 12.8386 37.1752 12.8386 37.5819V38.3782H14.9131V37.5819C14.9131 35.04 16.7134 32.9064 19.0957 32.4197Z" fill="#989898"/>
<path d="M23.2791 37.5821V38.3784H21.2047V37.5821C21.2047 37.3899 21.1944 37.2001 21.1743 37.0131C21.8522 36.8569 22.5105 36.6509 23.1462 36.3989C23.2332 36.7795 23.2791 37.1753 23.2791 37.5821Z" fill="#E7E7E7"/>
<path d="M12.8376 37.582V38.3783H14.9121V37.582C14.9121 37.3898 14.9224 37.2001 14.9425 37.013C14.2646 36.8568 13.6062 36.6508 12.9706 36.3988C12.8835 36.7794 12.8376 37.1752 12.8376 37.582Z" fill="#D3D3D3"/>
<path d="M27.8247 21.2009H8.28893C6.9868 21.2009 5.93115 22.2565 5.93115 23.5587C5.93115 24.8609 6.98674 25.9165 8.28893 25.9165H27.8246C29.1267 25.9165 30.1824 24.8609 30.1824 23.5587C30.1824 22.2565 29.1268 21.2009 27.8247 21.2009Z" fill="#D3D3D3"/>
<path d="M19.6836 13.9261C19.1545 13.8374 18.6112 13.7905 18.0569 13.7905C17.5026 13.7905 16.9594 13.8374 16.4303 13.9261C11.81 14.7007 8.28906 18.718 8.28906 23.5584C8.28906 28.3987 11.81 32.416 16.4303 33.1906C16.9594 33.2793 17.5026 33.3262 18.0569 33.3262C18.6112 33.3262 19.1545 33.2793 19.6836 33.1906C24.3039 32.416 27.8248 28.3987 27.8248 23.5584C27.8248 18.718 24.3039 14.7007 19.6836 13.9261Z" fill="#E7E7E7"/>
<path d="M11.5292 23.5719C11.5292 18.723 15.0565 14.6985 19.6836 13.9261C19.1545 13.8374 18.6112 13.7905 18.0569 13.7905C17.5026 13.7905 16.9594 13.8374 16.4303 13.9261C11.81 14.7007 8.28906 18.718 8.28906 23.5583C8.28906 28.3986 11.81 32.416 16.4303 33.1905C16.9594 33.2792 17.5026 33.3262 18.0569 33.3262C18.6112 33.3262 19.1545 33.2792 19.6836 33.1905C15.0566 32.4182 11.5292 28.4207 11.5292 23.5719Z" fill="#D3D3D3"/>
<path d="M26.2882 17.4097C24.3716 14.8432 21.3362 13.2848 18.058 13.2848C14.7361 13.2848 11.7171 14.8794 9.82755 17.4102C9.01108 18.5037 8.57666 19.8355 8.57666 21.2002C9.693 20.9505 10.8173 20.7462 11.9459 20.586C12.2789 20.5388 12.5659 20.3275 12.7117 20.0244L13.2312 18.9444L13.6349 19.7404C13.8202 20.1056 14.2076 20.3224 14.6158 20.29C15.2363 20.2409 15.8576 20.2051 16.4793 20.1826C16.8652 20.1687 17.2091 19.9358 17.3655 19.5827L17.9468 18.2708L18.5253 19.5752C18.6826 19.9298 19.029 20.1628 19.4167 20.1749C20.3455 20.2039 21.2735 20.2625 22.1993 20.3511C22.5613 20.3858 22.9137 20.2224 23.1219 19.9243L23.3359 19.6181L23.6758 20.1555C23.8328 20.4038 24.0895 20.5732 24.38 20.6159C25.438 20.7715 26.4922 20.966 27.5394 21.2002C27.5394 19.8354 27.1047 18.5032 26.2882 17.4097Z" fill="#A8A8A8"/>
<path d="M18.4924 13.2951C18.3481 13.289 18.2034 13.2848 18.0581 13.2848C14.7362 13.2848 11.7171 14.8794 9.82755 17.4101C9.01108 18.5036 8.57666 19.8354 8.57666 21.2001C9.693 20.9505 10.8173 20.7461 11.9459 20.586C12.2789 20.5387 12.5659 20.3274 12.7117 20.0244L13.2312 18.9444L13.635 19.7404C13.7661 19.9989 13.9987 20.1824 14.268 20.2564C14.8641 17.4798 16.3846 15.0466 18.4924 13.2951Z" fill="#595959"/>
<g opacity="0.5">
<path d="M12.6932 28.3319C13.7862 28.3319 14.6723 27.6262 14.6723 26.7558C14.6723 25.8854 13.7862 25.1797 12.6932 25.1797C11.6002 25.1797 10.7141 25.8854 10.7141 26.7558C10.7141 27.6262 11.6002 28.3319 12.6932 28.3319Z" fill="#A3A3A3"/>
<path d="M23.4212 28.3317C24.5143 28.3317 25.4003 27.626 25.4003 26.7556C25.4003 25.8852 24.5143 25.1795 23.4212 25.1795C22.3282 25.1795 21.4421 25.8852 21.4421 26.7556C21.4421 27.626 22.3282 28.3317 23.4212 28.3317Z" fill="#A3A3A3"/>
</g>
<path d="M13.8479 25.6603C14.0809 25.6603 14.2698 25.4714 14.2698 25.2384V24.4294C14.2698 24.1964 14.0809 24.0075 13.8479 24.0075C13.6149 24.0075 13.426 24.1964 13.426 24.4294V25.2384C13.426 25.4714 13.6149 25.6603 13.8479 25.6603Z" fill="black"/>
<path d="M22.2678 25.6603C22.5009 25.6603 22.6897 25.4714 22.6897 25.2384V24.4294C22.6897 24.1964 22.5009 24.0075 22.2678 24.0075C22.0348 24.0075 21.8459 24.1964 21.8459 24.4294V25.2384C21.8459 25.4714 22.0348 25.6603 22.2678 25.6603Z" fill="black"/>
<path d="M18.0586 26.1427C18.6059 26.1427 19.1264 25.9057 19.4866 25.4924C19.6397 25.3167 19.6214 25.0502 19.4458 24.8971C19.2701 24.744 19.0036 24.7623 18.8505 24.938C18.6506 25.1674 18.3619 25.2989 18.0585 25.2989C17.7551 25.2989 17.4665 25.1674 17.2666 24.938C17.1135 24.7624 16.847 24.7441 16.6713 24.8971C16.4957 25.0502 16.4774 25.3166 16.6304 25.4923C16.9907 25.9057 17.5113 26.1427 18.0586 26.1427Z" fill="black"/>
<path d="M18.0577 10C10.5818 10 4.49976 16.082 4.49976 23.5579C4.49976 25.1882 4.61799 26.5065 4.87191 27.7067C5.19844 29.2503 5.74581 30.5508 6.54529 31.6827C6.91057 32.1998 7.50396 32.5086 8.13266 32.5086H13.1887C13.6282 32.7481 14.0846 32.9551 14.5537 33.1269C14.4563 33.2049 14.3611 33.2858 14.2689 33.3701C14.097 33.5274 14.0852 33.7943 14.2425 33.9662C14.3998 34.1381 14.6667 34.1499 14.8386 33.9925C15.0649 33.7854 15.311 33.6003 15.5716 33.4402C16.3954 33.647 17.2346 33.7476 18.0577 33.7476C18.8954 33.7476 19.7242 33.6459 20.5434 33.4403C21.5455 34.0557 22.2918 35.0193 22.639 36.1391C22.2723 36.2725 21.8987 36.3904 21.5212 36.4912C21.4327 36.0347 21.289 35.5914 21.0913 35.1681C20.9926 34.957 20.7415 34.8658 20.5305 34.9644C20.3194 35.063 20.2282 35.314 20.3268 35.5251C20.5532 36.0098 20.6969 36.5255 20.7541 37.0578C20.7877 37.3711 20.782 37.5658 20.782 37.9561H15.3332C15.3332 37.5677 15.3275 37.3711 15.3612 37.0578C15.4184 36.5255 15.5621 36.0099 15.7885 35.5251C15.8871 35.314 15.7959 35.063 15.5848 34.9644C15.3737 34.8659 15.1227 34.9571 15.024 35.1681C14.8264 35.5914 14.6825 36.0347 14.594 36.4912C14.217 36.3905 13.8437 36.2727 13.4774 36.1395C13.5778 35.8151 13.7114 35.5012 13.8778 35.2042C13.9917 35.001 13.9193 34.7439 13.7161 34.63C13.5129 34.5162 13.2557 34.5885 13.1418 34.7917C12.6664 35.64 12.415 36.6048 12.415 37.5818V38.3781C12.415 38.6111 12.6039 38.8 12.8369 38.8H23.2784C23.5115 38.8 23.7003 38.6111 23.7003 38.3781V37.5819C23.7003 37.151 23.652 36.7213 23.5567 36.3045C23.2689 35.0453 22.5584 33.9251 21.5617 33.1269C22.0309 32.955 22.4872 32.748 22.9266 32.5085H25.1265C25.3595 32.5085 25.5483 32.3196 25.5483 32.0866C25.5483 31.8536 25.3595 31.6647 25.1265 31.6647H24.2278C25.9748 30.3318 27.2617 28.4575 27.8624 26.3366C29.3781 26.3166 30.605 25.0782 30.605 23.5579C30.605 22.0252 29.3581 20.7782 27.8254 20.7782H27.5845C26.5517 20.5485 25.4944 20.3534 24.4409 20.1985C24.2734 20.1739 24.1243 20.076 24.0319 19.93L23.692 19.3926C23.5313 19.1384 23.1624 19.1292 22.9896 19.3764L22.7757 19.6827C22.6545 19.8561 22.4494 19.9511 22.239 19.9312C21.3102 19.8423 20.3649 19.7824 19.4293 19.7532C19.2051 19.7462 19.0014 19.6092 18.9104 19.4041L18.3319 18.0997C18.1841 17.7664 17.7087 17.7653 17.5606 18.0998L16.9793 19.4118C16.8889 19.6158 16.6864 19.7529 16.4636 19.761C15.8367 19.7836 15.2036 19.8201 14.5821 19.8693C14.3428 19.8881 14.119 19.7627 14.0108 19.5495L13.607 18.7535C13.4485 18.4409 13.0013 18.4482 12.8506 18.7614L12.3311 19.8414C12.2459 20.0186 12.0796 20.1408 11.8862 20.1683C10.7599 20.3281 9.63156 20.5334 8.53119 20.7782H8.28988C6.75718 20.7782 5.51023 22.0251 5.51023 23.5578C5.51023 25.0781 6.73721 26.3166 8.25287 26.3365C8.85367 28.4574 10.1405 30.3317 11.8876 31.6647H8.13266C7.77761 31.6647 7.44186 31.4894 7.23446 31.1958C6.50259 30.1597 5.99989 28.9615 5.69754 27.5328C5.45612 26.3915 5.34351 25.1279 5.34351 23.5578C5.34351 16.5473 11.0471 10.8438 18.0577 10.8438C25.0684 10.8438 30.7719 16.5473 30.7719 23.5579C30.7719 25.8677 30.5569 28.8232 28.881 31.1959C28.6736 31.4895 28.3379 31.6647 27.9828 31.6647H26.8141C26.581 31.6647 26.3922 31.8536 26.3922 32.0866C26.3922 32.3196 26.581 32.5085 26.8141 32.5085H27.9828C28.6115 32.5085 29.2049 32.1997 29.5702 31.6826C31.3831 29.116 31.6156 25.9924 31.6156 23.5579C31.6156 16.082 25.5335 10 18.0577 10ZM13.2974 36.9716C13.6905 37.111 14.0908 37.2337 14.4947 37.3378C14.4882 37.4916 14.4895 37.5563 14.4895 37.9562H13.2588C13.2588 37.5696 13.2511 37.338 13.2974 36.9716ZM22.8565 37.9563H21.6259C21.6259 37.5564 21.6272 37.4916 21.6207 37.3379C22.0246 37.2337 22.4249 37.111 22.8181 36.9716C22.8434 37.1735 22.8565 37.3775 22.8565 37.5819V37.9563ZM29.7614 23.5579C29.7614 24.5441 29.0199 25.3599 28.0652 25.4784C28.2987 24.2553 28.3172 22.9575 28.0653 21.6374C29.0199 21.756 29.7614 22.5718 29.7614 23.5579ZM6.35398 23.5579C6.35398 22.5717 7.09547 21.756 8.05009 21.6374C7.80754 22.9082 7.80714 24.2053 8.05009 25.4784C7.09541 25.3599 6.35398 24.5442 6.35398 23.5579ZM8.98631 25.8142C8.64139 24.4231 8.62114 22.9571 8.92731 21.5549C9.93907 21.3354 10.9731 21.1502 12.0049 21.0038C12.8503 20.8838 13.0993 20.1913 13.2409 19.8968C13.5391 20.4847 14.0931 20.7548 14.6489 20.7106C15.2584 20.6623 15.8793 20.6265 16.4942 20.6043C17.0374 20.5847 17.5306 20.2508 17.7508 19.7537L17.9466 19.3119L18.1393 19.7463C18.3608 20.2459 18.8569 20.5797 19.4031 20.5967C20.3206 20.6253 21.2477 20.684 22.1587 20.7712C22.5865 20.8124 23.0063 20.6573 23.3051 20.3593C23.5525 20.7512 23.9178 20.9746 24.3183 21.0334C25.2795 21.1747 26.2435 21.3499 27.1881 21.555C27.4939 22.9556 27.4744 24.4211 27.1291 25.8142C26.1196 29.8862 22.4335 32.904 18.0576 32.904C13.7124 32.9039 10.0032 29.9163 8.98631 25.8142Z" fill="black"/>
<path d="M46.4444 30.3455C45.4972 30.3455 44.588 30.5107 43.7435 30.8132C41.698 31.5457 39.9804 33.109 39.0778 35.179C38.6502 36.1598 38.4121 37.2414 38.4121 38.3779H46.4445V30.3455C46.4444 30.3455 46.4444 30.3455 46.4444 30.3455Z" fill="#D3D3D3"/>
<path d="M53.8107 35.1791C52.9419 33.1869 51.2693 31.5739 49.144 30.8131C48.2964 30.5096 47.3841 30.3457 46.4441 30.3457V38.3781H54.4764C54.4764 37.2416 54.2383 36.1599 53.8107 35.1791Z" fill="#E7E7E7"/>
<path d="M49.1443 30.8129C48.2966 30.5094 47.3843 30.3455 46.4442 30.3455C45.497 30.3455 44.5878 30.5107 43.7433 30.8132C41.6978 31.5457 39.9802 33.109 39.0776 35.179C39.8746 35.8795 40.7988 36.55 41.753 37.1182V38.3779H51.1346V37.1188C52.0891 36.5505 53.0137 35.8798 53.8109 35.1789C52.9422 33.1867 51.2696 31.5737 49.1443 30.8129Z" fill="#A4A4A4"/>
<path d="M43.7446 30.8134C41.9227 31.4661 40.3959 32.7616 39.4482 34.438C39.346 34.6176 39.2517 34.8019 39.1642 34.989C39.1348 35.052 39.106 35.1155 39.0781 35.1795C39.875 35.8801 40.7993 36.5506 41.7535 37.1188V38.3785H42.4286C42.6348 37.1153 43.0901 35.9339 43.7446 34.8877V30.8134Z" fill="#979797"/>
<path d="M46.4452 30.3455C45.5162 30.3455 44.6052 30.5047 43.7451 30.8128V38.3779H49.1469V30.8135C48.2864 30.5052 47.3744 30.3455 46.4452 30.3455Z" fill="#DFDFDF"/>
<path d="M49.1433 30.8126C48.2835 30.5049 47.3725 30.3455 46.4442 30.3455C45.5152 30.3455 44.6043 30.5047 43.7441 30.8128V34.8871C44.9588 32.9455 46.8611 31.4707 49.1433 30.8126Z" fill="#D9D9D9"/>
<path d="M46.4465 29.3624L43.7441 30.8129C44.2183 32.0566 45.1687 33.0433 46.4465 33.7266C47.7242 33.0434 48.6717 32.0571 49.146 30.8136L46.4465 29.3624Z" fill="#D3D3D3"/>
<path d="M36.8156 23.9626C38.1376 23.9626 39.2093 22.8909 39.2093 21.5689C39.2093 20.2469 38.1376 19.1752 36.8156 19.1752C35.4936 19.1752 34.4219 20.2469 34.4219 21.5689C34.4219 22.8909 35.4936 23.9626 36.8156 23.9626Z" fill="#D3D3D3"/>
<path d="M56.0722 23.9627C57.3942 23.9627 58.4659 22.891 58.4659 21.569C58.4659 20.247 57.3942 19.1753 56.0722 19.1753C54.7502 19.1753 53.6785 20.247 53.6785 21.569C53.6785 22.891 54.7502 23.9627 56.0722 23.9627Z" fill="#D3D3D3"/>
<path d="M49.1432 30.813C53.1468 29.646 56.0723 25.9494 56.0723 21.569C56.0723 16.2514 51.7616 11.9407 46.444 11.9407C41.1266 11.9407 36.8159 16.2514 36.8159 21.569C36.8159 25.9493 39.7414 29.646 43.7449 30.813C44.6014 31.0627 45.507 31.1971 46.444 31.1971C47.3812 31.1972 48.2868 31.0627 49.1432 30.813Z" fill="#E7E7E7"/>
<path d="M40.0076 21.57C40.0076 16.7962 43.4821 12.8345 48.0399 12.0741C47.5208 11.9875 46.9878 11.9417 46.444 11.9417C41.1266 11.9417 36.8159 16.2524 36.8159 21.57C36.8159 26.8874 41.1267 31.1981 46.444 31.1981C46.9877 31.1981 47.5207 31.1523 48.0399 31.0657C43.4821 30.3052 40.0076 26.3437 40.0076 21.57Z" fill="#D3D3D3"/>
<path d="M40.8996 26.6936C42.0293 26.6936 42.9452 25.9642 42.9452 25.0646C42.9452 24.1649 42.0293 23.4356 40.8996 23.4356C39.7698 23.4356 38.854 24.1649 38.854 25.0646C38.854 25.9642 39.7698 26.6936 40.8996 26.6936Z" fill="#A0A0A0" fill-opacity="0.3"/>
<path d="M51.986 26.6936C53.1158 26.6936 54.0316 25.9643 54.0316 25.0646C54.0316 24.1649 53.1158 23.4356 51.986 23.4356C50.8563 23.4356 49.9404 24.1649 49.9404 25.0646C49.9404 25.9643 50.8563 26.6936 51.986 26.6936Z" fill="#A0A0A0" fill-opacity="0.3"/>
<path d="M51.7372 11.596L48.8816 10.7154C47.3127 10.2316 45.6199 10.3489 44.1328 11.0444L36.8116 14.4681C36.3344 14.6912 36.2987 15.3562 36.7492 15.6293L36.5286 15.7367C35.9476 16.0194 36.0778 16.8825 36.7165 16.9812L36.9483 17.017L36.8791 17.1055C36.5514 17.5249 36.9336 18.1231 37.4518 18.0019L37.5033 17.9899C37.2188 18.6999 37.0167 19.4516 36.9083 20.2334H37.4975H37.5095C38.7861 20.2308 39.9508 19.504 40.5232 18.363L41.1364 17.1406L42.3948 16.6687C45.0054 15.6897 47.8823 15.6897 50.4928 16.6687L50.8606 16.8526C51.5075 17.176 52.0322 17.7002 52.3564 18.3468C52.3593 18.3527 52.3623 18.3585 52.3653 18.3644C52.7714 19.1626 53.5303 19.7229 54.407 19.9056L55.9794 20.2332L55.9802 20.2334C57.3152 16.6697 55.3738 12.7174 51.7372 11.596Z" fill="#A8A8A8"/>
<path d="M44.5854 13.2012C44.5854 11.9885 45.3201 10.8968 46.4435 10.4401C45.6495 10.499 44.866 10.7012 44.1325 11.0442L36.8114 14.4678C36.3342 14.691 36.2984 15.356 36.749 15.6291L36.5284 15.7364C35.9474 16.0192 36.0776 16.8823 36.7162 16.981L36.9481 17.0168L36.8789 17.1053C36.5511 17.5246 36.9333 18.1228 37.4516 18.0017L37.503 17.9896C37.2186 18.6996 37.0165 19.4514 36.908 20.2332H37.4973H37.5093C38.7858 20.2306 39.9505 19.5038 40.5229 18.3628L41.1362 17.1404L42.3946 16.6684C43.6796 16.1865 45.0291 15.9424 46.3797 15.9349C45.2925 15.4633 44.5854 14.3906 44.5854 13.2012Z" fill="#595959"/>
<path d="M50.1333 35.6547C50.3663 35.6547 50.5552 35.4658 50.5552 35.2328C50.5552 34.9998 50.3663 34.8109 50.1333 34.8109C49.9003 34.8109 49.7114 34.9998 49.7114 35.2328C49.7114 35.4658 49.9003 35.6547 50.1333 35.6547Z" fill="black"/>
<path d="M50.1333 37.8044C50.3663 37.8044 50.5552 37.6156 50.5552 37.3826C50.5552 37.1496 50.3663 36.9607 50.1333 36.9607C49.9003 36.9607 49.7114 37.1496 49.7114 37.3826C49.7114 37.6156 49.9003 37.8044 50.1333 37.8044Z" fill="black"/>
<path d="M41.6699 22.6797V23.4758C41.6699 23.7088 41.8588 23.8977 42.0918 23.8977C42.3248 23.8977 42.5137 23.7088 42.5137 23.4758V22.6797C42.5137 22.4467 42.3248 22.2578 42.0918 22.2578C41.8588 22.2578 41.6699 22.4466 41.6699 22.6797Z" fill="black"/>
<path d="M50.1562 22.7038V23.4999C50.1562 23.7329 50.3451 23.9218 50.5781 23.9218C50.8111 23.9218 51 23.7329 51 23.4999V22.7038C51 22.4708 50.8111 22.2819 50.5781 22.2819C50.3451 22.2819 50.1562 22.4707 50.1562 22.7038Z" fill="black"/>
<path d="M47.2735 23.1936C47.0642 23.4338 46.7619 23.5715 46.4442 23.5715C46.1265 23.5715 45.8243 23.4338 45.615 23.1936C45.4618 23.0179 45.1954 22.9996 45.0197 23.1527C44.844 23.3058 44.8258 23.5722 44.9788 23.7479C45.3484 24.1721 45.8825 24.4153 46.4442 24.4153C47.0058 24.4153 47.5399 24.1721 47.9096 23.7479C48.0626 23.5722 48.0443 23.3058 47.8687 23.1527C47.6932 22.9996 47.4266 23.0179 47.2735 23.1936Z" fill="black"/>
<path d="M54.0744 26.7215C53.9438 26.9145 53.9943 27.1768 54.1873 27.3074C54.3808 27.4382 54.6428 27.387 54.7731 27.1944C55.3596 26.3279 55.8026 25.3838 56.0935 24.3839C57.6361 24.3722 58.8876 23.1142 58.8876 21.5688C58.8876 20.2664 57.9987 19.1514 56.762 18.8399C56.9702 17.2848 56.6498 15.7002 55.8429 14.3338C54.952 12.8254 53.538 11.7099 51.8615 11.1929L49.006 10.3123C48.3292 10.1036 47.6324 10 46.9376 10C45.9018 10 44.898 10.2209 43.9541 10.6622L36.633 14.0859C36.0911 14.3393 35.8639 14.9785 36.1062 15.5124C35.5158 16.0159 35.6538 16.9796 36.3463 17.3054C36.2786 17.7458 36.526 18.1781 36.9194 18.3547C36.8979 18.4183 36.8396 18.5986 36.7941 18.7549C35.2376 18.7675 34 20.0306 34 21.5688C34 23.1172 35.2485 24.3706 36.7938 24.3832C37.6615 27.3695 39.8333 29.7125 42.5928 30.855C41.7103 31.3091 40.906 31.9185 40.2296 32.652C40.0717 32.8233 40.0825 33.0902 40.2538 33.2482C40.4251 33.4061 40.692 33.3953 40.85 33.224C41.5461 32.4691 42.3919 31.8593 43.3217 31.4385V37.9563H42.1744C42.1744 37.3706 42.1744 36.9291 42.1744 36.3266C42.1744 35.7783 41.3307 35.7451 41.3307 36.3576C40.7199 35.9582 40.1309 35.5211 39.5932 35.067C39.6864 34.8752 39.7878 34.6867 39.8962 34.504C40.0152 34.3036 39.9492 34.0447 39.7488 33.9258C39.5484 33.8069 39.2896 33.8729 39.1707 34.0732C38.4246 35.3301 37.9895 36.7973 37.9895 38.3781C37.9895 38.6111 38.1784 38.8 38.4114 38.8H54.4761C54.7092 38.8 54.898 38.6111 54.898 38.3781C54.898 35.1681 53.0832 32.2871 50.3 30.856C51.5489 30.3375 52.6912 29.5635 53.6642 28.5592C53.8263 28.3918 53.8221 28.1247 53.6547 27.9626C53.4872 27.8005 53.2202 27.8048 53.0582 27.9721C51.3509 29.7345 49.0143 30.775 46.4438 30.775C42.2256 30.775 38.5559 27.9233 37.5198 23.84C37.261 22.8201 37.1756 21.7485 37.2837 20.6552H37.5104C38.952 20.6523 40.251 19.8465 40.9003 18.5521L41.4394 17.4774L42.543 17.0636C45.0516 16.1228 47.8141 16.1204 50.3241 17.0559C50.7088 17.2482 51.4947 17.5692 51.9793 18.5361L51.9892 18.5557C52.4512 19.4635 53.301 20.1061 54.3209 20.3186L55.597 20.5845C55.823 22.7067 55.3224 24.8774 54.0744 26.7215ZM39.255 35.8817C39.8995 36.4091 40.605 36.9115 41.3307 37.3565V37.9563H38.8448C38.8836 37.2452 39.0213 36.5508 39.255 35.8817ZM44.1655 32.3927C44.6978 33.0674 45.3989 33.6452 46.2471 34.0987C46.3714 34.1652 46.5207 34.1652 46.645 34.0987C47.4916 33.646 48.1918 33.0687 48.7236 32.3941V37.9563H44.1655V32.3927ZM50.7122 37.9563H49.5673V31.4392C51.2229 32.1883 52.5338 33.5008 53.2943 35.067C52.7564 35.5214 52.1671 35.9587 51.5559 36.3582C51.5559 35.7471 50.7122 35.776 50.7122 36.3266V37.9563ZM51.5559 37.9563V37.357C52.282 36.9118 52.9877 36.4093 53.6326 35.8816C53.8664 36.5507 54.004 37.2452 54.0428 37.9563H51.5559ZM48.3675 31.4359C47.9233 32.1514 47.2722 32.7659 46.446 33.2441C45.618 32.765 44.9659 32.1502 44.5215 31.4347C45.7543 31.6735 47.065 31.6864 48.3675 31.4359ZM58.0439 21.5688C58.0439 22.5783 57.2813 23.4124 56.3021 23.5268C56.4288 22.8852 56.4939 22.2303 56.4939 21.5728C56.4939 21.1431 56.4649 20.7096 56.4102 20.282C56.482 20.0811 56.5449 19.8765 56.5984 19.6694C57.4324 19.9024 58.0439 20.6767 58.0439 21.5688ZM34.8438 21.5688C34.8438 20.5659 35.6008 19.7215 36.5854 19.6102C36.3298 20.9095 36.3299 22.2325 36.5857 23.5274C35.6011 23.4162 34.8438 22.5721 34.8438 21.5688ZM40.1461 18.1739C39.6593 19.1442 38.7026 19.8115 37.4067 19.8115C37.499 19.3334 37.6279 18.8588 37.8113 18.3643C38.3619 18.2735 39.3327 18.1371 40.2999 17.8672L40.1461 18.1739ZM52.7335 18.1577C52.371 17.4345 51.7728 16.837 51.0492 16.4752C51.0164 16.4588 50.6738 16.286 50.6409 16.2736C47.9343 15.2587 44.9532 15.2587 42.2467 16.2736L40.9882 16.7456C40.986 16.7464 40.984 16.7475 40.9819 16.7483C40.9799 16.7491 40.9778 16.7496 40.9759 16.7505C39.7051 17.2733 38.0973 17.4469 37.4241 17.5755C37.3615 17.5875 37.2688 17.6314 37.2037 17.5293C37.1398 17.4295 37.2095 17.368 37.2807 17.2769C37.4788 17.0234 37.3309 16.6493 37.0128 16.6002L36.7809 16.5643C36.5499 16.5286 36.5028 16.2185 36.7132 16.116C36.9123 16.0192 37.1571 15.9432 37.1707 15.6487C37.1778 15.4944 37.1 15.3485 36.9679 15.2685C36.8055 15.1701 36.8181 14.9308 36.9904 14.8502L44.3115 11.4265C45.7068 10.7741 47.2857 10.6647 48.7574 11.1185L51.613 11.9991C54.8975 13.012 56.7177 16.4687 55.7017 19.7444L54.493 19.4926C53.7347 19.3347 53.0857 18.8598 52.7335 18.1577Z" fill="black"/>
<path d="M16.9945 5.97694L15.7015 4.51708C15.4818 4.26907 15.1146 4.2173 14.8349 4.39493C14.3969 4.67314 14.3117 5.27721 14.6558 5.66568L16.4755 7.72047C16.6323 7.89797 16.8774 8 17.1356 8C17.1604 8 17.1851 7.9993 17.2099 7.9972C17.4946 7.97554 17.7454 7.83019 17.8742 7.61356L21.4947 1.48127C21.7623 1.02811 21.5694 0.443016 21.0849 0.237724C20.7637 0.101632 20.3913 0.224335 20.2139 0.524734L16.9945 5.97694Z" fill="#A8A8A8"/>
</svg>
