<svg width="36" height="36" viewBox="0 0 36 36" fill="none" xmlns="http://www.w3.org/2000/svg">
<path d="M4.75 10.5C4.75 10.0858 5.08578 9.75 5.5 9.75H31.3C31.7142 9.75 32.05 10.0858 32.05 10.5V26.4C32.05 26.8142 31.7142 27.15 31.3 27.15H5.5C5.08579 27.15 4.75 26.8142 4.75 26.4V10.5Z" fill="black" stroke="black" stroke-width="1.5" stroke-linejoin="bevel"/>
<path d="M6.3501 10.25C5.74258 10.25 5.2501 10.7425 5.2501 11.35V25.55C5.2501 26.1575 5.74258 26.65 6.3501 26.65H30.4505C31.058 26.65 31.5505 26.1575 31.5505 25.55V11.35C31.5505 10.7425 31.058 10.25 30.4505 10.25H6.3501Z" fill="#BFBFBF" stroke="#BFBFBF" stroke-width="0.2" stroke-linejoin="bevel"/>
<path fill-rule="evenodd" clip-rule="evenodd" d="M24.2503 17.9998C25.99 17.9998 27.4003 16.5895 27.4003 14.8498C27.4003 13.1101 25.99 11.6998 24.2503 11.6998C22.5106 11.6998 21.1003 13.1101 21.1003 14.8498C21.1003 16.5895 22.5106 17.9998 24.2503 17.9998ZM24.2507 16.4246C25.1206 16.4246 25.8257 15.7195 25.8257 14.8496C25.8257 13.9798 25.1206 13.2746 24.2507 13.2746C23.3809 13.2746 22.6757 13.9798 22.6757 14.8496C22.6757 15.7195 23.3809 16.4246 24.2507 16.4246Z" fill="white"/>
<path d="M10.3032 14.5V18H12.2123V14.5C12.2123 13.8729 12.3301 13.2273 13.1032 13.2273C14.1214 13.2273 14.1214 14.0878 14.1214 14.5V18H16.4123V14.5C16.4123 13.8 16.555 13.2273 17.3032 13.2273C18.0514 13.2273 18.2425 13.7074 18.2425 14.5V18H20.1032V14.5C20.1032 12.7756 19.0532 11.7 17.3032 11.7C16.1832 11.7 15.4365 12.1666 15.2032 12.4C14.9699 12.1666 14.2232 11.7 13.1032 11.7C11.3532 11.7 10.2327 13.1 10.3032 14.5Z" fill="white"/>
<path d="M10.3032 21.7V25.2H12.2123V21.7C12.2123 21.0729 12.3301 20.4273 13.1032 20.4273C14.1214 20.4273 14.1214 21.2879 14.1214 21.7V25.2H16.4123V21.7C16.4123 21 16.555 20.4273 17.3032 20.4273C18.0514 20.4273 18.2425 20.9074 18.2425 21.7V25.2H20.1032V21.7C20.1032 19.9756 19.0532 18.9 17.3032 18.9C16.1832 18.9 15.4365 19.3667 15.2032 19.6C14.9699 19.3667 14.2232 18.9 13.1032 18.9C11.3532 18.9 10.2327 20.3 10.3032 21.7Z" fill="white"/>
<path fill-rule="evenodd" clip-rule="evenodd" d="M24.2503 25.2001C25.99 25.2001 27.4003 23.7898 27.4003 22.0501C27.4003 20.3104 25.99 18.9001 24.2503 18.9001C22.5106 18.9001 21.1003 20.3104 21.1003 22.0501C21.1003 23.7898 22.5106 25.2001 24.2503 25.2001ZM24.2507 23.6252C25.1206 23.6252 25.8257 22.92 25.8257 22.0502C25.8257 21.1803 25.1206 20.4752 24.2507 20.4752C23.3809 20.4752 22.6757 21.1803 22.6757 22.0502C22.6757 22.92 23.3809 23.6252 24.2507 23.6252Z" fill="white"/>
<rect x="12" y="9" width="2" height="1" fill="white"/>
<rect x="24" y="27" width="3" height="1" fill="white"/>
</svg>
