<svg width="36" height="36" viewBox="0 0 36 36" fill="none" xmlns="http://www.w3.org/2000/svg">
<path d="M4.75 10.5C4.75 10.0858 5.08578 9.75 5.5 9.75H31.3C31.7142 9.75 32.05 10.0858 32.05 10.5V26.4C32.05 26.8142 31.7142 27.15 31.3 27.15H5.5C5.08579 27.15 4.75 26.8142 4.75 26.4V10.5Z" fill="black" stroke="black" stroke-width="1.5" stroke-linejoin="bevel"/>
<path d="M6.3501 10.25C5.74258 10.25 5.2501 10.7425 5.2501 11.35V25.55C5.2501 26.1575 5.74258 26.65 6.3501 26.65H30.4505C31.058 26.65 31.5505 26.1575 31.5505 25.55V11.35C31.5505 10.7425 31.058 10.25 30.4505 10.25H6.3501Z" fill="#AF016C" stroke="#AF016C" stroke-width="0.2" stroke-linejoin="bevel"/>
<path d="M11.0027 21.3069V24.3157H12.6439V21.3069C12.6439 20.7679 12.7452 20.2128 13.4097 20.2128C14.285 20.2128 14.285 20.9526 14.285 21.3069V24.3157H16.2544V21.3069C16.2544 20.7052 16.3771 20.2128 17.0203 20.2128C17.6634 20.2128 17.8277 20.6256 17.8277 21.3069V24.3157H19.4273V21.3069C19.4273 19.8246 18.5246 18.8999 17.0203 18.8999C16.0574 18.8999 15.4156 19.3011 15.215 19.5017C15.0144 19.3011 14.3725 18.8999 13.4097 18.8999C11.9053 18.8999 10.9421 20.1034 11.0027 21.3069Z" fill="white"/>
<path fill-rule="evenodd" clip-rule="evenodd" d="M22.9921 24.3157C24.4876 24.3157 25.7 23.1033 25.7 21.6078C25.7 20.1123 24.4876 18.8999 22.9921 18.8999C21.4965 18.8999 20.2842 20.1123 20.2842 21.6078C20.2842 23.1033 21.4965 24.3157 22.9921 24.3157ZM22.9921 22.9619C23.7399 22.9619 24.3461 22.3557 24.3461 21.608C24.3461 20.8602 23.7399 20.254 22.9921 20.254C22.2444 20.254 21.6382 20.8602 21.6382 21.608C21.6382 22.3557 22.2444 22.9619 22.9921 22.9619Z" fill="white"/>
<path d="M11.0027 14.407V17.4158H12.6439V14.407C12.6439 13.868 12.7452 13.3129 13.4097 13.3129C14.285 13.3129 14.285 14.0527 14.285 14.407V17.4158H16.2544V14.407C16.2544 13.8053 16.3771 13.3129 17.0203 13.3129C17.6634 13.3129 17.8277 13.7257 17.8277 14.407V17.4158H19.4273V14.407C19.4273 12.9247 18.5246 12 17.0203 12C16.0574 12 15.4156 12.4012 15.215 12.6018C15.0144 12.4012 14.3725 12 13.4097 12C11.9053 12 10.9421 13.2035 11.0027 14.407Z" fill="white"/>
<path fill-rule="evenodd" clip-rule="evenodd" d="M22.9921 17.4158C24.4876 17.4158 25.7 16.2034 25.7 14.7079C25.7 13.2124 24.4876 12 22.9921 12C21.4965 12 20.2842 13.2124 20.2842 14.7079C20.2842 16.2034 21.4965 17.4158 22.9921 17.4158ZM22.9921 16.062C23.7399 16.062 24.3461 15.4558 24.3461 14.7081C24.3461 13.9603 23.7399 13.3541 22.9921 13.3541C22.2444 13.3541 21.6382 13.9603 21.6382 14.7081C21.6382 15.4558 22.2444 16.062 22.9921 16.062Z" fill="white"/>
<path d="M12 9H14.5V10H12V9Z" fill="white"/>
<path d="M24.5 27H27V28H24.5V27Z" fill="white"/>
<circle cx="14.5" cy="9.5" r="0.5" fill="black"/>
<path d="M27.5 27.5C27.5 27.7761 27.2761 28 27 28C26.7239 28 26.5 27.7761 26.5 27.5C26.5 27.2239 26.7239 27 27 27C27.2761 27 27.5 27.2239 27.5 27.5Z" fill="black"/>
<path d="M12.5 9.5C12.5 9.77614 12.2761 10 12 10C11.7239 10 11.5 9.77614 11.5 9.5C11.5 9.22386 11.7239 9 12 9C12.2761 9 12.5 9.22386 12.5 9.5Z" fill="black"/>
<path d="M25 27.5C25 27.7761 24.7761 28 24.5 28C24.2239 28 24 27.7761 24 27.5C24 27.2239 24.2239 27 24.5 27C24.7761 27 25 27.2239 25 27.5Z" fill="black"/>
</svg>
