<svg width="36" height="36" viewBox="0 0 36 36" fill="none" xmlns="http://www.w3.org/2000/svg">
<path d="M2.75 9.57944C2.75 9.16522 3.08579 8.82944 3.5 8.82944H32.3789C32.7931 8.82944 33.1289 9.16522 33.1289 9.57944V27.5C33.1289 27.9142 32.7931 28.25 32.3789 28.25H3.5C3.08579 28.25 2.75 27.9142 2.75 27.5V9.57944Z" fill="black" stroke="black" stroke-width="1.5" stroke-linejoin="bevel"/>
<path fill-rule="evenodd" clip-rule="evenodd" d="M3.4939 10.5739C3.4939 10.0216 3.94161 9.57388 4.4939 9.57388H31.3846C31.9369 9.57388 32.3846 10.0216 32.3846 10.5739V26.5058C32.3846 27.0581 31.9369 27.5058 31.3846 27.5058H4.49389C3.94161 27.5058 3.4939 27.0581 3.4939 26.5058V10.5739Z" fill="white"/>
<g filter="url(#filter0_d_5_12059)">
<path d="M20.6361 25.1935C20.1686 26.0539 19.0061 26.231 18.2867 25.5515L8.79526 16.5861C7.87377 15.7157 8.36389 14.1794 9.61445 14.0183L25.059 12.0293C26.2778 11.8723 27.173 13.1651 26.5893 14.2391L20.6361 25.1935Z" fill="url(#paint0_linear_5_12059)"/>
</g>
<path d="M25.2973 16.7948C26.2795 17.361 26.316 18.7608 25.3642 19.3601L14.6828 26.0853C13.7144 26.695 12.4375 26.0311 12.3743 24.885L11.6407 11.5791C11.5754 10.3943 12.8492 9.61863 13.8823 10.2142L25.2973 16.7948Z" fill="url(#paint1_linear_5_12059)" fill-opacity="0.8"/>
<g filter="url(#filter1_d_5_12059)">
<path d="M14.3582 16.2696C14.3278 16.3044 14.2747 16.3314 14.1987 16.3509C14.1245 16.3703 14.0435 16.38 13.9557 16.38C13.9557 16.38 13.9726 16.3693 13.9 16.3509C13.8275 16.3325 13.8453 16.3044 13.8132 16.2696C13.5601 15.9865 13.3247 15.7085 13.1071 15.4356C13.0817 15.4029 13.0691 15.3778 13.0691 15.3605C13.0691 15.3053 13.1104 15.2777 13.1931 15.2777L13.6697 15.2777C13.7321 15.2777 13.7794 15.2843 13.8115 15.2976C13.8452 15.3109 13.8747 15.3375 13.9 15.3773L14.1456 15.7575C14.1557 15.7739 14.1743 15.7821 14.2012 15.7821C14.2282 15.7821 14.2485 15.7739 14.262 15.7575L14.5936 15.3221C14.6155 15.2945 14.6391 15.2792 14.6644 15.2762C14.6746 15.2751 14.6923 15.2746 14.7176 15.2746L15.0087 15.2777C15.0407 15.2777 15.0635 15.2869 15.077 15.3053C15.0821 15.3124 15.0846 15.3211 15.0846 15.3313C15.0846 15.3416 15.0652 15.3697 15.0264 15.4157C14.9893 15.4617 14.8906 15.5894 14.7303 15.7989C14.5716 16.0085 14.4476 16.1654 14.3582 16.2696Z" fill="white"/>
<path d="M15.0838 15.2748L15.1784 15.2744C15.2493 15.2744 15.2957 15.2851 15.3177 15.3065C15.3413 15.328 15.3565 15.3725 15.3632 15.4399C15.3717 15.5064 15.3759 15.6362 15.3759 15.8293C15.3759 16.0215 15.3691 16.1625 15.3556 16.2525C15.3506 16.276 15.3328 16.2969 15.3025 16.3153C15.2738 16.3337 15.235 16.344 15.186 16.346C15.0899 16.3501 15.4442 16.3521 15.3177 16.3521C15.1911 16.3521 15.1892 16.3505 15.0762 16.3465C15.0272 16.3444 14.9876 16.3342 14.9572 16.3158C14.9285 16.2974 14.9117 16.2764 14.9066 16.2529C14.8931 16.163 14.8863 16.0219 14.8863 15.8298C14.8863 15.6366 14.8897 15.5068 14.8965 15.4404C14.9049 15.3729 14.9201 15.3285 14.942 15.307C14.9657 15.2855 15.0129 15.2748 15.0838 15.2748Z" fill="white"/>
<path d="M19.3219 16.3755C19.2746 16.3755 19.2341 16.3663 19.2004 16.3479C19.1683 16.3285 19.1472 16.2973 19.1371 16.2544C19.1287 16.2105 19.1245 16.0801 19.1245 15.8635C19.1245 15.6458 19.1304 15.5037 19.1422 15.4373C19.1557 15.3514 19.2156 15.3075 19.3219 15.3054C19.4434 15.3034 19.2994 15.305 20.1853 15.305C20.2849 15.305 20.3346 15.3433 20.3346 15.4199C20.3346 15.4802 20.2908 15.5104 20.203 15.5104H19.6462C19.6107 15.5104 19.582 15.5175 19.5601 15.5319C19.5399 15.5462 19.5297 15.5646 19.5297 15.587V15.6974C19.5297 15.7281 19.5525 15.7434 19.5981 15.7434H20.0587C20.0857 15.7434 20.106 15.745 20.1195 15.748C20.1347 15.7511 20.1482 15.7603 20.16 15.7756C20.1718 15.7899 20.1777 15.8139 20.1777 15.8477C20.1777 15.8814 20.1676 15.9039 20.1473 15.9151C20.1288 15.9264 20.0976 15.932 20.0537 15.932H19.6411C19.5989 15.932 19.5694 15.9386 19.5525 15.9519C19.5373 15.9642 19.5297 15.9836 19.5297 16.0102V16.0853C19.5297 16.1293 19.5643 16.1512 19.6335 16.1512L20.8009 16.1541C20.8313 16.1541 20.8583 16.1597 20.8819 16.1709C20.9055 16.1812 20.9173 16.2047 20.9173 16.2415C20.9173 16.2772 20.903 16.3094 20.8743 16.3381C20.8456 16.3667 20.8119 16.381 20.7731 16.381L19.3219 16.3755Z" fill="white"/>
<path d="M21.1221 15.6727L21.1196 15.9793C21.1196 16.0243 21.1306 16.058 21.1525 16.0805C21.1761 16.102 21.2242 16.1127 21.2968 16.1127H21.9372C22.0148 16.1137 22.0536 16.1495 22.0536 16.22C22.0536 16.2742 22.0426 16.3135 22.0207 16.3381C21.9988 16.3626 21.954 16.3754 21.8865 16.3764C21.6486 16.3805 21.4132 16.3825 21.1804 16.3825C20.9475 16.3825 21.0992 16.3834 20.7381 16.3813C20.6774 16.3813 20.6276 16.3727 20.5888 16.3553C20.5517 16.3369 20.5306 16.3118 20.5255 16.2802C20.512 16.1912 20.5053 16.0512 20.5053 15.8601C20.5053 15.6679 20.5086 15.5386 20.5154 15.4722C20.5238 15.4048 20.5399 15.3603 20.5635 15.3388C20.5871 15.3163 20.6335 15.3051 20.7027 15.3051L20.9323 15.3032C21.0032 15.3032 21.0496 15.3144 21.0715 15.3369C21.0951 15.3594 21.1095 15.3957 21.1145 15.4458C21.1196 15.4959 21.1221 15.5715 21.1221 15.6727Z" fill="white"/>
<path d="M17.6017 16.2601C17.6 16.2825 17.584 16.3035 17.5536 16.3229C17.5233 16.3413 17.4828 16.3515 17.4321 16.3536C17.336 16.3577 17.5217 16.3557 17.3867 16.3557C17.2517 16.3557 17.4997 16.3598 17.3867 16.3557C17.336 16.3537 17.2956 16.3435 17.2652 16.3251C17.2348 16.3057 17.2188 16.2847 17.2171 16.2622C17.212 16.1069 17.2171 15.9163 17.2171 15.807C17.2171 15.6966 17.2179 15.6158 17.2196 15.5647C17.2196 15.5259 17.1909 15.5065 17.1336 15.5065H16.9058C16.8703 15.5065 16.8416 15.5014 16.8197 15.4911C16.7978 15.4809 16.7851 15.463 16.7817 15.4375C16.78 15.4119 16.7792 15.3854 16.7792 15.3578C16.7792 15.3302 16.7848 15.4052 16.7865 15.3858C16.7899 15.3654 16.8034 15.35 16.827 15.3398C16.8523 15.3286 16.8793 15.3229 16.908 15.3229C17.1273 15.3209 16.751 15.3177 17.1256 15.3177C17.5002 15.3177 17.7685 15.3187 17.9305 15.3208C17.9592 15.3218 17.9853 15.3274 18.0089 15.3376C18.0342 15.3479 18.0477 15.3632 18.0494 15.3836C18.0528 15.4031 18.0497 15.3275 18.0497 15.3541C18.0497 15.3806 18.0489 15.4062 18.0472 15.4307C18.0422 15.4767 18.0008 15.4997 17.9232 15.4997H17.6954C17.638 15.4997 17.6093 15.5176 17.6093 15.5534C17.6144 15.6822 17.6169 15.7987 17.6169 15.9029C17.6169 16.0072 17.6068 16.165 17.6017 16.2601Z" fill="white"/>
<path d="M15.7285 16.3833C15.6812 16.3833 15.6407 16.3741 15.607 16.3557C15.5749 16.3363 15.5538 16.3051 15.5437 16.2622C15.5353 16.2183 15.5311 16.088 15.5311 15.8713C15.5311 15.6536 15.537 15.5115 15.5488 15.4451C15.5623 15.3592 15.6222 15.3153 15.7285 15.3132C15.85 15.3112 16.1882 15.3103 17.0741 15.3103C17.1737 15.3103 17.2235 15.3486 17.2235 15.4253C17.2235 15.4856 17.1796 15.5157 17.0919 15.5157L16.0528 15.5182C16.0173 15.5182 15.9886 15.5254 15.9667 15.5397C15.9465 15.554 15.9363 15.5724 15.9363 15.5949V15.7053C15.9363 15.7359 15.9591 15.7512 16.0047 15.7512H16.4653C16.4923 15.7512 16.5126 15.7528 16.5261 15.7558C16.5413 15.7589 16.5548 15.7681 16.5666 15.7834C16.5784 15.7977 16.5843 15.8218 16.5843 15.8555C16.5843 15.8892 16.5742 15.9117 16.5539 15.923C16.5354 15.9342 16.5042 15.9398 16.4603 15.9398H16.0477C16.0055 15.9398 15.976 15.9465 15.9591 15.9597C15.9439 15.972 15.9363 15.9914 15.9363 16.018V16.0931C15.9363 16.1371 15.9709 16.1591 16.0401 16.1591H16.7412C16.7716 16.1591 16.7986 16.1647 16.8222 16.1759C16.8459 16.1861 16.8577 16.2096 16.8577 16.2464C16.8577 16.2822 16.8433 16.3144 16.8146 16.343C16.786 16.3716 16.7522 16.386 16.7134 16.386L15.7285 16.3833Z" fill="white"/>
<path d="M18.7173 16.2627C18.7156 16.2852 18.6995 16.3061 18.6692 16.3256C18.6388 16.344 18.5983 16.3542 18.5477 16.3562C18.4515 16.3603 18.6372 16.3584 18.5022 16.3584C18.3672 16.3584 18.6153 16.3625 18.5022 16.3584C18.4516 16.3563 18.4111 16.3461 18.3807 16.3277C18.3503 16.3083 18.3343 16.2874 18.3326 16.2649C18.3275 16.1095 18.3326 15.919 18.3326 15.8096C18.3326 15.6992 18.3335 15.6185 18.3351 15.5674C18.3351 15.5285 18.3065 15.5091 18.2491 15.5091H18.0213C17.9858 15.5091 17.9572 15.504 17.9352 15.4938C17.9133 15.4836 17.9006 15.4657 17.8973 15.4401C17.8956 15.4146 17.8947 15.388 17.8947 15.3604C17.8947 15.3328 17.9003 15.4079 17.902 15.3885C17.9054 15.368 17.9189 15.3527 17.9425 15.3425C17.9678 15.3312 17.9948 15.3256 18.0235 15.3256C18.2429 15.3236 17.8665 15.3204 18.2411 15.3204C18.6157 15.3204 19.1579 15.3187 19.3199 15.3208C19.3486 15.3218 19.3747 15.3274 19.3984 15.3376C19.4237 15.3479 19.4372 15.3632 19.4389 15.3836C19.4422 15.4031 19.4392 15.3275 19.4392 15.3541C19.4392 15.3806 19.4383 15.4062 19.4366 15.4307C19.4316 15.4767 19.3902 15.4997 19.3126 15.4997L18.8109 15.5024C18.7535 15.5024 18.7249 15.5203 18.7249 15.556C18.7299 15.6848 18.7324 15.8013 18.7324 15.9056C18.7324 16.0098 18.7223 16.1677 18.7173 16.2627Z" fill="white"/>
</g>
<g filter="url(#filter2_d_5_12059)">
<path d="M14.0868 20.5764C14.0868 20.7046 13.9829 20.8086 13.8547 20.8086C13.7265 20.8086 13.6226 20.7046 13.6226 20.5764V17.5093C13.6226 17.3839 13.7243 17.2821 13.8497 17.2821C13.9752 17.2821 14.0769 17.3839 14.0769 17.5093V17.6476H14.0918C14.1675 17.5225 14.2778 17.4204 14.4227 17.3414C14.5708 17.2591 14.7421 17.2179 14.9363 17.2179C15.1108 17.2179 15.2689 17.2492 15.4105 17.3118C15.5553 17.3743 15.6788 17.4616 15.7809 17.5735C15.8862 17.6855 15.9669 17.8172 16.0229 17.9687C16.0789 18.1168 16.1068 18.2765 16.1068 18.4477C16.1068 18.619 16.0789 18.7803 16.0229 18.9318C15.9669 19.0832 15.8879 19.2149 15.7858 19.3269C15.6837 19.4388 15.5603 19.5277 15.4154 19.5936C15.2705 19.6561 15.1075 19.6874 14.9264 19.6874C14.7585 19.6874 14.6005 19.6512 14.4523 19.5788C14.3041 19.5063 14.1872 19.4042 14.1016 19.2725H14.0868V20.5764ZM15.6278 18.4477C15.6278 18.3391 15.6113 18.2337 15.5784 18.1316C15.5455 18.0296 15.4961 17.939 15.4302 17.86C15.3644 17.781 15.282 17.7184 15.1833 17.6723C15.0878 17.6262 14.9758 17.6032 14.8474 17.6032C14.7289 17.6032 14.6202 17.6262 14.5214 17.6723C14.426 17.7184 14.3436 17.781 14.2745 17.86C14.2054 17.939 14.151 18.0296 14.1115 18.1316C14.0753 18.2337 14.0572 18.3407 14.0572 18.4527C14.0572 18.5646 14.0753 18.6716 14.1115 18.7737C14.151 18.8758 14.2054 18.9663 14.2745 19.0454C14.3436 19.1211 14.426 19.182 14.5214 19.2281C14.6202 19.2742 14.7289 19.2972 14.8474 19.2972C14.9758 19.2972 15.0878 19.2742 15.1833 19.2281C15.282 19.1787 15.3644 19.1145 15.4302 19.0355C15.4961 18.9565 15.5455 18.8659 15.5784 18.7638C15.6113 18.6618 15.6278 18.5564 15.6278 18.4477Z" fill="white"/>
<path d="M16.412 18.514C16.412 18.323 16.4417 18.1452 16.5009 17.9806C16.5602 17.8126 16.6425 17.6678 16.7479 17.5459C16.8565 17.4241 16.9849 17.3286 17.1331 17.2595C17.2846 17.1903 17.4492 17.1558 17.627 17.1558C17.7752 17.1558 17.9085 17.1821 18.0271 17.2348C18.1489 17.2842 18.2542 17.3467 18.3431 17.4225V17.4175C18.3431 17.3057 18.4338 17.215 18.5456 17.215C18.6575 17.215 18.7481 17.3057 18.7481 17.4175V19.161C18.7481 19.2861 18.7481 18.5611 18.7481 19.4474C18.7481 19.4894 18.7481 19.5536 18.7481 19.6203C18.7481 19.743 18.6486 19.8425 18.5259 19.8425C18.4031 19.8425 18.3067 19.7431 18.3064 19.6203C18.3063 19.5771 18.3056 19.5267 18.3036 19.4657C18.2641 19.5183 18.2872 19.5281 18.2345 19.5808C18.1851 19.6302 18.1275 19.6746 18.0616 19.7141C17.9958 19.7536 17.9217 19.7849 17.8394 19.808C17.7571 19.831 17.6665 19.8425 17.5677 19.8425C17.4064 19.8425 17.2549 19.8113 17.1133 19.7487C16.9751 19.6861 16.8532 19.5972 16.7479 19.482C16.6458 19.3668 16.5635 19.2285 16.5009 19.0671C16.4417 18.9025 16.412 18.7181 16.412 18.514ZM17.6665 19.4474C17.7916 19.4474 17.9102 19.4178 18.0221 19.3585C18.1341 19.2993 18.2279 19.2219 18.3036 19.1264V17.7484C18.2147 17.6859 18.116 17.6365 18.0073 17.6003C17.9019 17.5608 17.79 17.541 17.6714 17.541C17.5529 17.541 17.4443 17.564 17.3455 17.6101C17.2467 17.6562 17.1611 17.7221 17.0887 17.8077C17.0195 17.89 16.9652 17.9904 16.9257 18.109C16.8862 18.2275 16.8664 18.3576 16.8664 18.4992C16.8664 18.6374 16.8862 18.7659 16.9257 18.8844C16.9652 18.9996 17.0212 19.1001 17.0936 19.1857C17.166 19.268 17.25 19.3322 17.3455 19.3783C17.4443 19.4244 17.5513 19.4474 17.6665 19.4474Z" fill="white"/>
<path d="M20.4468 19.0721H20.4567L21.0503 17.3865C21.0823 17.2956 21.1681 17.2348 21.2645 17.2348C21.4245 17.2348 21.5343 17.3959 21.4759 17.5449L20.4616 20.129C20.4221 20.2278 20.3793 20.315 20.3332 20.3908C20.2871 20.4698 20.2328 20.5356 20.1702 20.5883C20.1077 20.6443 20.0336 20.6871 19.948 20.7167C19.8656 20.7464 19.7669 20.7612 19.6516 20.7612C19.6022 20.7612 19.5512 20.7579 19.4985 20.7513C19.4097 20.7454 19.3526 20.6607 19.3622 20.5722L19.3644 20.5518C19.3775 20.4309 19.5004 20.3562 19.622 20.3562C19.7438 20.3562 19.8344 20.3216 19.8936 20.2525C19.9529 20.1866 20.0072 20.0911 20.0566 19.966L20.2048 19.5758L19.3431 17.5639C19.2764 17.4081 19.3907 17.2348 19.5602 17.2348C19.6571 17.2348 19.7442 17.294 19.7798 17.3841L20.4468 19.0721Z" fill="white"/>
</g>
<defs>
<filter id="filter0_d_5_12059" x="7.81836" y="12.0163" width="19.4539" height="15.451" filterUnits="userSpaceOnUse" color-interpolation-filters="sRGB">
<feFlood flood-opacity="0" result="BackgroundImageFix"/>
<feColorMatrix in="SourceAlpha" type="matrix" values="0 0 0 0 0 0 0 0 0 0 0 0 0 0 0 0 0 0 127 0" result="hardAlpha"/>
<feOffset dy="1"/>
<feGaussianBlur stdDeviation="0.25"/>
<feColorMatrix type="matrix" values="0 0 0 0 0 0 0 0 0 0 0 0 0 0 0 0 0 0 0.25 0"/>
<feBlend mode="normal" in2="BackgroundImageFix" result="effect1_dropShadow_5_12059"/>
<feBlend mode="normal" in="SourceGraphic" in2="effect1_dropShadow_5_12059" result="shape"/>
</filter>
<filter id="filter1_d_5_12059" x="12.9691" y="15.2744" width="9.18462" height="1.3116" filterUnits="userSpaceOnUse" color-interpolation-filters="sRGB">
<feFlood flood-opacity="0" result="BackgroundImageFix"/>
<feColorMatrix in="SourceAlpha" type="matrix" values="0 0 0 0 0 0 0 0 0 0 0 0 0 0 0 0 0 0 127 0" result="hardAlpha"/>
<feOffset dy="0.1"/>
<feGaussianBlur stdDeviation="0.05"/>
<feColorMatrix type="matrix" values="0 0 0 0 0 0 0 0 0 0.533333 0 0 0 0 0.568627 0 0 0 1 0"/>
<feBlend mode="normal" in2="BackgroundImageFix" result="effect1_dropShadow_5_12059"/>
<feBlend mode="normal" in="SourceGraphic" in2="effect1_dropShadow_5_12059" result="shape"/>
</filter>
<filter id="filter2_d_5_12059" x="13.5226" y="17.1558" width="8.06914" height="3.85277" filterUnits="userSpaceOnUse" color-interpolation-filters="sRGB">
<feFlood flood-opacity="0" result="BackgroundImageFix"/>
<feColorMatrix in="SourceAlpha" type="matrix" values="0 0 0 0 0 0 0 0 0 0 0 0 0 0 0 0 0 0 127 0" result="hardAlpha"/>
<feOffset dy="0.1"/>
<feGaussianBlur stdDeviation="0.05"/>
<feColorMatrix type="matrix" values="0 0 0 0 0.00392157 0 0 0 0 0.533333 0 0 0 0 0.568627 0 0 0 1 0"/>
<feBlend mode="normal" in2="BackgroundImageFix" result="effect1_dropShadow_5_12059"/>
<feBlend mode="normal" in="SourceGraphic" in2="effect1_dropShadow_5_12059" result="shape"/>
</filter>
<linearGradient id="paint0_linear_5_12059" x1="27.2869" y1="22.4687" x2="12.6971" y2="11.9415" gradientUnits="userSpaceOnUse">
<stop stop-color="#84FAA1"/>
<stop offset="1" stop-color="#F5F05A"/>
</linearGradient>
<linearGradient id="paint1_linear_5_12059" x1="12.8658" y1="11.3996" x2="14.4607" y2="25.2516" gradientUnits="userSpaceOnUse">
<stop stop-color="#20C69E"/>
<stop offset="1" stop-color="#00B7E6"/>
</linearGradient>
</defs>
</svg>
