<svg width="36" height="36" viewBox="0 0 36 36" fill="none" xmlns="http://www.w3.org/2000/svg">
<g clip-path="url(#clip0_5_12429)">
<path d="M18.3984 28.8514C19.7021 28.8514 20.7589 27.7945 20.7589 26.4908C20.7589 25.1871 19.7021 24.1303 18.3984 24.1303C17.0947 24.1303 16.0378 25.1871 16.0378 26.4908C16.0378 27.7945 17.0947 28.8514 18.3984 28.8514Z" fill="#262626"/>
<path d="M6.13261 14.3071C5.78245 14.3071 5.43235 14.1735 5.16513 13.9064C4.63083 13.3721 4.63083 12.5058 5.16513 11.9715C8.69476 8.44189 13.3946 6.49805 18.3988 6.49805C23.4031 6.49805 28.1029 8.44189 31.6325 11.9715C32.1668 12.5058 32.1668 13.3721 31.6325 13.9064C31.0982 14.4406 30.232 14.4407 29.6977 13.9064C26.6849 10.8935 22.6722 9.23438 18.3988 9.23438C14.1255 9.23438 10.1128 10.8936 7.10001 13.9064C6.83286 14.1735 6.4827 14.3071 6.13261 14.3071Z" fill="#E4E4E4"/>
<path d="M10.0017 18.6054C9.65159 18.6054 9.30143 18.4719 9.03427 18.2047C8.49997 17.6704 8.49997 16.8041 9.03427 16.2698C11.5319 13.7722 14.8574 12.3967 18.3983 12.3967C21.9391 12.3967 25.2647 13.7721 27.7623 16.2698C28.2966 16.8041 28.2966 17.6703 27.7623 18.2046C27.228 18.7389 26.3618 18.7389 25.8274 18.2046C23.8467 16.2238 21.2083 15.1329 18.3984 15.1329C15.5884 15.133 12.9501 16.2239 10.9693 18.2046C10.7021 18.4719 10.3519 18.6054 10.0017 18.6054Z" fill="#8A8A8A"/>
<path d="M22.9253 22.9035C22.5751 22.9035 22.2249 22.7699 21.9578 22.5028C21.0071 21.552 19.7429 21.0284 18.3984 21.0284C17.0538 21.0284 15.7898 21.552 14.839 22.5028C14.3047 23.0371 13.4385 23.0371 12.9042 22.5028C12.3698 21.9685 12.3699 21.1022 12.9041 20.5679C14.3717 19.1003 16.3229 18.2921 18.3983 18.2921C20.4738 18.2921 22.425 19.1003 23.8926 20.5679C24.4269 21.1022 24.4269 21.9685 23.8926 22.5028C23.6255 22.7699 23.2754 22.9035 22.9253 22.9035Z" fill="#4D4D4D"/>
<path d="M16.3777 24.4695C15.2631 25.5841 15.2631 27.3975 16.3777 28.5121C16.9176 29.0521 17.6354 29.3494 18.3989 29.3494C19.1626 29.3494 19.8804 29.052 20.4203 28.5121C21.5349 27.3975 21.5349 25.5841 20.4203 24.4695C19.8804 23.9295 19.1626 23.6322 18.3989 23.6322C17.6354 23.6322 16.9176 23.9296 16.3777 24.4695ZM19.716 27.8078C19.3642 28.1596 18.8965 28.3533 18.3989 28.3533C17.9015 28.3533 17.4337 28.1596 17.082 27.8078C16.3558 27.0816 16.3558 25.9 17.082 25.1739C17.4337 24.8221 17.9015 24.6283 18.3989 24.6283C18.8965 24.6283 19.3642 24.822 19.716 25.1739C20.4421 25.9 20.4421 27.0816 19.716 27.8078Z" fill="black"/>
<path d="M6.1317 14.8051C6.63021 14.8051 7.09884 14.611 7.45133 14.2585C10.3701 11.3398 14.2577 9.73243 18.398 9.73243C22.5383 9.73243 26.4259 11.3399 29.3446 14.2585C30.0722 14.9862 31.2561 14.9862 31.9839 14.2585C32.7115 13.5309 32.7115 12.347 31.9839 11.6193C28.3602 7.99564 23.5352 6 18.398 6C13.2606 6 8.43567 7.99564 4.81201 11.6194C4.08446 12.347 4.08446 13.5309 4.81208 14.2586C5.16456 14.611 5.63326 14.8051 6.1317 14.8051ZM5.51638 12.3237C8.95191 8.88814 13.5267 6.99609 18.398 6.99609C23.2692 6.99609 27.844 8.88814 31.2795 12.3237C31.6188 12.6629 31.6188 13.215 31.2796 13.5542C30.9403 13.8934 30.3882 13.8934 30.049 13.5542C26.9422 10.4474 22.8045 8.73634 18.398 8.73634C13.9915 8.73634 9.85384 10.4474 6.74695 13.5542C6.58267 13.7186 6.36412 13.809 6.1317 13.809C5.89928 13.809 5.68074 13.7185 5.51638 13.5542C5.17718 13.2149 5.17718 12.6629 5.51638 12.3237Z" fill="black"/>
<path d="M8.68213 15.9177C7.95459 16.6453 7.95459 17.8292 8.68213 18.5569C9.03469 18.9094 9.50331 19.1034 10.0018 19.1034C10.5001 19.1034 10.9688 18.9093 11.3214 18.5569C13.2081 16.6701 15.7213 15.6311 18.3983 15.631C21.0753 15.631 23.5885 16.6701 25.4752 18.5569C26.2029 19.2845 27.3869 19.2844 28.1145 18.5569C28.842 17.8292 28.842 16.6453 28.1145 15.9176C25.5228 13.326 22.0722 11.8986 18.3983 11.8986C14.7244 11.8986 11.2738 13.326 8.68213 15.9177ZM27.4102 17.8525C27.0709 18.1917 26.5189 18.1917 26.1796 17.8525C24.1047 15.7776 21.3413 14.6349 18.3983 14.6349C15.4552 14.635 12.6918 15.7777 10.6171 17.8525C10.4527 18.0168 10.2342 18.1073 10.0018 18.1073C9.76934 18.1073 9.55079 18.0168 9.38651 17.8525C9.04724 17.5133 9.04724 16.9612 9.38651 16.622C11.7901 14.2185 14.9905 12.8947 18.3984 12.8947C21.8061 12.8947 25.0066 14.2184 27.4102 16.6219C27.7494 16.9612 27.7494 17.5132 27.4102 17.8525Z" fill="black"/>
<path d="M32.4237 33.2538H29.2243C29.5477 32.6493 29.7219 31.9686 29.7219 31.2772V28.1969C29.7219 27.9218 29.4989 27.6989 29.2239 27.6989C28.9488 27.6989 28.7258 27.9218 28.7258 28.1969V31.2772C28.7258 32.0034 28.4881 32.6864 28.0386 33.2538H14.2943C14.0193 33.2538 13.7963 33.4768 13.7963 33.7518C13.7963 34.0269 14.0193 34.2499 14.2943 34.2499H32.4236C32.4336 34.2499 32.4416 34.258 32.4416 34.2679V35.6554C32.4416 36.3293 31.8934 36.8775 31.2195 36.8775H2.77976C2.10587 36.8775 1.55762 36.3293 1.55762 35.6554V34.2679C1.55762 34.2579 1.56572 34.2499 1.57561 34.2499H12.0018C12.2768 34.2499 12.4998 34.0269 12.4998 33.7518C12.4998 33.4768 12.2768 33.2538 12.0018 33.2538H8.67185C8.66309 33.2396 8.65352 33.2256 8.64316 33.2122C8.21504 32.6528 7.9888 31.9837 7.9888 31.2772V21.4479C7.9888 21.3383 8.07805 21.249 8.18768 21.249H12.0272C12.0129 21.3429 12.0053 21.4385 12.0054 21.5353C12.0054 22.0338 12.1995 22.5024 12.552 22.8549C13.2795 23.5824 14.4635 23.5825 15.1912 22.8549C16.0478 21.9982 17.1868 21.5265 18.3983 21.5265C19.6098 21.5265 20.7488 21.9982 21.6055 22.8549C21.9579 23.2074 22.4266 23.4015 22.9251 23.4015C23.4236 23.4015 23.8922 23.2074 24.2448 22.8549C24.6815 22.4182 24.8557 21.8172 24.7682 21.2491H28.5269C28.6365 21.2491 28.7257 21.3383 28.7257 21.448V25.9044C28.7257 26.1795 28.9487 26.4025 29.2238 26.4025C29.4988 26.4025 29.7218 26.1795 29.7218 25.9044V21.448C29.7218 20.7891 29.1857 20.253 28.5269 20.253H24.3708C24.3423 20.253 24.3145 20.2559 24.2873 20.2605C24.2733 20.2455 24.2594 20.2303 24.2448 20.2157C22.6832 18.6541 20.6068 17.794 18.3984 17.794C16.1899 17.794 14.1136 18.6541 12.552 20.2157C12.5398 20.2279 12.5283 20.2406 12.5165 20.253H8.18775C7.52887 20.253 6.99277 20.7891 6.99277 21.448V22.3055H5.26847C3.17322 22.3055 1.46857 24.0101 1.46857 26.1054V27.6488C1.46857 29.7442 3.17322 31.4488 5.26847 31.4488H6.99616C7.02159 32.0874 7.1892 32.6995 7.48783 33.2538H1.57561C1.01641 33.2538 0.561523 33.7088 0.561523 34.2679V35.6554C0.561523 36.8785 1.55662 37.8736 2.77976 37.8736H4.08829C4.77009 39.1693 6.13693 39.9999 7.6059 39.9999H19.705C19.98 39.9999 20.203 39.7769 20.203 39.5018C20.203 39.2268 19.98 39.0038 19.705 39.0038H7.6059C6.67561 39.0038 5.82621 38.5826 5.26959 37.8736H28.73C28.173 38.5825 27.3228 39.0038 26.3935 39.0038H21.9975C21.7225 39.0038 21.4995 39.2268 21.4995 39.5018C21.4995 39.7769 21.7225 39.9999 21.9975 39.9999H26.3935C27.884 39.9999 29.2216 39.1879 29.9109 37.8736H31.2196C32.4427 37.8736 33.4378 36.8785 33.4378 35.6553V34.2678C33.4378 33.7087 32.9828 33.2538 32.4237 33.2538ZM18.3984 18.7901C20.3408 18.7901 22.1669 19.5465 23.5405 20.92C23.8797 21.2592 23.8797 21.8113 23.5405 22.1505C23.3761 22.3149 23.1576 22.4053 22.9252 22.4053C22.6927 22.4053 22.4742 22.3148 22.3099 22.1505C21.2651 21.1057 19.876 20.5303 18.3984 20.5303C16.9208 20.5303 15.5317 21.1057 14.4868 22.1505C14.1476 22.4897 13.5955 22.4897 13.2563 22.1505C13.092 21.9862 13.0015 21.7676 13.0015 21.5353C13.0015 21.3029 13.092 21.0844 13.2563 20.92C14.6298 19.5465 16.4559 18.7901 18.3984 18.7901ZM6.9927 28.7104H5.26847C4.68316 28.7104 4.20696 28.2342 4.20696 27.6488V26.1054C4.20696 25.5201 4.68316 25.0439 5.26847 25.0439H6.9927V28.7104ZM2.46466 27.6488V26.1054C2.46466 24.5593 3.72246 23.3015 5.26847 23.3015H6.9927V24.0478H5.26847C4.13391 24.0478 3.21087 24.9708 3.21087 26.1054V27.6488C3.21087 28.7833 4.13391 29.7064 5.26847 29.7064H6.9927V30.4527H5.26847C3.72246 30.4527 2.46466 29.1949 2.46466 27.6488Z" fill="black"/>
<rect y="30" width="34" height="10" fill="white"/>
<rect y="20" width="11" height="10" fill="white"/>
<rect x="26" y="20" width="5" height="10" fill="white"/>
<path d="M25 22C25 21.5 24.1818 20.0873 23.9545 19.8155V19L26.5 20L26 21.4465C25.5455 21.7183 25 22.6524 25 22Z" fill="white"/>
<path d="M13.9991 19.0005L14 19L11.6818 19.8155L10.5 20.5C10.9545 21.3155 12 22.8048 12 21.5C12 20.196 13.5435 19.273 13.9991 19.0005Z" fill="white"/>
</g>
<defs>
<clipPath id="clip0_5_12429">
<rect width="36" height="36" fill="white"/>
</clipPath>
</defs>
</svg>
