<svg width="36" height="36" viewBox="0 0 36 36" fill="none" xmlns="http://www.w3.org/2000/svg">
<path d="M18.0577 3.42188C10.7978 3.42188 4.92163 9.31536 4.92163 16.5579C4.92163 19.4063 5.28984 22.1741 6.88987 24.4393C7.17546 24.8436 7.63766 25.0867 8.13266 25.0867L27.9828 25.0866C28.4778 25.0866 28.94 24.8436 29.2256 24.4392C30.8256 22.1741 31.1938 19.4062 31.1938 16.5579C31.1938 9.29724 25.3006 3.42188 18.0577 3.42188Z" fill="#A8A8A8"/>
<path d="M13.9892 15.8843C13.9892 10.4532 17.4638 5.83438 22.311 4.12725C20.9764 3.67028 19.5456 3.42188 18.0577 3.42188C10.7978 3.42188 4.92163 9.31536 4.92163 16.5579C4.92163 19.4063 5.28984 22.1741 6.88987 24.4393C7.17546 24.8436 7.63766 25.0867 8.13266 25.0867H18.048C15.554 22.8078 13.9892 19.5289 13.9892 15.8843Z" fill="#595959"/>
<path d="M22.1297 27.2902C21.3786 26.347 20.3129 25.6692 19.0948 25.4206C18.7597 25.3523 18.4131 25.3164 18.0584 25.3164C16.4139 25.3164 14.9448 26.0877 13.9871 27.2902C13.2684 28.1926 12.8376 29.3379 12.8376 30.5829V31.3791H18.0584H23.2792V30.5829C23.2792 30.1761 23.2332 29.7801 23.1462 29.3996C22.967 28.6155 22.6136 27.8978 22.1297 27.2902Z" fill="#C2C2C2"/>
<path d="M19.0957 25.4197C18.7606 25.3513 18.4141 25.3154 18.0593 25.3154C16.4148 25.3154 14.9457 26.0867 13.988 27.2892C13.5041 27.8969 13.1508 28.6145 12.9715 29.3987C12.8846 29.7791 12.8386 30.1752 12.8386 30.5819V31.3782H14.9131V30.5819C14.9131 28.04 16.7134 25.9064 19.0957 25.4197Z" fill="#989898"/>
<path d="M23.2791 30.5821V31.3784H21.2047V30.5821C21.2047 30.3899 21.1944 30.2001 21.1743 30.0131C21.8522 29.8569 22.5105 29.6509 23.1462 29.3989C23.2332 29.7795 23.2791 30.1753 23.2791 30.5821Z" fill="#E7E7E7"/>
<path d="M12.8376 30.582V31.3783H14.9121V30.582C14.9121 30.3898 14.9224 30.2001 14.9425 30.013C14.2646 29.8568 13.6062 29.6508 12.9706 29.3988C12.8835 29.7794 12.8376 30.1752 12.8376 30.582Z" fill="#D3D3D3"/>
<path d="M27.8247 14.2009H8.28893C6.9868 14.2009 5.93115 15.2565 5.93115 16.5587C5.93115 17.8609 6.98674 18.9165 8.28893 18.9165H27.8246C29.1267 18.9165 30.1824 17.8609 30.1824 16.5587C30.1824 15.2565 29.1268 14.2009 27.8247 14.2009Z" fill="#D3D3D3"/>
<path d="M19.6836 6.9261C19.1545 6.83739 18.6112 6.79048 18.0569 6.79048C17.5026 6.79048 16.9594 6.83739 16.4303 6.9261C11.81 7.70072 8.28906 11.718 8.28906 16.5584C8.28906 21.3987 11.81 25.416 16.4303 26.1906C16.9594 26.2793 17.5026 26.3262 18.0569 26.3262C18.6112 26.3262 19.1545 26.2793 19.6836 26.1906C24.3039 25.416 27.8248 21.3987 27.8248 16.5584C27.8248 11.718 24.3039 7.70072 19.6836 6.9261Z" fill="#E7E7E7"/>
<path d="M11.5292 16.5719C11.5292 11.723 15.0565 7.69847 19.6836 6.9261C19.1545 6.83739 18.6112 6.79048 18.0569 6.79048C17.5026 6.79048 16.9594 6.83739 16.4303 6.9261C11.81 7.70066 8.28906 11.718 8.28906 16.5583C8.28906 21.3986 11.81 25.416 16.4303 26.1905C16.9594 26.2792 17.5026 26.3262 18.0569 26.3262C18.6112 26.3262 19.1545 26.2792 19.6836 26.1905C15.0566 25.4182 11.5292 21.4207 11.5292 16.5719Z" fill="#D3D3D3"/>
<path d="M26.2882 10.4097C24.3716 7.84317 21.3362 6.28482 18.058 6.28482C14.7361 6.28482 11.7171 7.8794 9.82755 10.4102C9.01108 11.5037 8.57666 12.8355 8.57666 14.2002C9.693 13.9505 10.8173 13.7462 11.9459 13.586C12.2789 13.5388 12.5659 13.3275 12.7117 13.0244L13.2312 11.9444L13.6349 12.7404C13.8202 13.1056 14.2076 13.3224 14.6158 13.29C15.2363 13.2409 15.8576 13.2051 16.4793 13.1826C16.8652 13.1687 17.2091 12.9358 17.3655 12.5827L17.9468 11.2708L18.5253 12.5752C18.6826 12.9298 19.029 13.1628 19.4167 13.1749C20.3455 13.2039 21.2735 13.2625 22.1993 13.3511C22.5613 13.3858 22.9137 13.2224 23.1219 12.9243L23.3359 12.6181L23.6758 13.1555C23.8328 13.4038 24.0895 13.5732 24.38 13.6159C25.438 13.7715 26.4922 13.966 27.5394 14.2002C27.5394 12.8354 27.1047 11.5032 26.2882 10.4097Z" fill="#A8A8A8"/>
<path d="M18.4924 6.29506C18.3481 6.28898 18.2034 6.28482 18.0581 6.28482C14.7362 6.28482 11.7171 7.8794 9.82755 10.4101C9.01108 11.5036 8.57666 12.8354 8.57666 14.2001C9.693 13.9505 10.8173 13.7461 11.9459 13.586C12.2789 13.5387 12.5659 13.3274 12.7117 13.0244L13.2312 11.9444L13.635 12.7404C13.7661 12.9989 13.9987 13.1824 14.268 13.2564C14.8641 10.4798 16.3846 8.04657 18.4924 6.29506Z" fill="#595959"/>
<g opacity="0.5">
<path d="M12.6932 21.3319C13.7862 21.3319 14.6723 20.6262 14.6723 19.7558C14.6723 18.8854 13.7862 18.1797 12.6932 18.1797C11.6002 18.1797 10.7141 18.8854 10.7141 19.7558C10.7141 20.6262 11.6002 21.3319 12.6932 21.3319Z" fill="#A3A3A3"/>
<path d="M23.4212 21.3317C24.5143 21.3317 25.4003 20.626 25.4003 19.7556C25.4003 18.8852 24.5143 18.1795 23.4212 18.1795C22.3282 18.1795 21.4421 18.8852 21.4421 19.7556C21.4421 20.626 22.3282 21.3317 23.4212 21.3317Z" fill="#A3A3A3"/>
</g>
<path d="M13.8479 18.6603C14.0809 18.6603 14.2698 18.4714 14.2698 18.2384V17.4294C14.2698 17.1964 14.0809 17.0075 13.8479 17.0075C13.6149 17.0075 13.426 17.1964 13.426 17.4294V18.2384C13.426 18.4714 13.6149 18.6603 13.8479 18.6603Z" fill="black"/>
<path d="M22.2678 18.6603C22.5009 18.6603 22.6897 18.4714 22.6897 18.2384V17.4294C22.6897 17.1964 22.5009 17.0075 22.2678 17.0075C22.0348 17.0075 21.8459 17.1964 21.8459 17.4294V18.2384C21.8459 18.4714 22.0348 18.6603 22.2678 18.6603Z" fill="black"/>
<path d="M18.0586 19.1427C18.6059 19.1427 19.1264 18.9057 19.4866 18.4924C19.6397 18.3167 19.6214 18.0502 19.4458 17.8971C19.2701 17.744 19.0036 17.7623 18.8505 17.938C18.6506 18.1674 18.3619 18.2989 18.0585 18.2989C17.7551 18.2989 17.4665 18.1674 17.2666 17.938C17.1135 17.7624 16.847 17.7441 16.6713 17.8971C16.4957 18.0502 16.4774 18.3166 16.6304 18.4923C16.9907 18.9057 17.5113 19.1427 18.0586 19.1427Z" fill="black"/>
<path d="M18.0577 3C10.5818 3 4.49976 9.08203 4.49976 16.5579C4.49976 18.1882 4.61799 19.5065 4.87191 20.7067C5.19844 22.2503 5.74581 23.5508 6.54529 24.6827C6.91057 25.1998 7.50396 25.5086 8.13266 25.5086H13.1887C13.6282 25.7481 14.0846 25.9551 14.5537 26.1269C14.4563 26.2049 14.3611 26.2858 14.2689 26.3701C14.097 26.5274 14.0852 26.7943 14.2425 26.9662C14.3998 27.1381 14.6667 27.1499 14.8386 26.9925C15.0649 26.7854 15.311 26.6003 15.5716 26.4402C16.3954 26.647 17.2346 26.7476 18.0577 26.7476C18.8954 26.7476 19.7242 26.6459 20.5434 26.4403C21.5455 27.0557 22.2918 28.0193 22.639 29.1391C22.2723 29.2725 21.8987 29.3904 21.5212 29.4912C21.4327 29.0347 21.289 28.5914 21.0913 28.1681C20.9926 27.957 20.7415 27.8658 20.5305 27.9644C20.3194 28.063 20.2282 28.314 20.3268 28.5251C20.5532 29.0098 20.6969 29.5255 20.7541 30.0578C20.7877 30.3711 20.782 30.5658 20.782 30.9561H15.3332C15.3332 30.5677 15.3275 30.3711 15.3612 30.0578C15.4184 29.5255 15.5621 29.0099 15.7885 28.5251C15.8871 28.314 15.7959 28.063 15.5848 27.9644C15.3737 27.8659 15.1227 27.9571 15.024 28.1681C14.8264 28.5914 14.6825 29.0347 14.594 29.4912C14.217 29.3905 13.8437 29.2727 13.4774 29.1395C13.5778 28.8151 13.7114 28.5012 13.8778 28.2042C13.9917 28.001 13.9193 27.7439 13.7161 27.63C13.5129 27.5162 13.2557 27.5885 13.1418 27.7917C12.6664 28.64 12.415 29.6048 12.415 30.5818V31.3781C12.415 31.6111 12.6039 31.8 12.8369 31.8H23.2784C23.5115 31.8 23.7003 31.6111 23.7003 31.3781V30.5819C23.7003 30.151 23.652 29.7213 23.5567 29.3045C23.2689 28.0453 22.5584 26.9251 21.5617 26.1269C22.0309 25.955 22.4872 25.748 22.9266 25.5085H25.1265C25.3595 25.5085 25.5483 25.3196 25.5483 25.0866C25.5483 24.8536 25.3595 24.6647 25.1265 24.6647H24.2278C25.9748 23.3318 27.2617 21.4575 27.8624 19.3366C29.3781 19.3166 30.605 18.0782 30.605 16.5579C30.605 15.0252 29.3581 13.7782 27.8254 13.7782H27.5845C26.5517 13.5485 25.4944 13.3534 24.4409 13.1985C24.2734 13.1739 24.1243 13.076 24.0319 12.93L23.692 12.3926C23.5313 12.1384 23.1624 12.1292 22.9896 12.3764L22.7757 12.6827C22.6545 12.8561 22.4494 12.9511 22.239 12.9312C21.3102 12.8423 20.3649 12.7824 19.4293 12.7532C19.2051 12.7462 19.0014 12.6092 18.9104 12.4041L18.3319 11.0997C18.1841 10.7664 17.7087 10.7653 17.5606 11.0998L16.9793 12.4118C16.8889 12.6158 16.6864 12.7529 16.4636 12.761C15.8367 12.7836 15.2036 12.8201 14.5821 12.8693C14.3428 12.8881 14.119 12.7627 14.0108 12.5495L13.607 11.7535C13.4485 11.4409 13.0013 11.4482 12.8506 11.7614L12.3311 12.8414C12.2459 13.0186 12.0796 13.1408 11.8862 13.1683C10.7599 13.3281 9.63156 13.5334 8.53119 13.7782H8.28988C6.75718 13.7782 5.51023 15.0251 5.51023 16.5578C5.51023 18.0781 6.73721 19.3166 8.25287 19.3365C8.85367 21.4574 10.1405 23.3317 11.8876 24.6647H8.13266C7.77761 24.6647 7.44186 24.4894 7.23446 24.1958C6.50259 23.1597 5.99989 21.9615 5.69754 20.5328C5.45612 19.3915 5.34351 18.1279 5.34351 16.5578C5.34351 9.54733 11.0471 3.84375 18.0577 3.84375C25.0684 3.84375 30.7719 9.54733 30.7719 16.5579C30.7719 18.8677 30.5569 21.8232 28.881 24.1959C28.6736 24.4895 28.3379 24.6647 27.9828 24.6647H26.8141C26.581 24.6647 26.3922 24.8536 26.3922 25.0866C26.3922 25.3196 26.581 25.5085 26.8141 25.5085H27.9828C28.6115 25.5085 29.2049 25.1997 29.5702 24.6826C31.3831 22.116 31.6156 18.9924 31.6156 16.5579C31.6156 9.08203 25.5335 3 18.0577 3ZM13.2974 29.9716C13.6905 30.111 14.0908 30.2337 14.4947 30.3378C14.4882 30.4916 14.4895 30.5563 14.4895 30.9562H13.2588C13.2588 30.5696 13.2511 30.338 13.2974 29.9716ZM22.8565 30.9563H21.6259C21.6259 30.5564 21.6272 30.4916 21.6207 30.3379C22.0246 30.2337 22.4249 30.111 22.8181 29.9716C22.8434 30.1735 22.8565 30.3775 22.8565 30.5819V30.9563ZM29.7614 16.5579C29.7614 17.5441 29.0199 18.3599 28.0652 18.4784C28.2987 17.2553 28.3172 15.9575 28.0653 14.6374C29.0199 14.756 29.7614 15.5718 29.7614 16.5579ZM6.35398 16.5579C6.35398 15.5717 7.09547 14.756 8.05009 14.6374C7.80754 15.9082 7.80714 17.2053 8.05009 18.4784C7.09541 18.3599 6.35398 17.5442 6.35398 16.5579ZM8.98631 18.8142C8.64139 17.4231 8.62114 15.9571 8.92731 14.5549C9.93907 14.3354 10.9731 14.1502 12.0049 14.0038C12.8503 13.8838 13.0993 13.1913 13.2409 12.8968C13.5391 13.4847 14.0931 13.7548 14.6489 13.7106C15.2584 13.6623 15.8793 13.6265 16.4942 13.6043C17.0374 13.5847 17.5306 13.2508 17.7508 12.7537L17.9466 12.3119L18.1393 12.7463C18.3608 13.2459 18.8569 13.5797 19.4031 13.5967C20.3206 13.6253 21.2477 13.684 22.1587 13.7712C22.5865 13.8124 23.0063 13.6573 23.3051 13.3593C23.5525 13.7512 23.9178 13.9746 24.3183 14.0334C25.2795 14.1747 26.2435 14.3499 27.1881 14.555C27.4939 15.9556 27.4744 17.4211 27.1291 18.8142C26.1196 22.8862 22.4335 25.904 18.0576 25.904C13.7124 25.9039 10.0032 22.9163 8.98631 18.8142Z" fill="black"/>
</svg>
