<svg width="36" height="36" viewBox="0 0 36 36" fill="none" xmlns="http://www.w3.org/2000/svg">
<path d="M4.75 10.5C4.75 10.0858 5.08578 9.75 5.5 9.75H31.3C31.7142 9.75 32.05 10.0858 32.05 10.5V26.4C32.05 26.8142 31.7142 27.15 31.3 27.15H5.5C5.08579 27.15 4.75 26.8142 4.75 26.4V10.5Z" fill="black" stroke="black" stroke-width="1.5" stroke-linejoin="bevel"/>
<path fill-rule="evenodd" clip-rule="evenodd" d="M5.34961 11.3501C5.34961 10.7978 5.79732 10.3501 6.34961 10.3501H30.45C31.0023 10.3501 31.45 10.7978 31.45 11.3501V25.5501C31.45 26.1024 31.0023 26.5501 30.45 26.5501H6.34961C5.79732 26.5501 5.34961 26.1024 5.34961 25.5501V11.3501Z" fill="#B5B5B5"/>
<path d="M9.5 26.4998L8.11266 14.0138C8.05081 13.4571 8.45821 12.9581 9.01603 12.9074L30 11.0002C30 11.0002 31.3104 10.552 31.5 11.5V25.5047C31.5 26.057 31.0523 26.5 30.5 26.5L9.5 26.4998Z" fill="white"/>
<rect x="13" y="19" width="11" height="6" rx="1" fill="#9E9E9E"/>
<ellipse cx="18.2375" cy="22.5" rx="1.2375" ry="1.5" fill="#FEFFFE"/>
<path d="M18.875 21.375C18.875 21.1679 19.0429 21 19.25 21C19.4571 21 19.625 21.1679 19.625 21.375V23.625C19.625 23.8321 19.4571 24 19.25 24C19.0429 24 18.875 23.8321 18.875 23.625V21.375Z" fill="#FEFFFE"/>
<ellipse cx="18.3125" cy="22.5" rx="0.5625" ry="0.75" fill="#9E9E9E"/>
<rect x="14" y="20" width="0.8" height="4" rx="0.4" fill="white"/>
<path d="M14 20.5C14 20.2239 14.2239 20 14.5 20H15.6C16.2627 20 16.8 20.5373 16.8 21.2C16.8 21.8627 16.2627 22.4 15.6 22.4H14V20.5Z" fill="white"/>
<path d="M14.8 20.6513L15.5082 20.6512C15.8209 20.6512 16.0743 20.9046 16.0743 21.2173C16.0743 21.5299 15.8209 21.7833 15.5083 21.7833L14.8 21.7834V20.6513Z" fill="#9E9E9E"/>
<path fill-rule="evenodd" clip-rule="evenodd" d="M20.3934 21.0335C20.176 21.1249 20.0739 21.3752 20.1653 21.5926L21.1447 23.9213L20.9378 24.4048C20.8451 24.6216 20.9456 24.8725 21.1624 24.9653C21.3792 25.058 21.6301 24.9575 21.7229 24.7407L23.0667 21.6004C23.1594 21.3836 23.0589 21.1327 22.8421 21.0399C22.6253 20.9472 22.3744 21.0477 22.2816 21.2645L21.6119 22.8295L20.9525 21.2615C20.8611 21.0442 20.6107 20.9421 20.3934 21.0335Z" fill="#FEFFFE"/>
<path d="M15 13H12C11.7239 13 11.5 13.2239 11.5 13.5C11.5 13.7761 11.7239 14 12 14H14L11.6 17.2C11.3528 17.5296 11.588 18 12 18H15C15.2761 18 15.5 17.7761 15.5 17.5C15.5 17.2239 15.2761 17 15 17H13L15.4 13.8C15.6472 13.4704 15.412 13 15 13Z" fill="#B5B5B5"/>
<ellipse cx="17.65" cy="16" rx="1.65" ry="2" fill="#B5B5B5"/>
<path d="M18.5 14.5C18.5 14.2239 18.7239 14 19 14C19.2761 14 19.5 14.2239 19.5 14.5V17.5C19.5 17.7761 19.2761 18 19 18C18.7239 18 18.5 17.7761 18.5 17.5V14.5Z" fill="#B5B5B5"/>
<ellipse cx="17.75" cy="16" rx="0.75" ry="1" fill="white"/>
<path d="M20.5 13.5C20.5 13.2239 20.7239 13 21 13C21.2761 13 21.5 13.2239 21.5 13.5V17.5C21.5 17.7761 21.2761 18 21 18C20.7239 18 20.5 17.7761 20.5 17.5V13.5Z" fill="#B5B5B5"/>
<ellipse cx="23.9" cy="16" rx="1.9" ry="2" fill="#B5B5B5"/>
<path d="M24.85 16C24.85 16.5523 24.4359 17 23.925 17C23.4141 17 23 16.5523 23 16C23 15.4477 23.4141 15 23.925 15C24.4359 15 24.85 15.4477 24.85 16Z" fill="white"/>
</svg>
