<svg width="23" height="22" viewBox="0 0 23 22" fill="none" xmlns="http://www.w3.org/2000/svg">
<path d="M19.6218 7.67244L13.2693 2.59411C12.2885 1.80578 10.7027 1.80578 9.73099 2.58494L3.3785 7.67244C2.6635 8.24078 2.20516 9.44161 2.36099 10.3399L3.58016 17.6366C3.80016 18.9383 5.04683 19.9924 6.36683 19.9924H16.6335C17.9443 19.9924 19.2002 18.9291 19.4202 17.6366L20.6393 10.3399C20.786 9.44161 20.3277 8.24078 19.6218 7.67244ZM11.5002 14.2083C10.2352 14.2083 9.2085 13.1816 9.2085 11.9166C9.2085 10.6516 10.2352 9.62494 11.5002 9.62494C12.7652 9.62494 13.7918 10.6516 13.7918 11.9166C13.7918 13.1816 12.7652 14.2083 11.5002 14.2083Z" fill="#26BAB9"/>
</svg>
