<svg width="23" height="22" viewBox="0 0 23 22" fill="none" xmlns="http://www.w3.org/2000/svg">
<path d="M9.731 2.58494L3.3785 7.67243C2.6635 8.24076 2.20516 9.44163 2.36099 10.34L3.58016 17.6366C3.80016 18.9383 5.04682 19.9924 6.36682 19.9924H16.6335C17.9443 19.9924 19.2002 18.9291 19.4202 17.6366L20.6393 10.34C20.786 9.44163 20.3277 8.24076 19.6218 7.67243L13.2693 2.59411C12.2885 1.80578 10.7027 1.80577 9.731 2.58494Z" stroke="#A8A8A8" stroke-linecap="round" stroke-linejoin="round"/>
<path d="M11.5002 14.2083C12.7658 14.2083 13.7918 13.1823 13.7918 11.9167C13.7918 10.651 12.7658 9.625 11.5002 9.625C10.2345 9.625 9.2085 10.651 9.2085 11.9167C9.2085 13.1823 10.2345 14.2083 11.5002 14.2083Z" stroke="#A8A8A8" stroke-linecap="round" stroke-linejoin="round"/>
</svg>
