<svg width="23" height="22" viewBox="0 0 23 22" fill="none" xmlns="http://www.w3.org/2000/svg">
<path d="M8.29183 17.4166H7.8335C4.16683 17.4166 2.3335 16.4999 2.3335 11.9166V7.33325C2.3335 3.66659 4.16683 1.83325 7.8335 1.83325H15.1668C18.8335 1.83325 20.6668 3.66659 20.6668 7.33325V11.9166C20.6668 15.5833 18.8335 17.4166 15.1668 17.4166H14.7085C14.4243 17.4166 14.1493 17.5541 13.9752 17.7833L12.6002 19.6166C11.9952 20.4233 11.0052 20.4233 10.4002 19.6166L9.02516 17.7833C8.8785 17.5816 8.53933 17.4166 8.29183 17.4166Z" stroke="#26BAB9" stroke-miterlimit="10" stroke-linecap="round" stroke-linejoin="round"/>
<path d="M15.1633 10.0833H15.1715" stroke="#26BAB9" stroke-width="1.5" stroke-linecap="round" stroke-linejoin="round"/>
<path d="M11.4958 10.0833H11.504" stroke="#26BAB9" stroke-width="1.5" stroke-linecap="round" stroke-linejoin="round"/>
<path d="M7.8283 10.0833H7.83653" stroke="#26BAB9" stroke-width="1.5" stroke-linecap="round" stroke-linejoin="round"/>
</svg>
