<svg width="23" height="22" viewBox="0 0 23 22" fill="none" xmlns="http://www.w3.org/2000/svg">
<path d="M8.29183 17.4167H7.8335C4.16683 17.4167 2.3335 16.5 2.3335 11.9167V7.33337C2.3335 3.66671 4.16683 1.83337 7.8335 1.83337H15.1668C18.8335 1.83337 20.6668 3.66671 20.6668 7.33337V11.9167C20.6668 15.5834 18.8335 17.4167 15.1668 17.4167H14.7085C14.4243 17.4167 14.1493 17.5542 13.9752 17.7834L12.6002 19.6167C11.9952 20.4234 11.0052 20.4234 10.4002 19.6167L9.02516 17.7834C8.8785 17.5817 8.53933 17.4167 8.29183 17.4167Z" stroke="#A8A8A8" stroke-miterlimit="10" stroke-linecap="round" stroke-linejoin="round"/>
<path d="M15.1633 10.0833H15.1715" stroke="#A8A8A8" stroke-width="1.5" stroke-linecap="round" stroke-linejoin="round"/>
<path d="M11.4958 10.0833H11.504" stroke="#A8A8A8" stroke-width="1.5" stroke-linecap="round" stroke-linejoin="round"/>
<path d="M7.8283 10.0833H7.83653" stroke="#A8A8A8" stroke-width="1.5" stroke-linecap="round" stroke-linejoin="round"/>
</svg>
