<svg width="23" height="22" viewBox="0 0 23 22" fill="none" xmlns="http://www.w3.org/2000/svg">
<path d="M10.5927 18.3516C15.1541 18.3516 18.8518 14.6538 18.8518 10.0924C18.8518 5.53101 15.1541 1.83325 10.5927 1.83325C6.03125 1.83325 2.3335 5.53101 2.3335 10.0924C2.3335 14.6538 6.03125 18.3516 10.5927 18.3516Z" fill="#26BAB9"/>
<path d="M20.6574 17.3708C20.3549 16.8117 19.7132 16.5 18.8516 16.5C18.2007 16.5 17.6416 16.7658 17.3116 17.2242C16.9816 17.6825 16.9082 18.2967 17.1099 18.9108C17.5041 20.1025 18.1916 20.3683 18.5674 20.4142C18.6224 20.4233 18.6774 20.4233 18.7416 20.4233C19.1449 20.4233 19.7682 20.2492 20.3732 19.3417C20.8591 18.6358 20.9507 17.93 20.6574 17.3708Z" fill="#26BAB9"/>
</svg>
