<svg width="56" height="56" viewBox="0 0 56 56" fill="none" xmlns="http://www.w3.org/2000/svg">
<circle cx="21" cy="21" r="14" transform="rotate(-90 21 21)" fill="#EBDFF4"/>
<ellipse cx="39.6668" cy="39.6667" rx="9.33333" ry="9.33333" transform="rotate(-90 39.6668 39.6667)" fill="#EBDFF4"/>
<ellipse cx="15.1668" cy="44.3333" rx="2.33333" ry="2.33333" transform="rotate(-90 15.1668 44.3333)" fill="#EBDFF4"/>
<path d="M21.6894 41.6164C22.0524 43.1183 23.3966 44.1764 24.9418 44.1764C25.8657 44.1764 26.6147 43.4273 26.6147 42.5034V35.9806H28.3793C29.9986 35.9806 31.3113 34.6679 31.3113 33.0485V30.5737C34.4645 30.1973 37.9304 29.5806 40.4933 29.0836C42.7425 28.6474 44.3335 26.6649 44.3335 24.3737V20.7628C44.3335 18.7764 43.1368 17.0105 41.329 16.2998M39.2216 15.733C36.4995 15.0671 33.1129 14.3092 30.1585 13.8578C27.6181 13.4697 24.2206 13.1285 21.1075 12.8617C16.6233 12.4774 12.8335 16.0504 12.8335 20.5511V23.5611C12.8335 27.3773 15.5646 30.5485 19.1657 31.1737L20.7564 37.7554M27.8113 30.904C28.3464 30.8645 28.8638 30.8226 29.3566 30.7783V33.0485C29.3566 33.5883 28.919 34.0259 28.3793 34.0259H27.8113V30.904Z" stroke="#664B96" stroke-width="1.3" stroke-linecap="round" stroke-linejoin="round"/>
<path d="M24.8457 18.9021C24.8457 19.8686 24.0622 20.6521 23.0957 20.6521C22.1292 20.6521 21.3457 19.8686 21.3457 18.9021C21.3457 17.9356 22.1292 17.1521 23.0957 17.1521C24.0622 17.1521 24.8457 17.9356 24.8457 18.9021Z" stroke="#664B96" stroke-width="1.3"/>
<path d="M24.8457 24.3567C24.8457 25.3232 24.0622 26.1067 23.0957 26.1067C22.1292 26.1067 21.3457 25.3232 21.3457 24.3567C21.3457 23.3902 22.1292 22.6067 23.0957 22.6067C24.0622 22.6067 24.8457 23.3902 24.8457 24.3567Z" stroke="#664B96" stroke-width="1.3"/>
<path d="M19.8345 21.8622C19.8345 22.8287 19.051 23.6122 18.0845 23.6122C17.118 23.6122 16.3345 22.8287 16.3345 21.8622C16.3345 20.8957 17.118 20.1122 18.0845 20.1122C19.051 20.1122 19.8345 20.8957 19.8345 21.8622Z" stroke="#664B96" stroke-width="1.3"/>
<path d="M21.8 39.65C21.8 40.009 21.509 40.3 21.15 40.3C20.791 40.3 20.5 40.009 20.5 39.65C20.5 39.291 20.791 39 21.15 39C21.509 39 21.8 39.291 21.8 39.65Z" fill="#664B96"/>
</svg>
