<svg width="56" height="56" viewBox="0 0 56 56" fill="none" xmlns="http://www.w3.org/2000/svg">
<circle cx="35" cy="21" r="14" fill="#FEEDFC"/>
<ellipse cx="16.3333" cy="39.6667" rx="9.33333" ry="9.33333" fill="#FEEDFC"/>
<ellipse cx="11.6668" cy="15.1667" rx="2.33333" ry="2.33333" fill="#FEEDFC"/>
<path d="M27.9229 11.8686C27.5022 11.8686 27.1611 11.5276 27.1611 11.1069V8.76172C27.1611 8.34102 27.5022 8 27.9229 8C28.3435 8 28.6846 8.34102 28.6846 8.76172V11.1069C28.6846 11.5276 28.3435 11.8686 27.9229 11.8686Z" fill="#8D0681"/>
<path d="M18.0148 15.9734C17.8198 15.9734 17.6249 15.899 17.4762 15.7503L15.8178 14.092C15.5204 13.7946 15.5204 13.3122 15.8178 13.0147C16.1153 12.7173 16.5975 12.7173 16.8951 13.0147L18.5535 14.6731C18.8509 14.9705 18.8509 15.4528 18.5535 15.7504C18.4046 15.899 18.2098 15.9734 18.0148 15.9734Z" fill="#8D0681"/>
<path d="M37.8301 15.9725C37.6351 15.9725 37.4402 15.8981 37.2914 15.7494C36.994 15.4519 36.994 14.9696 37.2914 14.6721L38.9498 13.0137C39.2473 12.7163 39.7295 12.7163 40.0271 13.0137C40.3245 13.3112 40.3245 13.7935 40.0271 14.091L38.3688 15.7494C38.2199 15.8981 38.0251 15.9725 37.8301 15.9725Z" fill="#8D0681"/>
<path d="M13.3076 36.5231C13.1126 36.5231 12.9178 36.4488 12.769 36.3C12.4715 36.0026 12.4715 35.5203 12.769 35.2227L14.4272 33.5644C14.7248 33.2669 15.2069 33.2669 15.5045 33.5644C15.802 33.8618 15.802 34.3442 15.5045 34.6417L13.8462 36.3C13.6974 36.4488 13.5026 36.5231 13.3076 36.5231Z" fill="#8D0681"/>
<path d="M42.5386 36.5231C42.3436 36.5231 42.1488 36.4488 42 36.3L40.3417 34.6417C40.0443 34.3442 40.0443 33.8619 40.3417 33.5644C40.6393 33.2669 41.1214 33.2669 41.419 33.5644L43.0774 35.2227C43.3748 35.5202 43.3748 36.0025 43.0774 36.3C42.9285 36.4488 42.7335 36.5231 42.5386 36.5231Z" fill="#8D0681"/>
<path d="M45.084 25.8813H42.7388C42.3181 25.8813 41.9771 25.5403 41.9771 25.1196C41.9771 24.6989 42.3181 24.3579 42.7388 24.3579H45.084C45.5046 24.3579 45.8457 24.6989 45.8457 25.1196C45.8457 25.5403 45.5046 25.8813 45.084 25.8813Z" fill="#8D0681"/>
<path d="M13.1069 25.8813H10.7617C10.3411 25.8813 10 25.5403 10 25.1196C10 24.6989 10.3411 24.3579 10.7617 24.3579H13.1069C13.5276 24.3579 13.8686 24.6989 13.8686 25.1196C13.8686 25.5403 13.5276 25.8813 13.1069 25.8813Z" fill="#8D0681"/>
<path d="M38.9234 32.8949C38.1779 32.8959 37.8789 31.9121 38.5005 31.5002C38.7494 31.3293 39.0975 31.3295 39.3461 31.5002C39.9692 31.9123 39.6685 32.8958 38.9234 32.8949Z" fill="#8D0681"/>
<path d="M37.2689 16.7842C34.8341 14.3153 31.5853 12.9273 28.121 12.876C24.6228 12.826 21.3049 14.1478 18.7803 16.603C16.2582 19.0559 14.844 22.3311 14.7985 25.8251C14.7682 28.145 15.3507 30.4364 16.483 32.4516C17.5756 34.3959 19.1505 36.0416 21.0373 37.2107C22.2292 37.9492 22.9408 39.2259 22.9408 40.6257V43.574C22.9408 43.9947 23.2819 44.3357 23.7025 44.3357H24.8063V46.2383C24.8063 46.659 25.1474 47 25.5681 47H30.2776C30.6982 47 31.0393 46.659 31.0393 46.2383V44.3356H32.1431C32.5638 44.3356 32.9049 43.9946 32.9049 43.5739V40.6256C32.9049 39.2248 33.614 37.9497 34.8018 37.2147C35.5049 36.7797 36.1718 36.2735 36.7838 35.7104C37.0934 35.4255 37.1134 34.9436 36.8285 34.634C36.5437 34.3246 36.0618 34.3045 35.7522 34.5893C35.211 35.0874 34.6215 35.5349 34.0003 35.9193C33.2247 36.3993 32.5969 37.0458 32.1507 37.7984V27.266C32.1507 26.5909 31.9563 25.9348 31.5885 25.3686L28.5616 20.7087C28.4211 20.4924 28.1807 20.3619 27.9228 20.3619C27.6649 20.3619 27.4245 20.4924 27.2841 20.7087L24.2571 25.3686C23.8894 25.9348 23.695 26.5909 23.695 27.266V37.8011C23.2476 37.0466 22.6178 36.3979 21.8396 35.9156C18.3829 33.7739 16.2686 29.915 16.3218 25.845C16.362 22.7582 17.6124 19.8639 19.8425 17.6951C22.0751 15.524 25.0105 14.3534 28.0984 14.3992C34.3991 14.4925 39.5251 19.6967 39.5251 26C39.5251 26.5436 39.4872 27.0905 39.4124 27.6255C39.3542 28.0421 39.6447 28.4271 40.0614 28.4854C40.4782 28.5436 40.863 28.253 40.9212 27.8364C41.0057 27.2317 41.0486 26.6138 41.0486 26C41.0485 22.5287 39.7062 19.2557 37.2689 16.7842ZM25.5348 26.1985L26.121 25.296H29.7249L30.311 26.1985C30.5058 26.4983 30.6141 26.843 30.6262 27.1992C30.4044 27.1527 30.1769 27.129 29.9463 27.129C29.198 27.129 28.4934 27.375 27.9229 27.8218C27.3525 27.375 26.6478 27.129 25.8995 27.129C25.6689 27.129 25.4413 27.1527 25.2196 27.1992C25.2317 26.843 25.34 26.4983 25.5348 26.1985ZM28.6846 39.8639V29.1813C29.0157 28.8427 29.4642 28.6524 29.9463 28.6524C30.1829 28.6524 30.4134 28.6987 30.6273 28.7881V39.8639H28.6846ZM25.2185 28.7882C25.4325 28.6988 25.6629 28.6525 25.8995 28.6525C26.3816 28.6525 26.8301 28.8428 27.1612 29.1814V39.864H25.2185V28.7882ZM29.516 45.4766H26.3298V44.3356H29.516V45.4766ZM31.3815 42.8122H24.4642V41.3874H31.3815V42.8122ZM27.9229 22.5219L28.7353 23.7725H27.1105L27.9229 22.5219Z" fill="#8D0681"/>
</svg>
