<svg fill="none" height="56" viewBox="0 0 56 56" width="56" xmlns="http://www.w3.org/2000/svg"><ellipse cx="39.6668" cy="16.3333" fill="#fdcbca" rx="9.33333" ry="9.33333"/><circle cx="21" cy="35" fill="#fdcbca" r="14"/><ellipse cx="18.6668" cy="11.6667" fill="#fdcbca" rx="2.33333" ry="2.33333"/><g stroke="#ac293c"><path d="m43.0268 22.1089v1.7551c0 1.1074-.8977 2.0051-2.0051 2.0051h-1.881v7.9527l1.9776 4.9442c.8432 2.1078-.7092 4.4007-2.9794 4.4007s-3.8226-2.2929-2.9795-4.4007l1.9762-4.9404v-7.9565h-1.8805c-1.1074 0-2.0051-.8977-2.0051-2.0051v-7.0204c0-2.2148 1.7954-4.0102 4.0102-4.0102h1.7564c2.2148 0 4.0102 1.7954 4.0102 4.0102v1.7551m-4.8879 18.1176-1.1178 2.7943c-.3163.7908.2661 1.651 1.1178 1.651s1.4341-.8602 1.1177-1.651z" stroke-linecap="round" stroke-linejoin="round" stroke-width="1.3"/><path d="m43.1496 20.5224c0 .0829-.0672.15-.15.15s-.15-.0671-.15-.15c0-.0828.0672-.15.15-.15s.15.0672.15.15z" fill="#ac293c"/><path d="m18.0051 41.5021c.9726.4235 2.0531.6609 3.2041.6609h2.5519c5.4214 0 9.281-5.2671 7.6478-10.4366l-.1945-.6155-.759-3.6963c-.5684-2.7678-2.9847-4.7627-5.8018-4.8046h.2752c.8999 0 1.6294-.7295 1.6294-1.6295 0-.8999-.7295-1.6294-1.6294-1.6294h-4.8885c-.8999 0-1.6294.7295-1.6294 1.6294 0 .9.7295 1.6295 1.6294 1.6295h.2764c-2.8171.0419-5.2334 2.0368-5.8018 4.8046l-.7591 3.6963-.1944.6155c-.7863 2.4887-.2995 5 1.0217 6.9353" stroke-linecap="round" stroke-linejoin="round" stroke-width="1.3"/><path d="m25.908 34.7496c0 1.8908-1.5328 3.4237-3.4237 3.4237-1.8908 0-3.4237-1.5329-3.4237-3.4237 0-1.8909 1.5329-3.4237 3.4237-3.4237 1.8909 0 3.4237 1.5328 3.4237 3.4237z" stroke-width="1.3"/><path d="m16.3166 40.3167c0 .0829-.0672.15-.15.15s-.15-.0671-.15-.15c0-.0828.0672-.15.15-.15s.15.0672.15.15z" fill="#ac293c"/></g></svg>