<svg width="56" height="56" viewBox="0 0 56 56" fill="none" xmlns="http://www.w3.org/2000/svg">
<ellipse cx="32.0832" cy="23.9167" rx="16.9167" ry="16.9167" fill="#BFE8C7"/>
<circle cx="10.5" cy="45.5" r="3.5" fill="#BFE8C7"/>
<path d="M39.3616 17.9526C41.7295 20.6281 43.1668 24.1462 43.1668 28C43.1668 36.3764 36.3765 43.1667 28.0002 43.1667C19.6238 43.1667 12.8335 36.3764 12.8335 28C12.8335 19.6237 19.6238 12.8334 28.0002 12.8334C30.8713 12.8334 33.5561 13.6312 35.845 15.0172" stroke="#228856" stroke-width="1.3" stroke-linecap="round"/>
<path d="M29.6848 20.1355C29.6848 21.0951 29.0701 22.8743 28.3657 24.073C28.1968 24.3604 27.8019 24.3608 27.6308 24.0747C26.9276 22.8991 26.3145 21.194 26.3145 20.1355C26.3145 18.8945 27.0689 17.8885 27.9996 17.8885C28.9303 17.8885 29.6848 18.8945 29.6848 20.1355Z" stroke="#228856" stroke-width="1.3"/>
<path d="M26.3157 35.8645C26.3157 34.9049 26.9304 33.1257 27.6348 31.927C27.8037 31.6396 28.1986 31.6392 28.3697 31.9253C29.0729 33.1009 29.686 34.806 29.686 35.8645C29.686 37.1055 28.9316 38.1115 28.0008 38.1115C27.0701 38.1115 26.3157 37.1055 26.3157 35.8645Z" stroke="#228856" stroke-width="1.3"/>
<path d="M35.8649 29.6847C34.9053 29.6847 33.1261 29.07 31.9274 28.3656C31.64 28.1967 31.6396 27.8018 31.9256 27.6307C33.1013 26.9274 34.8064 26.3143 35.8649 26.3143C37.1058 26.3143 38.1118 27.0688 38.1118 27.9995C38.1118 28.9302 37.1058 29.6847 35.8649 29.6847Z" stroke="#228856" stroke-width="1.3"/>
<path d="M32.3688 34.7523C31.6903 34.0737 30.8668 32.381 30.5173 31.0353C30.4335 30.7126 30.7125 30.4331 31.0358 30.5144C32.3643 30.8485 34.0035 31.6206 34.752 32.3691C35.6295 33.2466 35.8073 34.4914 35.1492 35.1495C34.4911 35.8076 33.2463 35.6298 32.3688 34.7523Z" stroke="#228856" stroke-width="1.3"/>
<path d="M21.2481 32.3686C21.9266 31.69 23.6194 30.8666 24.9651 30.5171C25.2877 30.4333 25.5673 30.7122 25.486 31.0355C25.1519 32.3641 24.3798 34.0033 23.6313 34.7518C22.7538 35.6292 21.509 35.8071 20.8509 35.149C20.1928 34.4909 20.3706 33.246 21.2481 32.3686Z" stroke="#228856" stroke-width="1.3"/>
<path d="M34.7524 23.6316C34.0739 24.3101 32.3811 25.1335 31.0354 25.4831C30.7128 25.5669 30.4332 25.2879 30.5145 24.9646C30.8486 23.636 31.6207 21.9969 32.3692 21.2484C33.2467 20.3709 34.4915 20.193 35.1496 20.8512C35.8077 21.5093 35.6299 22.7541 34.7524 23.6316Z" stroke="#228856" stroke-width="1.3"/>
<path d="M38.5002 16.5001C38.5002 16.8591 38.2092 17.1501 37.8502 17.1501C37.4912 17.1501 37.2002 16.8591 37.2002 16.5001C37.2002 16.1411 37.4912 15.8501 37.8502 15.8501C38.2092 15.8501 38.5002 16.1411 38.5002 16.5001Z" fill="#228856"/>
</svg>
