<svg width="56" height="56" viewBox="0 0 56 56" fill="none" xmlns="http://www.w3.org/2000/svg">
<ellipse cx="22.25" cy="31" rx="14" ry="14" transform="rotate(-90 22.25 31)" fill="#E2EAFF"/>
<ellipse cx="43.25" cy="15" rx="4" ry="4" transform="rotate(-90 43.25 15)" fill="#E2EAFF"/>
<circle cx="13.4243" cy="16.2677" r="1.41692" stroke="#0833A0" stroke-width="1.3"/>
<circle cx="44.4278" cy="16.2677" r="1.41692" stroke="#0833A0" stroke-width="1.3"/>
<path d="M14.4575 16.2677H43.3943" stroke="#0833A0" stroke-width="1.3"/>
<path d="M13.4238 26.6026C12.3903 25.3969 9.99161 24.5359 8.51503 26.6025C6.66916 29.1859 10.6679 32.2865 13.4238 33.3199" stroke="#0833A0" stroke-width="1.3" stroke-linecap="round"/>
<path d="M13.6827 26.6021C14.7161 25.3964 17.1148 24.5354 18.5914 26.602C20.4372 29.1854 16.4385 32.286 13.6827 33.3194" stroke="#0833A0" stroke-width="1.3" stroke-linecap="round"/>
<path d="M13.4243 18.3346V24.0186" stroke="#0833A0" stroke-width="1.3" stroke-linecap="round"/>
<path d="M47.0113 24.5353H44.4276M41.3273 32.803H44.4276M44.4276 24.5353H42.8105C41.706 24.5353 40.8105 25.4307 40.8105 26.5353V26.6691C40.8105 27.7737 41.706 28.6691 42.8105 28.6691H46.0448C47.1493 28.6691 48.0448 29.5646 48.0448 30.6691V30.803C48.0448 31.9075 47.1493 32.803 46.0448 32.803H44.4276M44.4276 24.5353V23.5018M44.4276 32.803V33.8364" stroke="#0833A0" stroke-width="1.3" stroke-linecap="round"/>
<path d="M44.4277 17.8179V21.6787" stroke="#0833A0" stroke-width="1.3" stroke-linecap="round"/>
<path d="M26.8589 16.2677V40.0372H30.9927M30.9927 16.2677V35.9034" stroke="#0833A0" stroke-width="1.3" stroke-linecap="round"/>
<path d="M31.5095 46.238H36.1935C36.7458 46.238 37.1935 45.7902 37.1935 45.238V43.6208C37.1935 43.0686 36.7458 42.6208 36.1935 42.6208H21.6582C21.1059 42.6208 20.6582 43.0686 20.6582 43.6208V45.238C20.6582 45.7902 21.1059 46.238 21.6582 46.238H27.3757" stroke="#0833A0" stroke-width="1.3" stroke-linecap="round"/>
<path d="M28.9258 11.1004V8" stroke="#0833A0" stroke-width="1.3" stroke-linecap="round"/>
<circle cx="28.9258" cy="14.2007" r="3.48383" fill="white" stroke="#0833A0" stroke-width="1.3"/>
<circle cx="28.9258" cy="14.2007" r="1.41692" fill="white" stroke="#0833A0" stroke-width="1.3"/>
<path d="M23.7588 41.0372C23.7588 40.4849 24.2065 40.0372 24.7588 40.0372H33.0934C33.6457 40.0372 34.0934 40.4849 34.0934 41.0372V41.6209C34.0934 42.1732 33.6457 42.6209 33.0934 42.6209H24.7588C24.2065 42.6209 23.7588 42.1732 23.7588 41.6209V41.0372Z" stroke="#0833A0" stroke-width="1.3"/>
<path d="M31.6653 38.1252C31.6653 38.4962 31.3645 38.797 30.9935 38.797C30.6225 38.797 30.3218 38.4962 30.3218 38.1252C30.3218 37.7542 30.6225 37.4535 30.9935 37.4535C31.3645 37.4535 31.6653 37.7542 31.6653 38.1252Z" fill="#0833A0"/>
<path d="M30.2693 46.2379C30.2693 46.6089 29.9685 46.9097 29.5975 46.9097C29.2265 46.9097 28.9258 46.6089 28.9258 46.2379C28.9258 45.8669 29.2265 45.5662 29.5975 45.5662C29.9685 45.5662 30.2693 45.8669 30.2693 46.2379Z" fill="#0833A0"/>
</svg>
